%TF.GenerationSoftware,KiCad,Pcbnew,9.0.4*%
%TF.CreationDate,2025-10-14T22:23:38+02:00*%
%TF.ProjectId,Antminer_hat_PCB,416e746d-696e-4657-925f-6861745f5043,rev?*%
%TF.SameCoordinates,Original*%
%TF.FileFunction,Soldermask,Top*%
%TF.FilePolarity,Negative*%
%FSLAX46Y46*%
G04 Gerber Fmt 4.6, Leading zero omitted, Abs format (unit mm)*
G04 Created by KiCad (PCBNEW 9.0.4) date 2025-10-14 22:23:38*
%MOMM*%
%LPD*%
G01*
G04 APERTURE LIST*
G04 Aperture macros list*
%AMRoundRect*
0 Rectangle with rounded corners*
0 $1 Rounding radius*
0 $2 $3 $4 $5 $6 $7 $8 $9 X,Y pos of 4 corners*
0 Add a 4 corners polygon primitive as box body*
4,1,4,$2,$3,$4,$5,$6,$7,$8,$9,$2,$3,0*
0 Add four circle primitives for the rounded corners*
1,1,$1+$1,$2,$3*
1,1,$1+$1,$4,$5*
1,1,$1+$1,$6,$7*
1,1,$1+$1,$8,$9*
0 Add four rect primitives between the rounded corners*
20,1,$1+$1,$2,$3,$4,$5,0*
20,1,$1+$1,$4,$5,$6,$7,0*
20,1,$1+$1,$6,$7,$8,$9,0*
20,1,$1+$1,$8,$9,$2,$3,0*%
G04 Aperture macros list end*
%ADD10RoundRect,0.250001X-1.074999X0.462499X-1.074999X-0.462499X1.074999X-0.462499X1.074999X0.462499X0*%
%ADD11RoundRect,0.150000X-0.425000X0.150000X-0.425000X-0.150000X0.425000X-0.150000X0.425000X0.150000X0*%
%ADD12RoundRect,0.075000X-0.500000X0.075000X-0.500000X-0.075000X0.500000X-0.075000X0.500000X0.075000X0*%
%ADD13O,2.100000X1.000000*%
%ADD14O,1.800000X1.000000*%
%ADD15R,1.700000X1.700000*%
%ADD16C,1.700000*%
%ADD17C,1.420000*%
%ADD18C,2.050000*%
%ADD19C,1.500000*%
%ADD20R,2.600000X0.300000*%
%ADD21O,3.300000X1.500000*%
%ADD22O,2.300000X1.500000*%
%ADD23R,0.675000X0.200000*%
%ADD24R,1.550000X0.400000*%
%ADD25RoundRect,0.250000X-0.325000X-0.650000X0.325000X-0.650000X0.325000X0.650000X-0.325000X0.650000X0*%
%ADD26R,1.905000X2.000000*%
%ADD27O,1.905000X2.000000*%
%ADD28RoundRect,0.250000X0.325000X0.650000X-0.325000X0.650000X-0.325000X-0.650000X0.325000X-0.650000X0*%
%ADD29R,1.350000X1.350000*%
%ADD30C,1.350000*%
%ADD31C,7.000000*%
G04 APERTURE END LIST*
D10*
%TO.C,D8*%
X48700000Y-105300000D03*
X48700000Y-108275000D03*
%TD*%
D11*
%TO.C,J14*%
X32795316Y-93864174D03*
X32795316Y-94664174D03*
D12*
X32795316Y-95814174D03*
X32795316Y-96814174D03*
X32795316Y-97314174D03*
X32795316Y-98314174D03*
D11*
X32795316Y-99464174D03*
X32795316Y-100264174D03*
X32795316Y-100264174D03*
X32795316Y-99464174D03*
D12*
X32795316Y-98814174D03*
X32795316Y-97814174D03*
X32795316Y-96314174D03*
X32795316Y-95314174D03*
D11*
X32795316Y-94664174D03*
X32795316Y-93864174D03*
D13*
X32220316Y-92744174D03*
D14*
X28040316Y-92744174D03*
D13*
X32220316Y-101384174D03*
D14*
X28040316Y-101384174D03*
%TD*%
D15*
%TO.C,J16*%
X119420000Y-44000000D03*
D16*
X116880000Y-44000000D03*
X114340000Y-44000000D03*
X111800000Y-44000000D03*
X109260000Y-44000000D03*
X106720000Y-44000000D03*
X104180000Y-44000000D03*
X101640000Y-44000000D03*
X99100000Y-44000000D03*
X96560000Y-44000000D03*
X94020000Y-44000000D03*
X91480000Y-44000000D03*
X88940000Y-44000000D03*
X86400000Y-44000000D03*
X83860000Y-44000000D03*
X81320000Y-44000000D03*
X78780000Y-44000000D03*
X76240000Y-44000000D03*
X73700000Y-44000000D03*
X71160000Y-44000000D03*
X68620000Y-44000000D03*
X66080000Y-44000000D03*
X63540000Y-44000000D03*
X61000000Y-44000000D03*
X58460000Y-44000000D03*
X55920000Y-44000000D03*
X53380000Y-44000000D03*
X50840000Y-44000000D03*
X48300000Y-44000000D03*
X45760000Y-44000000D03*
X43220000Y-44000000D03*
X40680000Y-44000000D03*
X38140000Y-44000000D03*
X35600000Y-44000000D03*
X33060000Y-44000000D03*
X30520000Y-44000000D03*
X27980000Y-44000000D03*
%TD*%
D17*
%TO.C,J15*%
X43630000Y-109565000D03*
X41630000Y-109565000D03*
X39630000Y-109565000D03*
X37630000Y-109565000D03*
D18*
X43900000Y-112300000D03*
X36900000Y-112300000D03*
X36900000Y-106830000D03*
X43900000Y-106830000D03*
%TD*%
D19*
%TO.C,TP2*%
X49800000Y-82500000D03*
%TD*%
D20*
%TO.C,J13*%
X35260000Y-84500000D03*
X35260000Y-84000000D03*
X35260000Y-83500000D03*
X35260000Y-83000000D03*
X35260000Y-82500000D03*
X35260000Y-82000000D03*
X35260000Y-81500000D03*
X35260000Y-81000000D03*
X35260000Y-80500000D03*
X35260000Y-80000000D03*
X35260000Y-79500000D03*
X35260000Y-79000000D03*
X35260000Y-78500000D03*
X35260000Y-78000000D03*
X35260000Y-77500000D03*
X35260000Y-77000000D03*
X35260000Y-76500000D03*
X35260000Y-76000000D03*
X35260000Y-75500000D03*
D21*
X34500000Y-87250000D03*
X34500000Y-72750000D03*
D22*
X28540000Y-87250000D03*
X28540000Y-72750000D03*
%TD*%
D19*
%TO.C,TP4*%
X50100000Y-78900000D03*
%TD*%
D23*
%TO.C,D6*%
X42438000Y-83000000D03*
X42438000Y-82500000D03*
D24*
X42000000Y-82000000D03*
D23*
X42438000Y-81500000D03*
X42438000Y-81000000D03*
X41562000Y-81000000D03*
X41562000Y-81500000D03*
X41562000Y-82500000D03*
X41562000Y-83000000D03*
%TD*%
D25*
%TO.C,C2*%
X105705000Y-85105000D03*
X108655000Y-85105000D03*
%TD*%
D26*
%TO.C,U1*%
X112395000Y-89605000D03*
D27*
X109855000Y-89605000D03*
X107315000Y-89605000D03*
%TD*%
D19*
%TO.C,TP1*%
X52500000Y-82400000D03*
%TD*%
D28*
%TO.C,C1*%
X114005000Y-85105000D03*
X111055000Y-85105000D03*
%TD*%
D19*
%TO.C,TP6*%
X47500000Y-79000000D03*
%TD*%
D23*
%TO.C,D7*%
X40762000Y-68900000D03*
X40762000Y-69400000D03*
D24*
X41200000Y-69900000D03*
D23*
X40762000Y-70400000D03*
X40762000Y-70900000D03*
X41638000Y-70900000D03*
X41638000Y-70400000D03*
X41638000Y-69400000D03*
X41638000Y-68900000D03*
%TD*%
D25*
%TO.C,C3*%
X105605000Y-81205000D03*
X108555000Y-81205000D03*
%TD*%
D19*
%TO.C,TP3*%
X52600000Y-78900000D03*
%TD*%
%TO.C,TP5*%
X47100000Y-82500000D03*
%TD*%
D15*
%TO.C,J11*%
X67600000Y-105100000D03*
D16*
X70140000Y-105100000D03*
X72680000Y-105100000D03*
X75220000Y-105100000D03*
X77760000Y-105100000D03*
%TD*%
D23*
%TO.C,D1*%
X42688000Y-96500000D03*
X42688000Y-96000000D03*
D24*
X42250000Y-95500000D03*
D23*
X42688000Y-95000000D03*
X42688000Y-94500000D03*
X41812000Y-94500000D03*
X41812000Y-95000000D03*
X41812000Y-96000000D03*
X41812000Y-96500000D03*
%TD*%
D10*
%TO.C,D2*%
X52500000Y-105300000D03*
X52500000Y-108275000D03*
%TD*%
D29*
%TO.C,J2*%
X101600000Y-66000000D03*
D30*
X103600000Y-66000000D03*
X101600000Y-64000000D03*
X103600000Y-64000000D03*
X101600000Y-62000000D03*
X103600000Y-62000000D03*
X101600000Y-60000000D03*
X103600000Y-60000000D03*
X101600000Y-58000000D03*
X103600000Y-58000000D03*
X101600000Y-56000000D03*
X103600000Y-56000000D03*
X101600000Y-54000000D03*
X103600000Y-54000000D03*
X101600000Y-52000000D03*
X103600000Y-52000000D03*
X101600000Y-50000000D03*
X103600000Y-50000000D03*
%TD*%
D15*
%TO.C,J12*%
X118040000Y-89500000D03*
D16*
X118040000Y-92040000D03*
X115500000Y-89500000D03*
X115500000Y-92040000D03*
%TD*%
D29*
%TO.C,J8*%
X37900000Y-66000000D03*
D30*
X39900000Y-66000000D03*
X37900000Y-64000000D03*
X39900000Y-64000000D03*
X37900000Y-62000000D03*
X39900000Y-62000000D03*
X37900000Y-60000000D03*
X39900000Y-60000000D03*
X37900000Y-58000000D03*
X39900000Y-58000000D03*
X37900000Y-56000000D03*
X39900000Y-56000000D03*
X37900000Y-54000000D03*
X39900000Y-54000000D03*
X37900000Y-52000000D03*
X39900000Y-52000000D03*
X37900000Y-50000000D03*
X39900000Y-50000000D03*
%TD*%
D29*
%TO.C,J7*%
X48600000Y-66000000D03*
D30*
X50600000Y-66000000D03*
X48600000Y-64000000D03*
X50600000Y-64000000D03*
X48600000Y-62000000D03*
X50600000Y-62000000D03*
X48600000Y-60000000D03*
X50600000Y-60000000D03*
X48600000Y-58000000D03*
X50600000Y-58000000D03*
X48600000Y-56000000D03*
X50600000Y-56000000D03*
X48600000Y-54000000D03*
X50600000Y-54000000D03*
X48600000Y-52000000D03*
X50600000Y-52000000D03*
X48600000Y-50000000D03*
X50600000Y-50000000D03*
%TD*%
D29*
%TO.C,J6*%
X59300000Y-66000000D03*
D30*
X61300000Y-66000000D03*
X59300000Y-64000000D03*
X61300000Y-64000000D03*
X59300000Y-62000000D03*
X61300000Y-62000000D03*
X59300000Y-60000000D03*
X61300000Y-60000000D03*
X59300000Y-58000000D03*
X61300000Y-58000000D03*
X59300000Y-56000000D03*
X61300000Y-56000000D03*
X59300000Y-54000000D03*
X61300000Y-54000000D03*
X59300000Y-52000000D03*
X61300000Y-52000000D03*
X59300000Y-50000000D03*
X61300000Y-50000000D03*
%TD*%
D29*
%TO.C,J4*%
X80900000Y-66000000D03*
D30*
X82900000Y-66000000D03*
X80900000Y-64000000D03*
X82900000Y-64000000D03*
X80900000Y-62000000D03*
X82900000Y-62000000D03*
X80900000Y-60000000D03*
X82900000Y-60000000D03*
X80900000Y-58000000D03*
X82900000Y-58000000D03*
X80900000Y-56000000D03*
X82900000Y-56000000D03*
X80900000Y-54000000D03*
X82900000Y-54000000D03*
X80900000Y-52000000D03*
X82900000Y-52000000D03*
X80900000Y-50000000D03*
X82900000Y-50000000D03*
%TD*%
D29*
%TO.C,J5*%
X70100000Y-66000000D03*
D30*
X72100000Y-66000000D03*
X70100000Y-64000000D03*
X72100000Y-64000000D03*
X70100000Y-62000000D03*
X72100000Y-62000000D03*
X70100000Y-60000000D03*
X72100000Y-60000000D03*
X70100000Y-58000000D03*
X72100000Y-58000000D03*
X70100000Y-56000000D03*
X72100000Y-56000000D03*
X70100000Y-54000000D03*
X72100000Y-54000000D03*
X70100000Y-52000000D03*
X72100000Y-52000000D03*
X70100000Y-50000000D03*
X72100000Y-50000000D03*
%TD*%
D29*
%TO.C,J1*%
X111800000Y-65900000D03*
D30*
X113800000Y-65900000D03*
X111800000Y-63900000D03*
X113800000Y-63900000D03*
X111800000Y-61900000D03*
X113800000Y-61900000D03*
X111800000Y-59900000D03*
X113800000Y-59900000D03*
X111800000Y-57900000D03*
X113800000Y-57900000D03*
X111800000Y-55900000D03*
X113800000Y-55900000D03*
X111800000Y-53900000D03*
X113800000Y-53900000D03*
X111800000Y-51900000D03*
X113800000Y-51900000D03*
X111800000Y-49900000D03*
X113800000Y-49900000D03*
%TD*%
D29*
%TO.C,J9*%
X27500000Y-66000000D03*
D30*
X29500000Y-66000000D03*
X27500000Y-64000000D03*
X29500000Y-64000000D03*
X27500000Y-62000000D03*
X29500000Y-62000000D03*
X27500000Y-60000000D03*
X29500000Y-60000000D03*
X27500000Y-58000000D03*
X29500000Y-58000000D03*
X27500000Y-56000000D03*
X29500000Y-56000000D03*
X27500000Y-54000000D03*
X29500000Y-54000000D03*
X27500000Y-52000000D03*
X29500000Y-52000000D03*
X27500000Y-50000000D03*
X29500000Y-50000000D03*
%TD*%
D29*
%TO.C,J3*%
X91400000Y-66000000D03*
D30*
X93400000Y-66000000D03*
X91400000Y-64000000D03*
X93400000Y-64000000D03*
X91400000Y-62000000D03*
X93400000Y-62000000D03*
X91400000Y-60000000D03*
X93400000Y-60000000D03*
X91400000Y-58000000D03*
X93400000Y-58000000D03*
X91400000Y-56000000D03*
X93400000Y-56000000D03*
X91400000Y-54000000D03*
X93400000Y-54000000D03*
X91400000Y-52000000D03*
X93400000Y-52000000D03*
X91400000Y-50000000D03*
X93400000Y-50000000D03*
%TD*%
D31*
X120900000Y-117900000D03*
X29100000Y-117900000D03*
M02*
