%TF.GenerationSoftware,KiCad,Pcbnew,9.0.4*%
%TF.CreationDate,2025-10-14T22:23:38+02:00*%
%TF.ProjectId,Antminer_hat_PCB,416e746d-696e-4657-925f-6861745f5043,rev?*%
%TF.SameCoordinates,Original*%
%TF.FileFunction,Legend,Bot*%
%TF.FilePolarity,Positive*%
%FSLAX46Y46*%
G04 Gerber Fmt 4.6, Leading zero omitted, Abs format (unit mm)*
G04 Created by KiCad (PCBNEW 9.0.4) date 2025-10-14 22:23:38*
%MOMM*%
%LPD*%
G01*
G04 APERTURE LIST*
G04 Aperture macros list*
%AMRoundRect*
0 Rectangle with rounded corners*
0 $1 Rounding radius*
0 $2 $3 $4 $5 $6 $7 $8 $9 X,Y pos of 4 corners*
0 Add a 4 corners polygon primitive as box body*
4,1,4,$2,$3,$4,$5,$6,$7,$8,$9,$2,$3,0*
0 Add four circle primitives for the rounded corners*
1,1,$1+$1,$2,$3*
1,1,$1+$1,$4,$5*
1,1,$1+$1,$6,$7*
1,1,$1+$1,$8,$9*
0 Add four rect primitives between the rounded corners*
20,1,$1+$1,$2,$3,$4,$5,0*
20,1,$1+$1,$4,$5,$6,$7,0*
20,1,$1+$1,$6,$7,$8,$9,0*
20,1,$1+$1,$8,$9,$2,$3,0*%
G04 Aperture macros list end*
%ADD10C,0.254000*%
%ADD11C,0.150000*%
%ADD12C,0.100000*%
%ADD13C,0.120000*%
%ADD14C,0.152400*%
%ADD15C,0.250000*%
%ADD16C,0.650000*%
%ADD17O,2.100000X1.000000*%
%ADD18O,1.800000X1.000000*%
%ADD19R,1.700000X1.700000*%
%ADD20C,1.700000*%
%ADD21C,1.420000*%
%ADD22C,2.050000*%
%ADD23O,3.300000X1.500000*%
%ADD24O,2.300000X1.500000*%
%ADD25C,3.500000*%
%ADD26R,1.905000X2.000000*%
%ADD27O,1.905000X2.000000*%
%ADD28R,0.900000X0.450000*%
%ADD29RoundRect,0.250000X0.450000X-0.262500X0.450000X0.262500X-0.450000X0.262500X-0.450000X-0.262500X0*%
%ADD30RoundRect,0.250000X0.475000X-0.250000X0.475000X0.250000X-0.475000X0.250000X-0.475000X-0.250000X0*%
%ADD31RoundRect,0.250000X-0.450000X0.262500X-0.450000X-0.262500X0.450000X-0.262500X0.450000X0.262500X0*%
%ADD32RoundRect,0.250000X0.262500X0.450000X-0.262500X0.450000X-0.262500X-0.450000X0.262500X-0.450000X0*%
%ADD33RoundRect,0.250000X-0.650000X0.325000X-0.650000X-0.325000X0.650000X-0.325000X0.650000X0.325000X0*%
%ADD34RoundRect,0.250000X-0.475000X0.250000X-0.475000X-0.250000X0.475000X-0.250000X0.475000X0.250000X0*%
%ADD35R,1.350000X1.350000*%
%ADD36C,1.350000*%
%ADD37RoundRect,0.250000X0.650000X-0.412500X0.650000X0.412500X-0.650000X0.412500X-0.650000X-0.412500X0*%
%ADD38R,0.558800X1.981200*%
%ADD39RoundRect,0.250000X-1.100000X0.412500X-1.100000X-0.412500X1.100000X-0.412500X1.100000X0.412500X0*%
%ADD40RoundRect,0.250000X0.412500X0.650000X-0.412500X0.650000X-0.412500X-0.650000X0.412500X-0.650000X0*%
%ADD41RoundRect,0.250000X0.750000X-0.650000X0.750000X0.650000X-0.750000X0.650000X-0.750000X-0.650000X0*%
%ADD42RoundRect,0.250000X-0.262500X-0.450000X0.262500X-0.450000X0.262500X0.450000X-0.262500X0.450000X0*%
%ADD43RoundRect,0.375000X0.625000X0.375000X-0.625000X0.375000X-0.625000X-0.375000X0.625000X-0.375000X0*%
%ADD44RoundRect,0.500000X0.500000X1.400000X-0.500000X1.400000X-0.500000X-1.400000X0.500000X-1.400000X0*%
%ADD45RoundRect,0.250001X0.462499X0.624999X-0.462499X0.624999X-0.462499X-0.624999X0.462499X-0.624999X0*%
%ADD46R,0.300000X0.900000*%
%ADD47R,0.900000X0.300000*%
%ADD48R,2.600000X2.600000*%
%ADD49RoundRect,0.250000X-0.650000X0.412500X-0.650000X-0.412500X0.650000X-0.412500X0.650000X0.412500X0*%
%ADD50C,7.000000*%
G04 APERTURE END LIST*
D10*
X27324318Y-79373095D02*
X26719556Y-78949761D01*
X27324318Y-78647380D02*
X26054318Y-78647380D01*
X26054318Y-78647380D02*
X26054318Y-79131190D01*
X26054318Y-79131190D02*
X26114794Y-79252142D01*
X26114794Y-79252142D02*
X26175270Y-79312619D01*
X26175270Y-79312619D02*
X26296222Y-79373095D01*
X26296222Y-79373095D02*
X26477651Y-79373095D01*
X26477651Y-79373095D02*
X26598603Y-79312619D01*
X26598603Y-79312619D02*
X26659080Y-79252142D01*
X26659080Y-79252142D02*
X26719556Y-79131190D01*
X26719556Y-79131190D02*
X26719556Y-78647380D01*
X27324318Y-79917380D02*
X26054318Y-79917380D01*
X26054318Y-79917380D02*
X27324318Y-80643095D01*
X27324318Y-80643095D02*
X26054318Y-80643095D01*
X26175270Y-81187380D02*
X26114794Y-81247856D01*
X26114794Y-81247856D02*
X26054318Y-81368809D01*
X26054318Y-81368809D02*
X26054318Y-81671190D01*
X26054318Y-81671190D02*
X26114794Y-81792142D01*
X26114794Y-81792142D02*
X26175270Y-81852618D01*
X26175270Y-81852618D02*
X26296222Y-81913095D01*
X26296222Y-81913095D02*
X26417175Y-81913095D01*
X26417175Y-81913095D02*
X26598603Y-81852618D01*
X26598603Y-81852618D02*
X27324318Y-81126904D01*
X27324318Y-81126904D02*
X27324318Y-81913095D01*
D11*
X64054819Y-98833333D02*
X63578628Y-98500000D01*
X64054819Y-98261905D02*
X63054819Y-98261905D01*
X63054819Y-98261905D02*
X63054819Y-98642857D01*
X63054819Y-98642857D02*
X63102438Y-98738095D01*
X63102438Y-98738095D02*
X63150057Y-98785714D01*
X63150057Y-98785714D02*
X63245295Y-98833333D01*
X63245295Y-98833333D02*
X63388152Y-98833333D01*
X63388152Y-98833333D02*
X63483390Y-98785714D01*
X63483390Y-98785714D02*
X63531009Y-98738095D01*
X63531009Y-98738095D02*
X63578628Y-98642857D01*
X63578628Y-98642857D02*
X63578628Y-98261905D01*
X63150057Y-99214286D02*
X63102438Y-99261905D01*
X63102438Y-99261905D02*
X63054819Y-99357143D01*
X63054819Y-99357143D02*
X63054819Y-99595238D01*
X63054819Y-99595238D02*
X63102438Y-99690476D01*
X63102438Y-99690476D02*
X63150057Y-99738095D01*
X63150057Y-99738095D02*
X63245295Y-99785714D01*
X63245295Y-99785714D02*
X63340533Y-99785714D01*
X63340533Y-99785714D02*
X63483390Y-99738095D01*
X63483390Y-99738095D02*
X64054819Y-99166667D01*
X64054819Y-99166667D02*
X64054819Y-99785714D01*
X97839580Y-87107142D02*
X97887200Y-87059523D01*
X97887200Y-87059523D02*
X97934819Y-86916666D01*
X97934819Y-86916666D02*
X97934819Y-86821428D01*
X97934819Y-86821428D02*
X97887200Y-86678571D01*
X97887200Y-86678571D02*
X97791961Y-86583333D01*
X97791961Y-86583333D02*
X97696723Y-86535714D01*
X97696723Y-86535714D02*
X97506247Y-86488095D01*
X97506247Y-86488095D02*
X97363390Y-86488095D01*
X97363390Y-86488095D02*
X97172914Y-86535714D01*
X97172914Y-86535714D02*
X97077676Y-86583333D01*
X97077676Y-86583333D02*
X96982438Y-86678571D01*
X96982438Y-86678571D02*
X96934819Y-86821428D01*
X96934819Y-86821428D02*
X96934819Y-86916666D01*
X96934819Y-86916666D02*
X96982438Y-87059523D01*
X96982438Y-87059523D02*
X97030057Y-87107142D01*
X97030057Y-87488095D02*
X96982438Y-87535714D01*
X96982438Y-87535714D02*
X96934819Y-87630952D01*
X96934819Y-87630952D02*
X96934819Y-87869047D01*
X96934819Y-87869047D02*
X96982438Y-87964285D01*
X96982438Y-87964285D02*
X97030057Y-88011904D01*
X97030057Y-88011904D02*
X97125295Y-88059523D01*
X97125295Y-88059523D02*
X97220533Y-88059523D01*
X97220533Y-88059523D02*
X97363390Y-88011904D01*
X97363390Y-88011904D02*
X97934819Y-87440476D01*
X97934819Y-87440476D02*
X97934819Y-88059523D01*
X96934819Y-88392857D02*
X96934819Y-89011904D01*
X96934819Y-89011904D02*
X97315771Y-88678571D01*
X97315771Y-88678571D02*
X97315771Y-88821428D01*
X97315771Y-88821428D02*
X97363390Y-88916666D01*
X97363390Y-88916666D02*
X97411009Y-88964285D01*
X97411009Y-88964285D02*
X97506247Y-89011904D01*
X97506247Y-89011904D02*
X97744342Y-89011904D01*
X97744342Y-89011904D02*
X97839580Y-88964285D01*
X97839580Y-88964285D02*
X97887200Y-88916666D01*
X97887200Y-88916666D02*
X97934819Y-88821428D01*
X97934819Y-88821428D02*
X97934819Y-88535714D01*
X97934819Y-88535714D02*
X97887200Y-88440476D01*
X97887200Y-88440476D02*
X97839580Y-88392857D01*
X44604819Y-103169642D02*
X44128628Y-102836309D01*
X44604819Y-102598214D02*
X43604819Y-102598214D01*
X43604819Y-102598214D02*
X43604819Y-102979166D01*
X43604819Y-102979166D02*
X43652438Y-103074404D01*
X43652438Y-103074404D02*
X43700057Y-103122023D01*
X43700057Y-103122023D02*
X43795295Y-103169642D01*
X43795295Y-103169642D02*
X43938152Y-103169642D01*
X43938152Y-103169642D02*
X44033390Y-103122023D01*
X44033390Y-103122023D02*
X44081009Y-103074404D01*
X44081009Y-103074404D02*
X44128628Y-102979166D01*
X44128628Y-102979166D02*
X44128628Y-102598214D01*
X43700057Y-103550595D02*
X43652438Y-103598214D01*
X43652438Y-103598214D02*
X43604819Y-103693452D01*
X43604819Y-103693452D02*
X43604819Y-103931547D01*
X43604819Y-103931547D02*
X43652438Y-104026785D01*
X43652438Y-104026785D02*
X43700057Y-104074404D01*
X43700057Y-104074404D02*
X43795295Y-104122023D01*
X43795295Y-104122023D02*
X43890533Y-104122023D01*
X43890533Y-104122023D02*
X44033390Y-104074404D01*
X44033390Y-104074404D02*
X44604819Y-103502976D01*
X44604819Y-103502976D02*
X44604819Y-104122023D01*
X43604819Y-104741071D02*
X43604819Y-104836309D01*
X43604819Y-104836309D02*
X43652438Y-104931547D01*
X43652438Y-104931547D02*
X43700057Y-104979166D01*
X43700057Y-104979166D02*
X43795295Y-105026785D01*
X43795295Y-105026785D02*
X43985771Y-105074404D01*
X43985771Y-105074404D02*
X44223866Y-105074404D01*
X44223866Y-105074404D02*
X44414342Y-105026785D01*
X44414342Y-105026785D02*
X44509580Y-104979166D01*
X44509580Y-104979166D02*
X44557200Y-104931547D01*
X44557200Y-104931547D02*
X44604819Y-104836309D01*
X44604819Y-104836309D02*
X44604819Y-104741071D01*
X44604819Y-104741071D02*
X44557200Y-104645833D01*
X44557200Y-104645833D02*
X44509580Y-104598214D01*
X44509580Y-104598214D02*
X44414342Y-104550595D01*
X44414342Y-104550595D02*
X44223866Y-104502976D01*
X44223866Y-104502976D02*
X43985771Y-104502976D01*
X43985771Y-104502976D02*
X43795295Y-104550595D01*
X43795295Y-104550595D02*
X43700057Y-104598214D01*
X43700057Y-104598214D02*
X43652438Y-104645833D01*
X43652438Y-104645833D02*
X43604819Y-104741071D01*
X64942857Y-82654819D02*
X65276190Y-82178628D01*
X65514285Y-82654819D02*
X65514285Y-81654819D01*
X65514285Y-81654819D02*
X65133333Y-81654819D01*
X65133333Y-81654819D02*
X65038095Y-81702438D01*
X65038095Y-81702438D02*
X64990476Y-81750057D01*
X64990476Y-81750057D02*
X64942857Y-81845295D01*
X64942857Y-81845295D02*
X64942857Y-81988152D01*
X64942857Y-81988152D02*
X64990476Y-82083390D01*
X64990476Y-82083390D02*
X65038095Y-82131009D01*
X65038095Y-82131009D02*
X65133333Y-82178628D01*
X65133333Y-82178628D02*
X65514285Y-82178628D01*
X63990476Y-82654819D02*
X64561904Y-82654819D01*
X64276190Y-82654819D02*
X64276190Y-81654819D01*
X64276190Y-81654819D02*
X64371428Y-81797676D01*
X64371428Y-81797676D02*
X64466666Y-81892914D01*
X64466666Y-81892914D02*
X64561904Y-81940533D01*
X63085714Y-81654819D02*
X63561904Y-81654819D01*
X63561904Y-81654819D02*
X63609523Y-82131009D01*
X63609523Y-82131009D02*
X63561904Y-82083390D01*
X63561904Y-82083390D02*
X63466666Y-82035771D01*
X63466666Y-82035771D02*
X63228571Y-82035771D01*
X63228571Y-82035771D02*
X63133333Y-82083390D01*
X63133333Y-82083390D02*
X63085714Y-82131009D01*
X63085714Y-82131009D02*
X63038095Y-82226247D01*
X63038095Y-82226247D02*
X63038095Y-82464342D01*
X63038095Y-82464342D02*
X63085714Y-82559580D01*
X63085714Y-82559580D02*
X63133333Y-82607200D01*
X63133333Y-82607200D02*
X63228571Y-82654819D01*
X63228571Y-82654819D02*
X63466666Y-82654819D01*
X63466666Y-82654819D02*
X63561904Y-82607200D01*
X63561904Y-82607200D02*
X63609523Y-82559580D01*
X75354819Y-92620833D02*
X74878628Y-92287500D01*
X75354819Y-92049405D02*
X74354819Y-92049405D01*
X74354819Y-92049405D02*
X74354819Y-92430357D01*
X74354819Y-92430357D02*
X74402438Y-92525595D01*
X74402438Y-92525595D02*
X74450057Y-92573214D01*
X74450057Y-92573214D02*
X74545295Y-92620833D01*
X74545295Y-92620833D02*
X74688152Y-92620833D01*
X74688152Y-92620833D02*
X74783390Y-92573214D01*
X74783390Y-92573214D02*
X74831009Y-92525595D01*
X74831009Y-92525595D02*
X74878628Y-92430357D01*
X74878628Y-92430357D02*
X74878628Y-92049405D01*
X74354819Y-93525595D02*
X74354819Y-93049405D01*
X74354819Y-93049405D02*
X74831009Y-93001786D01*
X74831009Y-93001786D02*
X74783390Y-93049405D01*
X74783390Y-93049405D02*
X74735771Y-93144643D01*
X74735771Y-93144643D02*
X74735771Y-93382738D01*
X74735771Y-93382738D02*
X74783390Y-93477976D01*
X74783390Y-93477976D02*
X74831009Y-93525595D01*
X74831009Y-93525595D02*
X74926247Y-93573214D01*
X74926247Y-93573214D02*
X75164342Y-93573214D01*
X75164342Y-93573214D02*
X75259580Y-93525595D01*
X75259580Y-93525595D02*
X75307200Y-93477976D01*
X75307200Y-93477976D02*
X75354819Y-93382738D01*
X75354819Y-93382738D02*
X75354819Y-93144643D01*
X75354819Y-93144643D02*
X75307200Y-93049405D01*
X75307200Y-93049405D02*
X75259580Y-93001786D01*
D10*
X39574318Y-84523095D02*
X38969556Y-84099761D01*
X39574318Y-83797380D02*
X38304318Y-83797380D01*
X38304318Y-83797380D02*
X38304318Y-84281190D01*
X38304318Y-84281190D02*
X38364794Y-84402142D01*
X38364794Y-84402142D02*
X38425270Y-84462619D01*
X38425270Y-84462619D02*
X38546222Y-84523095D01*
X38546222Y-84523095D02*
X38727651Y-84523095D01*
X38727651Y-84523095D02*
X38848603Y-84462619D01*
X38848603Y-84462619D02*
X38909080Y-84402142D01*
X38909080Y-84402142D02*
X38969556Y-84281190D01*
X38969556Y-84281190D02*
X38969556Y-83797380D01*
X39574318Y-85067380D02*
X38304318Y-85067380D01*
X38304318Y-85067380D02*
X39574318Y-85793095D01*
X39574318Y-85793095D02*
X38304318Y-85793095D01*
X39574318Y-87063095D02*
X39574318Y-86337380D01*
X39574318Y-86700237D02*
X38304318Y-86700237D01*
X38304318Y-86700237D02*
X38485746Y-86579285D01*
X38485746Y-86579285D02*
X38606699Y-86458333D01*
X38606699Y-86458333D02*
X38667175Y-86337380D01*
D11*
X46309580Y-77833333D02*
X46357200Y-77785714D01*
X46357200Y-77785714D02*
X46404819Y-77642857D01*
X46404819Y-77642857D02*
X46404819Y-77547619D01*
X46404819Y-77547619D02*
X46357200Y-77404762D01*
X46357200Y-77404762D02*
X46261961Y-77309524D01*
X46261961Y-77309524D02*
X46166723Y-77261905D01*
X46166723Y-77261905D02*
X45976247Y-77214286D01*
X45976247Y-77214286D02*
X45833390Y-77214286D01*
X45833390Y-77214286D02*
X45642914Y-77261905D01*
X45642914Y-77261905D02*
X45547676Y-77309524D01*
X45547676Y-77309524D02*
X45452438Y-77404762D01*
X45452438Y-77404762D02*
X45404819Y-77547619D01*
X45404819Y-77547619D02*
X45404819Y-77642857D01*
X45404819Y-77642857D02*
X45452438Y-77785714D01*
X45452438Y-77785714D02*
X45500057Y-77833333D01*
X45738152Y-78690476D02*
X46404819Y-78690476D01*
X45357200Y-78452381D02*
X46071485Y-78214286D01*
X46071485Y-78214286D02*
X46071485Y-78833333D01*
X64966666Y-86654819D02*
X65299999Y-86178628D01*
X65538094Y-86654819D02*
X65538094Y-85654819D01*
X65538094Y-85654819D02*
X65157142Y-85654819D01*
X65157142Y-85654819D02*
X65061904Y-85702438D01*
X65061904Y-85702438D02*
X65014285Y-85750057D01*
X65014285Y-85750057D02*
X64966666Y-85845295D01*
X64966666Y-85845295D02*
X64966666Y-85988152D01*
X64966666Y-85988152D02*
X65014285Y-86083390D01*
X65014285Y-86083390D02*
X65061904Y-86131009D01*
X65061904Y-86131009D02*
X65157142Y-86178628D01*
X65157142Y-86178628D02*
X65538094Y-86178628D01*
X64109523Y-85654819D02*
X64299999Y-85654819D01*
X64299999Y-85654819D02*
X64395237Y-85702438D01*
X64395237Y-85702438D02*
X64442856Y-85750057D01*
X64442856Y-85750057D02*
X64538094Y-85892914D01*
X64538094Y-85892914D02*
X64585713Y-86083390D01*
X64585713Y-86083390D02*
X64585713Y-86464342D01*
X64585713Y-86464342D02*
X64538094Y-86559580D01*
X64538094Y-86559580D02*
X64490475Y-86607200D01*
X64490475Y-86607200D02*
X64395237Y-86654819D01*
X64395237Y-86654819D02*
X64204761Y-86654819D01*
X64204761Y-86654819D02*
X64109523Y-86607200D01*
X64109523Y-86607200D02*
X64061904Y-86559580D01*
X64061904Y-86559580D02*
X64014285Y-86464342D01*
X64014285Y-86464342D02*
X64014285Y-86226247D01*
X64014285Y-86226247D02*
X64061904Y-86131009D01*
X64061904Y-86131009D02*
X64109523Y-86083390D01*
X64109523Y-86083390D02*
X64204761Y-86035771D01*
X64204761Y-86035771D02*
X64395237Y-86035771D01*
X64395237Y-86035771D02*
X64490475Y-86083390D01*
X64490475Y-86083390D02*
X64538094Y-86131009D01*
X64538094Y-86131009D02*
X64585713Y-86226247D01*
X76454819Y-80757142D02*
X75978628Y-80423809D01*
X76454819Y-80185714D02*
X75454819Y-80185714D01*
X75454819Y-80185714D02*
X75454819Y-80566666D01*
X75454819Y-80566666D02*
X75502438Y-80661904D01*
X75502438Y-80661904D02*
X75550057Y-80709523D01*
X75550057Y-80709523D02*
X75645295Y-80757142D01*
X75645295Y-80757142D02*
X75788152Y-80757142D01*
X75788152Y-80757142D02*
X75883390Y-80709523D01*
X75883390Y-80709523D02*
X75931009Y-80661904D01*
X75931009Y-80661904D02*
X75978628Y-80566666D01*
X75978628Y-80566666D02*
X75978628Y-80185714D01*
X76454819Y-81709523D02*
X76454819Y-81138095D01*
X76454819Y-81423809D02*
X75454819Y-81423809D01*
X75454819Y-81423809D02*
X75597676Y-81328571D01*
X75597676Y-81328571D02*
X75692914Y-81233333D01*
X75692914Y-81233333D02*
X75740533Y-81138095D01*
X75883390Y-82280952D02*
X75835771Y-82185714D01*
X75835771Y-82185714D02*
X75788152Y-82138095D01*
X75788152Y-82138095D02*
X75692914Y-82090476D01*
X75692914Y-82090476D02*
X75645295Y-82090476D01*
X75645295Y-82090476D02*
X75550057Y-82138095D01*
X75550057Y-82138095D02*
X75502438Y-82185714D01*
X75502438Y-82185714D02*
X75454819Y-82280952D01*
X75454819Y-82280952D02*
X75454819Y-82471428D01*
X75454819Y-82471428D02*
X75502438Y-82566666D01*
X75502438Y-82566666D02*
X75550057Y-82614285D01*
X75550057Y-82614285D02*
X75645295Y-82661904D01*
X75645295Y-82661904D02*
X75692914Y-82661904D01*
X75692914Y-82661904D02*
X75788152Y-82614285D01*
X75788152Y-82614285D02*
X75835771Y-82566666D01*
X75835771Y-82566666D02*
X75883390Y-82471428D01*
X75883390Y-82471428D02*
X75883390Y-82280952D01*
X75883390Y-82280952D02*
X75931009Y-82185714D01*
X75931009Y-82185714D02*
X75978628Y-82138095D01*
X75978628Y-82138095D02*
X76073866Y-82090476D01*
X76073866Y-82090476D02*
X76264342Y-82090476D01*
X76264342Y-82090476D02*
X76359580Y-82138095D01*
X76359580Y-82138095D02*
X76407200Y-82185714D01*
X76407200Y-82185714D02*
X76454819Y-82280952D01*
X76454819Y-82280952D02*
X76454819Y-82471428D01*
X76454819Y-82471428D02*
X76407200Y-82566666D01*
X76407200Y-82566666D02*
X76359580Y-82614285D01*
X76359580Y-82614285D02*
X76264342Y-82661904D01*
X76264342Y-82661904D02*
X76073866Y-82661904D01*
X76073866Y-82661904D02*
X75978628Y-82614285D01*
X75978628Y-82614285D02*
X75931009Y-82566666D01*
X75931009Y-82566666D02*
X75883390Y-82471428D01*
X36079580Y-100983333D02*
X36127200Y-100935714D01*
X36127200Y-100935714D02*
X36174819Y-100792857D01*
X36174819Y-100792857D02*
X36174819Y-100697619D01*
X36174819Y-100697619D02*
X36127200Y-100554762D01*
X36127200Y-100554762D02*
X36031961Y-100459524D01*
X36031961Y-100459524D02*
X35936723Y-100411905D01*
X35936723Y-100411905D02*
X35746247Y-100364286D01*
X35746247Y-100364286D02*
X35603390Y-100364286D01*
X35603390Y-100364286D02*
X35412914Y-100411905D01*
X35412914Y-100411905D02*
X35317676Y-100459524D01*
X35317676Y-100459524D02*
X35222438Y-100554762D01*
X35222438Y-100554762D02*
X35174819Y-100697619D01*
X35174819Y-100697619D02*
X35174819Y-100792857D01*
X35174819Y-100792857D02*
X35222438Y-100935714D01*
X35222438Y-100935714D02*
X35270057Y-100983333D01*
X35174819Y-101840476D02*
X35174819Y-101650000D01*
X35174819Y-101650000D02*
X35222438Y-101554762D01*
X35222438Y-101554762D02*
X35270057Y-101507143D01*
X35270057Y-101507143D02*
X35412914Y-101411905D01*
X35412914Y-101411905D02*
X35603390Y-101364286D01*
X35603390Y-101364286D02*
X35984342Y-101364286D01*
X35984342Y-101364286D02*
X36079580Y-101411905D01*
X36079580Y-101411905D02*
X36127200Y-101459524D01*
X36127200Y-101459524D02*
X36174819Y-101554762D01*
X36174819Y-101554762D02*
X36174819Y-101745238D01*
X36174819Y-101745238D02*
X36127200Y-101840476D01*
X36127200Y-101840476D02*
X36079580Y-101888095D01*
X36079580Y-101888095D02*
X35984342Y-101935714D01*
X35984342Y-101935714D02*
X35746247Y-101935714D01*
X35746247Y-101935714D02*
X35651009Y-101888095D01*
X35651009Y-101888095D02*
X35603390Y-101840476D01*
X35603390Y-101840476D02*
X35555771Y-101745238D01*
X35555771Y-101745238D02*
X35555771Y-101554762D01*
X35555771Y-101554762D02*
X35603390Y-101459524D01*
X35603390Y-101459524D02*
X35651009Y-101411905D01*
X35651009Y-101411905D02*
X35746247Y-101364286D01*
X64942857Y-84754819D02*
X65276190Y-84278628D01*
X65514285Y-84754819D02*
X65514285Y-83754819D01*
X65514285Y-83754819D02*
X65133333Y-83754819D01*
X65133333Y-83754819D02*
X65038095Y-83802438D01*
X65038095Y-83802438D02*
X64990476Y-83850057D01*
X64990476Y-83850057D02*
X64942857Y-83945295D01*
X64942857Y-83945295D02*
X64942857Y-84088152D01*
X64942857Y-84088152D02*
X64990476Y-84183390D01*
X64990476Y-84183390D02*
X65038095Y-84231009D01*
X65038095Y-84231009D02*
X65133333Y-84278628D01*
X65133333Y-84278628D02*
X65514285Y-84278628D01*
X63990476Y-84754819D02*
X64561904Y-84754819D01*
X64276190Y-84754819D02*
X64276190Y-83754819D01*
X64276190Y-83754819D02*
X64371428Y-83897676D01*
X64371428Y-83897676D02*
X64466666Y-83992914D01*
X64466666Y-83992914D02*
X64561904Y-84040533D01*
X63133333Y-84088152D02*
X63133333Y-84754819D01*
X63371428Y-83707200D02*
X63609523Y-84421485D01*
X63609523Y-84421485D02*
X62990476Y-84421485D01*
X115849819Y-85285476D02*
X116564104Y-85285476D01*
X116564104Y-85285476D02*
X116706961Y-85237857D01*
X116706961Y-85237857D02*
X116802200Y-85142619D01*
X116802200Y-85142619D02*
X116849819Y-84999762D01*
X116849819Y-84999762D02*
X116849819Y-84904524D01*
X116849819Y-86285476D02*
X116849819Y-85714048D01*
X116849819Y-85999762D02*
X115849819Y-85999762D01*
X115849819Y-85999762D02*
X115992676Y-85904524D01*
X115992676Y-85904524D02*
X116087914Y-85809286D01*
X116087914Y-85809286D02*
X116135533Y-85714048D01*
X115945057Y-86666429D02*
X115897438Y-86714048D01*
X115897438Y-86714048D02*
X115849819Y-86809286D01*
X115849819Y-86809286D02*
X115849819Y-87047381D01*
X115849819Y-87047381D02*
X115897438Y-87142619D01*
X115897438Y-87142619D02*
X115945057Y-87190238D01*
X115945057Y-87190238D02*
X116040295Y-87237857D01*
X116040295Y-87237857D02*
X116135533Y-87237857D01*
X116135533Y-87237857D02*
X116278390Y-87190238D01*
X116278390Y-87190238D02*
X116849819Y-86618810D01*
X116849819Y-86618810D02*
X116849819Y-87237857D01*
X82259580Y-87257142D02*
X82307200Y-87209523D01*
X82307200Y-87209523D02*
X82354819Y-87066666D01*
X82354819Y-87066666D02*
X82354819Y-86971428D01*
X82354819Y-86971428D02*
X82307200Y-86828571D01*
X82307200Y-86828571D02*
X82211961Y-86733333D01*
X82211961Y-86733333D02*
X82116723Y-86685714D01*
X82116723Y-86685714D02*
X81926247Y-86638095D01*
X81926247Y-86638095D02*
X81783390Y-86638095D01*
X81783390Y-86638095D02*
X81592914Y-86685714D01*
X81592914Y-86685714D02*
X81497676Y-86733333D01*
X81497676Y-86733333D02*
X81402438Y-86828571D01*
X81402438Y-86828571D02*
X81354819Y-86971428D01*
X81354819Y-86971428D02*
X81354819Y-87066666D01*
X81354819Y-87066666D02*
X81402438Y-87209523D01*
X81402438Y-87209523D02*
X81450057Y-87257142D01*
X81450057Y-87638095D02*
X81402438Y-87685714D01*
X81402438Y-87685714D02*
X81354819Y-87780952D01*
X81354819Y-87780952D02*
X81354819Y-88019047D01*
X81354819Y-88019047D02*
X81402438Y-88114285D01*
X81402438Y-88114285D02*
X81450057Y-88161904D01*
X81450057Y-88161904D02*
X81545295Y-88209523D01*
X81545295Y-88209523D02*
X81640533Y-88209523D01*
X81640533Y-88209523D02*
X81783390Y-88161904D01*
X81783390Y-88161904D02*
X82354819Y-87590476D01*
X82354819Y-87590476D02*
X82354819Y-88209523D01*
X81688152Y-89066666D02*
X82354819Y-89066666D01*
X81307200Y-88828571D02*
X82021485Y-88590476D01*
X82021485Y-88590476D02*
X82021485Y-89209523D01*
X67554819Y-96957142D02*
X67078628Y-96623809D01*
X67554819Y-96385714D02*
X66554819Y-96385714D01*
X66554819Y-96385714D02*
X66554819Y-96766666D01*
X66554819Y-96766666D02*
X66602438Y-96861904D01*
X66602438Y-96861904D02*
X66650057Y-96909523D01*
X66650057Y-96909523D02*
X66745295Y-96957142D01*
X66745295Y-96957142D02*
X66888152Y-96957142D01*
X66888152Y-96957142D02*
X66983390Y-96909523D01*
X66983390Y-96909523D02*
X67031009Y-96861904D01*
X67031009Y-96861904D02*
X67078628Y-96766666D01*
X67078628Y-96766666D02*
X67078628Y-96385714D01*
X67554819Y-97909523D02*
X67554819Y-97338095D01*
X67554819Y-97623809D02*
X66554819Y-97623809D01*
X66554819Y-97623809D02*
X66697676Y-97528571D01*
X66697676Y-97528571D02*
X66792914Y-97433333D01*
X66792914Y-97433333D02*
X66840533Y-97338095D01*
X67554819Y-98861904D02*
X67554819Y-98290476D01*
X67554819Y-98576190D02*
X66554819Y-98576190D01*
X66554819Y-98576190D02*
X66697676Y-98480952D01*
X66697676Y-98480952D02*
X66792914Y-98385714D01*
X66792914Y-98385714D02*
X66840533Y-98290476D01*
D10*
X57074318Y-98960237D02*
X55804318Y-98960237D01*
X56953365Y-100290714D02*
X57013842Y-100230238D01*
X57013842Y-100230238D02*
X57074318Y-100048809D01*
X57074318Y-100048809D02*
X57074318Y-99927857D01*
X57074318Y-99927857D02*
X57013842Y-99746428D01*
X57013842Y-99746428D02*
X56892889Y-99625476D01*
X56892889Y-99625476D02*
X56771937Y-99564999D01*
X56771937Y-99564999D02*
X56530032Y-99504523D01*
X56530032Y-99504523D02*
X56348603Y-99504523D01*
X56348603Y-99504523D02*
X56106699Y-99564999D01*
X56106699Y-99564999D02*
X55985746Y-99625476D01*
X55985746Y-99625476D02*
X55864794Y-99746428D01*
X55864794Y-99746428D02*
X55804318Y-99927857D01*
X55804318Y-99927857D02*
X55804318Y-100048809D01*
X55804318Y-100048809D02*
X55864794Y-100230238D01*
X55864794Y-100230238D02*
X55925270Y-100290714D01*
X55925270Y-100774523D02*
X55864794Y-100834999D01*
X55864794Y-100834999D02*
X55804318Y-100955952D01*
X55804318Y-100955952D02*
X55804318Y-101258333D01*
X55804318Y-101258333D02*
X55864794Y-101379285D01*
X55864794Y-101379285D02*
X55925270Y-101439761D01*
X55925270Y-101439761D02*
X56046222Y-101500238D01*
X56046222Y-101500238D02*
X56167175Y-101500238D01*
X56167175Y-101500238D02*
X56348603Y-101439761D01*
X56348603Y-101439761D02*
X57074318Y-100714047D01*
X57074318Y-100714047D02*
X57074318Y-101500238D01*
D11*
X70654819Y-97057142D02*
X70178628Y-96723809D01*
X70654819Y-96485714D02*
X69654819Y-96485714D01*
X69654819Y-96485714D02*
X69654819Y-96866666D01*
X69654819Y-96866666D02*
X69702438Y-96961904D01*
X69702438Y-96961904D02*
X69750057Y-97009523D01*
X69750057Y-97009523D02*
X69845295Y-97057142D01*
X69845295Y-97057142D02*
X69988152Y-97057142D01*
X69988152Y-97057142D02*
X70083390Y-97009523D01*
X70083390Y-97009523D02*
X70131009Y-96961904D01*
X70131009Y-96961904D02*
X70178628Y-96866666D01*
X70178628Y-96866666D02*
X70178628Y-96485714D01*
X70654819Y-98009523D02*
X70654819Y-97438095D01*
X70654819Y-97723809D02*
X69654819Y-97723809D01*
X69654819Y-97723809D02*
X69797676Y-97628571D01*
X69797676Y-97628571D02*
X69892914Y-97533333D01*
X69892914Y-97533333D02*
X69940533Y-97438095D01*
X69654819Y-98342857D02*
X69654819Y-98961904D01*
X69654819Y-98961904D02*
X70035771Y-98628571D01*
X70035771Y-98628571D02*
X70035771Y-98771428D01*
X70035771Y-98771428D02*
X70083390Y-98866666D01*
X70083390Y-98866666D02*
X70131009Y-98914285D01*
X70131009Y-98914285D02*
X70226247Y-98961904D01*
X70226247Y-98961904D02*
X70464342Y-98961904D01*
X70464342Y-98961904D02*
X70559580Y-98914285D01*
X70559580Y-98914285D02*
X70607200Y-98866666D01*
X70607200Y-98866666D02*
X70654819Y-98771428D01*
X70654819Y-98771428D02*
X70654819Y-98485714D01*
X70654819Y-98485714D02*
X70607200Y-98390476D01*
X70607200Y-98390476D02*
X70559580Y-98342857D01*
X38059580Y-101495833D02*
X38107200Y-101448214D01*
X38107200Y-101448214D02*
X38154819Y-101305357D01*
X38154819Y-101305357D02*
X38154819Y-101210119D01*
X38154819Y-101210119D02*
X38107200Y-101067262D01*
X38107200Y-101067262D02*
X38011961Y-100972024D01*
X38011961Y-100972024D02*
X37916723Y-100924405D01*
X37916723Y-100924405D02*
X37726247Y-100876786D01*
X37726247Y-100876786D02*
X37583390Y-100876786D01*
X37583390Y-100876786D02*
X37392914Y-100924405D01*
X37392914Y-100924405D02*
X37297676Y-100972024D01*
X37297676Y-100972024D02*
X37202438Y-101067262D01*
X37202438Y-101067262D02*
X37154819Y-101210119D01*
X37154819Y-101210119D02*
X37154819Y-101305357D01*
X37154819Y-101305357D02*
X37202438Y-101448214D01*
X37202438Y-101448214D02*
X37250057Y-101495833D01*
X37154819Y-101829167D02*
X37154819Y-102495833D01*
X37154819Y-102495833D02*
X38154819Y-102067262D01*
X30629166Y-104309580D02*
X30676785Y-104357200D01*
X30676785Y-104357200D02*
X30819642Y-104404819D01*
X30819642Y-104404819D02*
X30914880Y-104404819D01*
X30914880Y-104404819D02*
X31057737Y-104357200D01*
X31057737Y-104357200D02*
X31152975Y-104261961D01*
X31152975Y-104261961D02*
X31200594Y-104166723D01*
X31200594Y-104166723D02*
X31248213Y-103976247D01*
X31248213Y-103976247D02*
X31248213Y-103833390D01*
X31248213Y-103833390D02*
X31200594Y-103642914D01*
X31200594Y-103642914D02*
X31152975Y-103547676D01*
X31152975Y-103547676D02*
X31057737Y-103452438D01*
X31057737Y-103452438D02*
X30914880Y-103404819D01*
X30914880Y-103404819D02*
X30819642Y-103404819D01*
X30819642Y-103404819D02*
X30676785Y-103452438D01*
X30676785Y-103452438D02*
X30629166Y-103500057D01*
X30057737Y-103833390D02*
X30152975Y-103785771D01*
X30152975Y-103785771D02*
X30200594Y-103738152D01*
X30200594Y-103738152D02*
X30248213Y-103642914D01*
X30248213Y-103642914D02*
X30248213Y-103595295D01*
X30248213Y-103595295D02*
X30200594Y-103500057D01*
X30200594Y-103500057D02*
X30152975Y-103452438D01*
X30152975Y-103452438D02*
X30057737Y-103404819D01*
X30057737Y-103404819D02*
X29867261Y-103404819D01*
X29867261Y-103404819D02*
X29772023Y-103452438D01*
X29772023Y-103452438D02*
X29724404Y-103500057D01*
X29724404Y-103500057D02*
X29676785Y-103595295D01*
X29676785Y-103595295D02*
X29676785Y-103642914D01*
X29676785Y-103642914D02*
X29724404Y-103738152D01*
X29724404Y-103738152D02*
X29772023Y-103785771D01*
X29772023Y-103785771D02*
X29867261Y-103833390D01*
X29867261Y-103833390D02*
X30057737Y-103833390D01*
X30057737Y-103833390D02*
X30152975Y-103881009D01*
X30152975Y-103881009D02*
X30200594Y-103928628D01*
X30200594Y-103928628D02*
X30248213Y-104023866D01*
X30248213Y-104023866D02*
X30248213Y-104214342D01*
X30248213Y-104214342D02*
X30200594Y-104309580D01*
X30200594Y-104309580D02*
X30152975Y-104357200D01*
X30152975Y-104357200D02*
X30057737Y-104404819D01*
X30057737Y-104404819D02*
X29867261Y-104404819D01*
X29867261Y-104404819D02*
X29772023Y-104357200D01*
X29772023Y-104357200D02*
X29724404Y-104309580D01*
X29724404Y-104309580D02*
X29676785Y-104214342D01*
X29676785Y-104214342D02*
X29676785Y-104023866D01*
X29676785Y-104023866D02*
X29724404Y-103928628D01*
X29724404Y-103928628D02*
X29772023Y-103881009D01*
X29772023Y-103881009D02*
X29867261Y-103833390D01*
X78878628Y-89223809D02*
X79354819Y-89223809D01*
X78354819Y-88890476D02*
X78878628Y-89223809D01*
X78878628Y-89223809D02*
X78354819Y-89557142D01*
X79354819Y-90414285D02*
X79354819Y-89842857D01*
X79354819Y-90128571D02*
X78354819Y-90128571D01*
X78354819Y-90128571D02*
X78497676Y-90033333D01*
X78497676Y-90033333D02*
X78592914Y-89938095D01*
X78592914Y-89938095D02*
X78640533Y-89842857D01*
X64942857Y-88554819D02*
X65276190Y-88078628D01*
X65514285Y-88554819D02*
X65514285Y-87554819D01*
X65514285Y-87554819D02*
X65133333Y-87554819D01*
X65133333Y-87554819D02*
X65038095Y-87602438D01*
X65038095Y-87602438D02*
X64990476Y-87650057D01*
X64990476Y-87650057D02*
X64942857Y-87745295D01*
X64942857Y-87745295D02*
X64942857Y-87888152D01*
X64942857Y-87888152D02*
X64990476Y-87983390D01*
X64990476Y-87983390D02*
X65038095Y-88031009D01*
X65038095Y-88031009D02*
X65133333Y-88078628D01*
X65133333Y-88078628D02*
X65514285Y-88078628D01*
X63990476Y-88554819D02*
X64561904Y-88554819D01*
X64276190Y-88554819D02*
X64276190Y-87554819D01*
X64276190Y-87554819D02*
X64371428Y-87697676D01*
X64371428Y-87697676D02*
X64466666Y-87792914D01*
X64466666Y-87792914D02*
X64561904Y-87840533D01*
X63371428Y-87554819D02*
X63276190Y-87554819D01*
X63276190Y-87554819D02*
X63180952Y-87602438D01*
X63180952Y-87602438D02*
X63133333Y-87650057D01*
X63133333Y-87650057D02*
X63085714Y-87745295D01*
X63085714Y-87745295D02*
X63038095Y-87935771D01*
X63038095Y-87935771D02*
X63038095Y-88173866D01*
X63038095Y-88173866D02*
X63085714Y-88364342D01*
X63085714Y-88364342D02*
X63133333Y-88459580D01*
X63133333Y-88459580D02*
X63180952Y-88507200D01*
X63180952Y-88507200D02*
X63276190Y-88554819D01*
X63276190Y-88554819D02*
X63371428Y-88554819D01*
X63371428Y-88554819D02*
X63466666Y-88507200D01*
X63466666Y-88507200D02*
X63514285Y-88459580D01*
X63514285Y-88459580D02*
X63561904Y-88364342D01*
X63561904Y-88364342D02*
X63609523Y-88173866D01*
X63609523Y-88173866D02*
X63609523Y-87935771D01*
X63609523Y-87935771D02*
X63561904Y-87745295D01*
X63561904Y-87745295D02*
X63514285Y-87650057D01*
X63514285Y-87650057D02*
X63466666Y-87602438D01*
X63466666Y-87602438D02*
X63371428Y-87554819D01*
X42054819Y-74370833D02*
X41578628Y-74037500D01*
X42054819Y-73799405D02*
X41054819Y-73799405D01*
X41054819Y-73799405D02*
X41054819Y-74180357D01*
X41054819Y-74180357D02*
X41102438Y-74275595D01*
X41102438Y-74275595D02*
X41150057Y-74323214D01*
X41150057Y-74323214D02*
X41245295Y-74370833D01*
X41245295Y-74370833D02*
X41388152Y-74370833D01*
X41388152Y-74370833D02*
X41483390Y-74323214D01*
X41483390Y-74323214D02*
X41531009Y-74275595D01*
X41531009Y-74275595D02*
X41578628Y-74180357D01*
X41578628Y-74180357D02*
X41578628Y-73799405D01*
X42054819Y-75323214D02*
X42054819Y-74751786D01*
X42054819Y-75037500D02*
X41054819Y-75037500D01*
X41054819Y-75037500D02*
X41197676Y-74942262D01*
X41197676Y-74942262D02*
X41292914Y-74847024D01*
X41292914Y-74847024D02*
X41340533Y-74751786D01*
X70654819Y-78357142D02*
X70178628Y-78023809D01*
X70654819Y-77785714D02*
X69654819Y-77785714D01*
X69654819Y-77785714D02*
X69654819Y-78166666D01*
X69654819Y-78166666D02*
X69702438Y-78261904D01*
X69702438Y-78261904D02*
X69750057Y-78309523D01*
X69750057Y-78309523D02*
X69845295Y-78357142D01*
X69845295Y-78357142D02*
X69988152Y-78357142D01*
X69988152Y-78357142D02*
X70083390Y-78309523D01*
X70083390Y-78309523D02*
X70131009Y-78261904D01*
X70131009Y-78261904D02*
X70178628Y-78166666D01*
X70178628Y-78166666D02*
X70178628Y-77785714D01*
X70654819Y-79309523D02*
X70654819Y-78738095D01*
X70654819Y-79023809D02*
X69654819Y-79023809D01*
X69654819Y-79023809D02*
X69797676Y-78928571D01*
X69797676Y-78928571D02*
X69892914Y-78833333D01*
X69892914Y-78833333D02*
X69940533Y-78738095D01*
X69654819Y-80166666D02*
X69654819Y-79976190D01*
X69654819Y-79976190D02*
X69702438Y-79880952D01*
X69702438Y-79880952D02*
X69750057Y-79833333D01*
X69750057Y-79833333D02*
X69892914Y-79738095D01*
X69892914Y-79738095D02*
X70083390Y-79690476D01*
X70083390Y-79690476D02*
X70464342Y-79690476D01*
X70464342Y-79690476D02*
X70559580Y-79738095D01*
X70559580Y-79738095D02*
X70607200Y-79785714D01*
X70607200Y-79785714D02*
X70654819Y-79880952D01*
X70654819Y-79880952D02*
X70654819Y-80071428D01*
X70654819Y-80071428D02*
X70607200Y-80166666D01*
X70607200Y-80166666D02*
X70559580Y-80214285D01*
X70559580Y-80214285D02*
X70464342Y-80261904D01*
X70464342Y-80261904D02*
X70226247Y-80261904D01*
X70226247Y-80261904D02*
X70131009Y-80214285D01*
X70131009Y-80214285D02*
X70083390Y-80166666D01*
X70083390Y-80166666D02*
X70035771Y-80071428D01*
X70035771Y-80071428D02*
X70035771Y-79880952D01*
X70035771Y-79880952D02*
X70083390Y-79785714D01*
X70083390Y-79785714D02*
X70131009Y-79738095D01*
X70131009Y-79738095D02*
X70226247Y-79690476D01*
X53904819Y-103645833D02*
X53428628Y-103312500D01*
X53904819Y-103074405D02*
X52904819Y-103074405D01*
X52904819Y-103074405D02*
X52904819Y-103455357D01*
X52904819Y-103455357D02*
X52952438Y-103550595D01*
X52952438Y-103550595D02*
X53000057Y-103598214D01*
X53000057Y-103598214D02*
X53095295Y-103645833D01*
X53095295Y-103645833D02*
X53238152Y-103645833D01*
X53238152Y-103645833D02*
X53333390Y-103598214D01*
X53333390Y-103598214D02*
X53381009Y-103550595D01*
X53381009Y-103550595D02*
X53428628Y-103455357D01*
X53428628Y-103455357D02*
X53428628Y-103074405D01*
X52904819Y-103979167D02*
X52904819Y-104598214D01*
X52904819Y-104598214D02*
X53285771Y-104264881D01*
X53285771Y-104264881D02*
X53285771Y-104407738D01*
X53285771Y-104407738D02*
X53333390Y-104502976D01*
X53333390Y-104502976D02*
X53381009Y-104550595D01*
X53381009Y-104550595D02*
X53476247Y-104598214D01*
X53476247Y-104598214D02*
X53714342Y-104598214D01*
X53714342Y-104598214D02*
X53809580Y-104550595D01*
X53809580Y-104550595D02*
X53857200Y-104502976D01*
X53857200Y-104502976D02*
X53904819Y-104407738D01*
X53904819Y-104407738D02*
X53904819Y-104122024D01*
X53904819Y-104122024D02*
X53857200Y-104026786D01*
X53857200Y-104026786D02*
X53809580Y-103979167D01*
X75059580Y-78233333D02*
X75107200Y-78185714D01*
X75107200Y-78185714D02*
X75154819Y-78042857D01*
X75154819Y-78042857D02*
X75154819Y-77947619D01*
X75154819Y-77947619D02*
X75107200Y-77804762D01*
X75107200Y-77804762D02*
X75011961Y-77709524D01*
X75011961Y-77709524D02*
X74916723Y-77661905D01*
X74916723Y-77661905D02*
X74726247Y-77614286D01*
X74726247Y-77614286D02*
X74583390Y-77614286D01*
X74583390Y-77614286D02*
X74392914Y-77661905D01*
X74392914Y-77661905D02*
X74297676Y-77709524D01*
X74297676Y-77709524D02*
X74202438Y-77804762D01*
X74202438Y-77804762D02*
X74154819Y-77947619D01*
X74154819Y-77947619D02*
X74154819Y-78042857D01*
X74154819Y-78042857D02*
X74202438Y-78185714D01*
X74202438Y-78185714D02*
X74250057Y-78233333D01*
X74154819Y-79138095D02*
X74154819Y-78661905D01*
X74154819Y-78661905D02*
X74631009Y-78614286D01*
X74631009Y-78614286D02*
X74583390Y-78661905D01*
X74583390Y-78661905D02*
X74535771Y-78757143D01*
X74535771Y-78757143D02*
X74535771Y-78995238D01*
X74535771Y-78995238D02*
X74583390Y-79090476D01*
X74583390Y-79090476D02*
X74631009Y-79138095D01*
X74631009Y-79138095D02*
X74726247Y-79185714D01*
X74726247Y-79185714D02*
X74964342Y-79185714D01*
X74964342Y-79185714D02*
X75059580Y-79138095D01*
X75059580Y-79138095D02*
X75107200Y-79090476D01*
X75107200Y-79090476D02*
X75154819Y-78995238D01*
X75154819Y-78995238D02*
X75154819Y-78757143D01*
X75154819Y-78757143D02*
X75107200Y-78661905D01*
X75107200Y-78661905D02*
X75059580Y-78614286D01*
X73659580Y-97857142D02*
X73707200Y-97809523D01*
X73707200Y-97809523D02*
X73754819Y-97666666D01*
X73754819Y-97666666D02*
X73754819Y-97571428D01*
X73754819Y-97571428D02*
X73707200Y-97428571D01*
X73707200Y-97428571D02*
X73611961Y-97333333D01*
X73611961Y-97333333D02*
X73516723Y-97285714D01*
X73516723Y-97285714D02*
X73326247Y-97238095D01*
X73326247Y-97238095D02*
X73183390Y-97238095D01*
X73183390Y-97238095D02*
X72992914Y-97285714D01*
X72992914Y-97285714D02*
X72897676Y-97333333D01*
X72897676Y-97333333D02*
X72802438Y-97428571D01*
X72802438Y-97428571D02*
X72754819Y-97571428D01*
X72754819Y-97571428D02*
X72754819Y-97666666D01*
X72754819Y-97666666D02*
X72802438Y-97809523D01*
X72802438Y-97809523D02*
X72850057Y-97857142D01*
X73754819Y-98809523D02*
X73754819Y-98238095D01*
X73754819Y-98523809D02*
X72754819Y-98523809D01*
X72754819Y-98523809D02*
X72897676Y-98428571D01*
X72897676Y-98428571D02*
X72992914Y-98333333D01*
X72992914Y-98333333D02*
X73040533Y-98238095D01*
X72754819Y-99142857D02*
X72754819Y-99761904D01*
X72754819Y-99761904D02*
X73135771Y-99428571D01*
X73135771Y-99428571D02*
X73135771Y-99571428D01*
X73135771Y-99571428D02*
X73183390Y-99666666D01*
X73183390Y-99666666D02*
X73231009Y-99714285D01*
X73231009Y-99714285D02*
X73326247Y-99761904D01*
X73326247Y-99761904D02*
X73564342Y-99761904D01*
X73564342Y-99761904D02*
X73659580Y-99714285D01*
X73659580Y-99714285D02*
X73707200Y-99666666D01*
X73707200Y-99666666D02*
X73754819Y-99571428D01*
X73754819Y-99571428D02*
X73754819Y-99285714D01*
X73754819Y-99285714D02*
X73707200Y-99190476D01*
X73707200Y-99190476D02*
X73659580Y-99142857D01*
X79254819Y-83957142D02*
X78778628Y-83623809D01*
X79254819Y-83385714D02*
X78254819Y-83385714D01*
X78254819Y-83385714D02*
X78254819Y-83766666D01*
X78254819Y-83766666D02*
X78302438Y-83861904D01*
X78302438Y-83861904D02*
X78350057Y-83909523D01*
X78350057Y-83909523D02*
X78445295Y-83957142D01*
X78445295Y-83957142D02*
X78588152Y-83957142D01*
X78588152Y-83957142D02*
X78683390Y-83909523D01*
X78683390Y-83909523D02*
X78731009Y-83861904D01*
X78731009Y-83861904D02*
X78778628Y-83766666D01*
X78778628Y-83766666D02*
X78778628Y-83385714D01*
X79254819Y-84909523D02*
X79254819Y-84338095D01*
X79254819Y-84623809D02*
X78254819Y-84623809D01*
X78254819Y-84623809D02*
X78397676Y-84528571D01*
X78397676Y-84528571D02*
X78492914Y-84433333D01*
X78492914Y-84433333D02*
X78540533Y-84338095D01*
X79254819Y-85385714D02*
X79254819Y-85576190D01*
X79254819Y-85576190D02*
X79207200Y-85671428D01*
X79207200Y-85671428D02*
X79159580Y-85719047D01*
X79159580Y-85719047D02*
X79016723Y-85814285D01*
X79016723Y-85814285D02*
X78826247Y-85861904D01*
X78826247Y-85861904D02*
X78445295Y-85861904D01*
X78445295Y-85861904D02*
X78350057Y-85814285D01*
X78350057Y-85814285D02*
X78302438Y-85766666D01*
X78302438Y-85766666D02*
X78254819Y-85671428D01*
X78254819Y-85671428D02*
X78254819Y-85480952D01*
X78254819Y-85480952D02*
X78302438Y-85385714D01*
X78302438Y-85385714D02*
X78350057Y-85338095D01*
X78350057Y-85338095D02*
X78445295Y-85290476D01*
X78445295Y-85290476D02*
X78683390Y-85290476D01*
X78683390Y-85290476D02*
X78778628Y-85338095D01*
X78778628Y-85338095D02*
X78826247Y-85385714D01*
X78826247Y-85385714D02*
X78873866Y-85480952D01*
X78873866Y-85480952D02*
X78873866Y-85671428D01*
X78873866Y-85671428D02*
X78826247Y-85766666D01*
X78826247Y-85766666D02*
X78778628Y-85814285D01*
X78778628Y-85814285D02*
X78683390Y-85861904D01*
X66654819Y-90357142D02*
X66178628Y-90023809D01*
X66654819Y-89785714D02*
X65654819Y-89785714D01*
X65654819Y-89785714D02*
X65654819Y-90166666D01*
X65654819Y-90166666D02*
X65702438Y-90261904D01*
X65702438Y-90261904D02*
X65750057Y-90309523D01*
X65750057Y-90309523D02*
X65845295Y-90357142D01*
X65845295Y-90357142D02*
X65988152Y-90357142D01*
X65988152Y-90357142D02*
X66083390Y-90309523D01*
X66083390Y-90309523D02*
X66131009Y-90261904D01*
X66131009Y-90261904D02*
X66178628Y-90166666D01*
X66178628Y-90166666D02*
X66178628Y-89785714D01*
X66654819Y-91309523D02*
X66654819Y-90738095D01*
X66654819Y-91023809D02*
X65654819Y-91023809D01*
X65654819Y-91023809D02*
X65797676Y-90928571D01*
X65797676Y-90928571D02*
X65892914Y-90833333D01*
X65892914Y-90833333D02*
X65940533Y-90738095D01*
X65750057Y-91690476D02*
X65702438Y-91738095D01*
X65702438Y-91738095D02*
X65654819Y-91833333D01*
X65654819Y-91833333D02*
X65654819Y-92071428D01*
X65654819Y-92071428D02*
X65702438Y-92166666D01*
X65702438Y-92166666D02*
X65750057Y-92214285D01*
X65750057Y-92214285D02*
X65845295Y-92261904D01*
X65845295Y-92261904D02*
X65940533Y-92261904D01*
X65940533Y-92261904D02*
X66083390Y-92214285D01*
X66083390Y-92214285D02*
X66654819Y-91642857D01*
X66654819Y-91642857D02*
X66654819Y-92261904D01*
X87589580Y-94007142D02*
X87637200Y-93959523D01*
X87637200Y-93959523D02*
X87684819Y-93816666D01*
X87684819Y-93816666D02*
X87684819Y-93721428D01*
X87684819Y-93721428D02*
X87637200Y-93578571D01*
X87637200Y-93578571D02*
X87541961Y-93483333D01*
X87541961Y-93483333D02*
X87446723Y-93435714D01*
X87446723Y-93435714D02*
X87256247Y-93388095D01*
X87256247Y-93388095D02*
X87113390Y-93388095D01*
X87113390Y-93388095D02*
X86922914Y-93435714D01*
X86922914Y-93435714D02*
X86827676Y-93483333D01*
X86827676Y-93483333D02*
X86732438Y-93578571D01*
X86732438Y-93578571D02*
X86684819Y-93721428D01*
X86684819Y-93721428D02*
X86684819Y-93816666D01*
X86684819Y-93816666D02*
X86732438Y-93959523D01*
X86732438Y-93959523D02*
X86780057Y-94007142D01*
X86780057Y-94388095D02*
X86732438Y-94435714D01*
X86732438Y-94435714D02*
X86684819Y-94530952D01*
X86684819Y-94530952D02*
X86684819Y-94769047D01*
X86684819Y-94769047D02*
X86732438Y-94864285D01*
X86732438Y-94864285D02*
X86780057Y-94911904D01*
X86780057Y-94911904D02*
X86875295Y-94959523D01*
X86875295Y-94959523D02*
X86970533Y-94959523D01*
X86970533Y-94959523D02*
X87113390Y-94911904D01*
X87113390Y-94911904D02*
X87684819Y-94340476D01*
X87684819Y-94340476D02*
X87684819Y-94959523D01*
X86684819Y-95864285D02*
X86684819Y-95388095D01*
X86684819Y-95388095D02*
X87161009Y-95340476D01*
X87161009Y-95340476D02*
X87113390Y-95388095D01*
X87113390Y-95388095D02*
X87065771Y-95483333D01*
X87065771Y-95483333D02*
X87065771Y-95721428D01*
X87065771Y-95721428D02*
X87113390Y-95816666D01*
X87113390Y-95816666D02*
X87161009Y-95864285D01*
X87161009Y-95864285D02*
X87256247Y-95911904D01*
X87256247Y-95911904D02*
X87494342Y-95911904D01*
X87494342Y-95911904D02*
X87589580Y-95864285D01*
X87589580Y-95864285D02*
X87637200Y-95816666D01*
X87637200Y-95816666D02*
X87684819Y-95721428D01*
X87684819Y-95721428D02*
X87684819Y-95483333D01*
X87684819Y-95483333D02*
X87637200Y-95388095D01*
X87637200Y-95388095D02*
X87589580Y-95340476D01*
X31312857Y-110104819D02*
X31646190Y-109628628D01*
X31884285Y-110104819D02*
X31884285Y-109104819D01*
X31884285Y-109104819D02*
X31503333Y-109104819D01*
X31503333Y-109104819D02*
X31408095Y-109152438D01*
X31408095Y-109152438D02*
X31360476Y-109200057D01*
X31360476Y-109200057D02*
X31312857Y-109295295D01*
X31312857Y-109295295D02*
X31312857Y-109438152D01*
X31312857Y-109438152D02*
X31360476Y-109533390D01*
X31360476Y-109533390D02*
X31408095Y-109581009D01*
X31408095Y-109581009D02*
X31503333Y-109628628D01*
X31503333Y-109628628D02*
X31884285Y-109628628D01*
X30931904Y-109200057D02*
X30884285Y-109152438D01*
X30884285Y-109152438D02*
X30789047Y-109104819D01*
X30789047Y-109104819D02*
X30550952Y-109104819D01*
X30550952Y-109104819D02*
X30455714Y-109152438D01*
X30455714Y-109152438D02*
X30408095Y-109200057D01*
X30408095Y-109200057D02*
X30360476Y-109295295D01*
X30360476Y-109295295D02*
X30360476Y-109390533D01*
X30360476Y-109390533D02*
X30408095Y-109533390D01*
X30408095Y-109533390D02*
X30979523Y-110104819D01*
X30979523Y-110104819D02*
X30360476Y-110104819D01*
X29408095Y-110104819D02*
X29979523Y-110104819D01*
X29693809Y-110104819D02*
X29693809Y-109104819D01*
X29693809Y-109104819D02*
X29789047Y-109247676D01*
X29789047Y-109247676D02*
X29884285Y-109342914D01*
X29884285Y-109342914D02*
X29979523Y-109390533D01*
X72654819Y-78257142D02*
X72178628Y-77923809D01*
X72654819Y-77685714D02*
X71654819Y-77685714D01*
X71654819Y-77685714D02*
X71654819Y-78066666D01*
X71654819Y-78066666D02*
X71702438Y-78161904D01*
X71702438Y-78161904D02*
X71750057Y-78209523D01*
X71750057Y-78209523D02*
X71845295Y-78257142D01*
X71845295Y-78257142D02*
X71988152Y-78257142D01*
X71988152Y-78257142D02*
X72083390Y-78209523D01*
X72083390Y-78209523D02*
X72131009Y-78161904D01*
X72131009Y-78161904D02*
X72178628Y-78066666D01*
X72178628Y-78066666D02*
X72178628Y-77685714D01*
X72654819Y-79209523D02*
X72654819Y-78638095D01*
X72654819Y-78923809D02*
X71654819Y-78923809D01*
X71654819Y-78923809D02*
X71797676Y-78828571D01*
X71797676Y-78828571D02*
X71892914Y-78733333D01*
X71892914Y-78733333D02*
X71940533Y-78638095D01*
X71654819Y-79542857D02*
X71654819Y-80209523D01*
X71654819Y-80209523D02*
X72654819Y-79780952D01*
X90711904Y-83904819D02*
X90711904Y-84714342D01*
X90711904Y-84714342D02*
X90664285Y-84809580D01*
X90664285Y-84809580D02*
X90616666Y-84857200D01*
X90616666Y-84857200D02*
X90521428Y-84904819D01*
X90521428Y-84904819D02*
X90330952Y-84904819D01*
X90330952Y-84904819D02*
X90235714Y-84857200D01*
X90235714Y-84857200D02*
X90188095Y-84809580D01*
X90188095Y-84809580D02*
X90140476Y-84714342D01*
X90140476Y-84714342D02*
X90140476Y-83904819D01*
X89711904Y-84000057D02*
X89664285Y-83952438D01*
X89664285Y-83952438D02*
X89569047Y-83904819D01*
X89569047Y-83904819D02*
X89330952Y-83904819D01*
X89330952Y-83904819D02*
X89235714Y-83952438D01*
X89235714Y-83952438D02*
X89188095Y-84000057D01*
X89188095Y-84000057D02*
X89140476Y-84095295D01*
X89140476Y-84095295D02*
X89140476Y-84190533D01*
X89140476Y-84190533D02*
X89188095Y-84333390D01*
X89188095Y-84333390D02*
X89759523Y-84904819D01*
X89759523Y-84904819D02*
X89140476Y-84904819D01*
X58250594Y-107024819D02*
X58250594Y-106024819D01*
X58250594Y-106024819D02*
X58012499Y-106024819D01*
X58012499Y-106024819D02*
X57869642Y-106072438D01*
X57869642Y-106072438D02*
X57774404Y-106167676D01*
X57774404Y-106167676D02*
X57726785Y-106262914D01*
X57726785Y-106262914D02*
X57679166Y-106453390D01*
X57679166Y-106453390D02*
X57679166Y-106596247D01*
X57679166Y-106596247D02*
X57726785Y-106786723D01*
X57726785Y-106786723D02*
X57774404Y-106881961D01*
X57774404Y-106881961D02*
X57869642Y-106977200D01*
X57869642Y-106977200D02*
X58012499Y-107024819D01*
X58012499Y-107024819D02*
X58250594Y-107024819D01*
X56822023Y-106358152D02*
X56822023Y-107024819D01*
X57060118Y-105977200D02*
X57298213Y-106691485D01*
X57298213Y-106691485D02*
X56679166Y-106691485D01*
D10*
X72874318Y-87960237D02*
X71604318Y-87960237D01*
X72753365Y-89290714D02*
X72813842Y-89230238D01*
X72813842Y-89230238D02*
X72874318Y-89048809D01*
X72874318Y-89048809D02*
X72874318Y-88927857D01*
X72874318Y-88927857D02*
X72813842Y-88746428D01*
X72813842Y-88746428D02*
X72692889Y-88625476D01*
X72692889Y-88625476D02*
X72571937Y-88564999D01*
X72571937Y-88564999D02*
X72330032Y-88504523D01*
X72330032Y-88504523D02*
X72148603Y-88504523D01*
X72148603Y-88504523D02*
X71906699Y-88564999D01*
X71906699Y-88564999D02*
X71785746Y-88625476D01*
X71785746Y-88625476D02*
X71664794Y-88746428D01*
X71664794Y-88746428D02*
X71604318Y-88927857D01*
X71604318Y-88927857D02*
X71604318Y-89048809D01*
X71604318Y-89048809D02*
X71664794Y-89230238D01*
X71664794Y-89230238D02*
X71725270Y-89290714D01*
X72874318Y-90500238D02*
X72874318Y-89774523D01*
X72874318Y-90137380D02*
X71604318Y-90137380D01*
X71604318Y-90137380D02*
X71785746Y-90016428D01*
X71785746Y-90016428D02*
X71906699Y-89895476D01*
X71906699Y-89895476D02*
X71967175Y-89774523D01*
D11*
X75959580Y-100257142D02*
X76007200Y-100209523D01*
X76007200Y-100209523D02*
X76054819Y-100066666D01*
X76054819Y-100066666D02*
X76054819Y-99971428D01*
X76054819Y-99971428D02*
X76007200Y-99828571D01*
X76007200Y-99828571D02*
X75911961Y-99733333D01*
X75911961Y-99733333D02*
X75816723Y-99685714D01*
X75816723Y-99685714D02*
X75626247Y-99638095D01*
X75626247Y-99638095D02*
X75483390Y-99638095D01*
X75483390Y-99638095D02*
X75292914Y-99685714D01*
X75292914Y-99685714D02*
X75197676Y-99733333D01*
X75197676Y-99733333D02*
X75102438Y-99828571D01*
X75102438Y-99828571D02*
X75054819Y-99971428D01*
X75054819Y-99971428D02*
X75054819Y-100066666D01*
X75054819Y-100066666D02*
X75102438Y-100209523D01*
X75102438Y-100209523D02*
X75150057Y-100257142D01*
X76054819Y-101209523D02*
X76054819Y-100638095D01*
X76054819Y-100923809D02*
X75054819Y-100923809D01*
X75054819Y-100923809D02*
X75197676Y-100828571D01*
X75197676Y-100828571D02*
X75292914Y-100733333D01*
X75292914Y-100733333D02*
X75340533Y-100638095D01*
X75388152Y-102066666D02*
X76054819Y-102066666D01*
X75007200Y-101828571D02*
X75721485Y-101590476D01*
X75721485Y-101590476D02*
X75721485Y-102209523D01*
X81129166Y-101804819D02*
X81462499Y-101328628D01*
X81700594Y-101804819D02*
X81700594Y-100804819D01*
X81700594Y-100804819D02*
X81319642Y-100804819D01*
X81319642Y-100804819D02*
X81224404Y-100852438D01*
X81224404Y-100852438D02*
X81176785Y-100900057D01*
X81176785Y-100900057D02*
X81129166Y-100995295D01*
X81129166Y-100995295D02*
X81129166Y-101138152D01*
X81129166Y-101138152D02*
X81176785Y-101233390D01*
X81176785Y-101233390D02*
X81224404Y-101281009D01*
X81224404Y-101281009D02*
X81319642Y-101328628D01*
X81319642Y-101328628D02*
X81700594Y-101328628D01*
X80272023Y-101138152D02*
X80272023Y-101804819D01*
X80510118Y-100757200D02*
X80748213Y-101471485D01*
X80748213Y-101471485D02*
X80129166Y-101471485D01*
D12*
%TO.C,RN2*%
X31900000Y-79000000D02*
X31900000Y-79000000D01*
X32000000Y-79000000D02*
X32000000Y-79000000D01*
X31900000Y-79000000D02*
G75*
G02*
X32000000Y-79000000I50000J0D01*
G01*
X32000000Y-79000000D02*
G75*
G02*
X31900000Y-79000000I-50000J0D01*
G01*
D13*
%TO.C,R2*%
X62865000Y-102239564D02*
X62865000Y-101785436D01*
X64335000Y-102239564D02*
X64335000Y-101785436D01*
%TO.C,C23*%
X95065000Y-88011252D02*
X95065000Y-87488748D01*
X96535000Y-88011252D02*
X96535000Y-87488748D01*
%TO.C,R20*%
X45065000Y-103585436D02*
X45065000Y-104039564D01*
X46535000Y-103585436D02*
X46535000Y-104039564D01*
%TO.C,R15*%
X67714564Y-81565000D02*
X67260436Y-81565000D01*
X67714564Y-83035000D02*
X67260436Y-83035000D01*
%TO.C,R5*%
X75815000Y-92560436D02*
X75815000Y-93014564D01*
X77285000Y-92560436D02*
X77285000Y-93014564D01*
D12*
%TO.C,RN1*%
X33700000Y-84650000D02*
X33700000Y-84650000D01*
X33800000Y-84650000D02*
X33800000Y-84650000D01*
X33700000Y-84650000D02*
G75*
G02*
X33800000Y-84650000I50000J0D01*
G01*
X33800000Y-84650000D02*
G75*
G02*
X33700000Y-84650000I-50000J0D01*
G01*
D13*
%TO.C,C4*%
X45090000Y-73813748D02*
X45090000Y-75236252D01*
X46910000Y-73813748D02*
X46910000Y-75236252D01*
%TO.C,R6*%
X67714564Y-85465000D02*
X67260436Y-85465000D01*
X67714564Y-86935000D02*
X67260436Y-86935000D01*
%TO.C,R18*%
X73965000Y-84814564D02*
X73965000Y-84360436D01*
X75435000Y-84814564D02*
X75435000Y-84360436D01*
%TO.C,C6*%
X36665000Y-100888748D02*
X36665000Y-101411252D01*
X38135000Y-100888748D02*
X38135000Y-101411252D01*
%TO.C,R14*%
X67723097Y-83539473D02*
X67268969Y-83539473D01*
X67723097Y-85009473D02*
X67268969Y-85009473D01*
%TO.C,J2*%
X100490000Y-48890000D02*
X104710000Y-48890000D01*
X100490000Y-65000000D02*
X100490000Y-48890000D01*
X100490000Y-65000000D02*
X102600000Y-65000000D01*
X100490000Y-66000000D02*
X100490000Y-67110000D01*
X100490000Y-67110000D02*
X101600000Y-67110000D01*
X102600000Y-65000000D02*
X102600000Y-67110000D01*
X102600000Y-67110000D02*
X104710000Y-67110000D01*
X104710000Y-67110000D02*
X104710000Y-48890000D01*
%TO.C,J12*%
X114170000Y-93370000D02*
X114170000Y-88170000D01*
X116770000Y-88170000D02*
X114170000Y-88170000D01*
X116770000Y-90770000D02*
X116770000Y-88170000D01*
X119370000Y-88170000D02*
X118040000Y-88170000D01*
X119370000Y-89500000D02*
X119370000Y-88170000D01*
X119370000Y-90770000D02*
X116770000Y-90770000D01*
X119370000Y-93370000D02*
X114170000Y-93370000D01*
X119370000Y-93370000D02*
X119370000Y-90770000D01*
%TO.C,C24*%
X83140000Y-88611252D02*
X83140000Y-87188748D01*
X84960000Y-88611252D02*
X84960000Y-87188748D01*
%TO.C,R11*%
X66365000Y-94285436D02*
X66365000Y-94739564D01*
X67835000Y-94285436D02*
X67835000Y-94739564D01*
D14*
%TO.C,IC2*%
X57824600Y-102430200D02*
X57824600Y-101363400D01*
X57824600Y-104106600D02*
X57824600Y-102430200D01*
X62803000Y-101363400D02*
X62803000Y-104106600D01*
D13*
%TO.C,J8*%
X36790000Y-48890000D02*
X41010000Y-48890000D01*
X36790000Y-65000000D02*
X36790000Y-48890000D01*
X36790000Y-65000000D02*
X38900000Y-65000000D01*
X36790000Y-66000000D02*
X36790000Y-67110000D01*
X36790000Y-67110000D02*
X37900000Y-67110000D01*
X38900000Y-65000000D02*
X38900000Y-67110000D01*
X38900000Y-67110000D02*
X41010000Y-67110000D01*
X41010000Y-67110000D02*
X41010000Y-48890000D01*
%TO.C,R13*%
X69365000Y-94285436D02*
X69365000Y-94739564D01*
X70835000Y-94285436D02*
X70835000Y-94739564D01*
%TO.C,J7*%
X47490000Y-48890000D02*
X51710000Y-48890000D01*
X47490000Y-65000000D02*
X47490000Y-48890000D01*
X47490000Y-65000000D02*
X49600000Y-65000000D01*
X47490000Y-66000000D02*
X47490000Y-67110000D01*
X47490000Y-67110000D02*
X48600000Y-67110000D01*
X49600000Y-65000000D02*
X49600000Y-67110000D01*
X49600000Y-67110000D02*
X51710000Y-67110000D01*
X51710000Y-67110000D02*
X51710000Y-48890000D01*
%TO.C,J6*%
X58190000Y-48890000D02*
X62410000Y-48890000D01*
X58190000Y-65000000D02*
X58190000Y-48890000D01*
X58190000Y-65000000D02*
X60300000Y-65000000D01*
X58190000Y-66000000D02*
X58190000Y-67110000D01*
X58190000Y-67110000D02*
X59300000Y-67110000D01*
X60300000Y-65000000D02*
X60300000Y-67110000D01*
X60300000Y-67110000D02*
X62410000Y-67110000D01*
X62410000Y-67110000D02*
X62410000Y-48890000D01*
%TO.C,C7*%
X38640000Y-100951248D02*
X38640000Y-102373752D01*
X41360000Y-100951248D02*
X41360000Y-102373752D01*
%TO.C,C8*%
X31173752Y-104890000D02*
X29751248Y-104890000D01*
X31173752Y-106710000D02*
X29751248Y-106710000D01*
%TO.C,J4*%
X79790000Y-48890000D02*
X84010000Y-48890000D01*
X79790000Y-65000000D02*
X79790000Y-48890000D01*
X79790000Y-65000000D02*
X81900000Y-65000000D01*
X79790000Y-66000000D02*
X79790000Y-67110000D01*
X79790000Y-67110000D02*
X80900000Y-67110000D01*
X81900000Y-65000000D02*
X81900000Y-67110000D01*
X81900000Y-67110000D02*
X84010000Y-67110000D01*
X84010000Y-67110000D02*
X84010000Y-48890000D01*
%TO.C,Y1*%
X77790000Y-98440000D02*
X78250000Y-98440000D01*
X78250000Y-90980000D02*
X78250000Y-91040000D01*
X78250000Y-93360000D02*
X78250000Y-96120000D01*
X78250000Y-96120000D02*
X77790000Y-96120000D01*
X78250000Y-98440000D02*
X78250000Y-98500000D01*
X78250000Y-98500000D02*
X83850000Y-98500000D01*
X83850000Y-90980000D02*
X78250000Y-90980000D01*
X83850000Y-91040000D02*
X83850000Y-90980000D01*
X83850000Y-96120000D02*
X83850000Y-93360000D01*
X83850000Y-98500000D02*
X83850000Y-98440000D01*
%TO.C,R10*%
X67739564Y-87465000D02*
X67285436Y-87465000D01*
X67739564Y-88935000D02*
X67285436Y-88935000D01*
%TO.C,R1*%
X42515000Y-74310436D02*
X42515000Y-74764564D01*
X43985000Y-74310436D02*
X43985000Y-74764564D01*
%TO.C,R16*%
X69465000Y-82514564D02*
X69465000Y-82060436D01*
X70935000Y-82514564D02*
X70935000Y-82060436D01*
%TO.C,R3*%
X54365000Y-103585436D02*
X54365000Y-104039564D01*
X55835000Y-103585436D02*
X55835000Y-104039564D01*
%TO.C,J5*%
X68990000Y-48890000D02*
X73210000Y-48890000D01*
X68990000Y-65000000D02*
X68990000Y-48890000D01*
X68990000Y-65000000D02*
X71100000Y-65000000D01*
X68990000Y-66000000D02*
X68990000Y-67110000D01*
X68990000Y-67110000D02*
X70100000Y-67110000D01*
X71100000Y-65000000D02*
X71100000Y-67110000D01*
X71100000Y-67110000D02*
X73210000Y-67110000D01*
X73210000Y-67110000D02*
X73210000Y-48890000D01*
%TO.C,C5*%
X73965000Y-81411252D02*
X73965000Y-80888748D01*
X75435000Y-81411252D02*
X75435000Y-80888748D01*
%TO.C,C13*%
X72665000Y-95088748D02*
X72665000Y-95611252D01*
X74135000Y-95088748D02*
X74135000Y-95611252D01*
%TO.C,R19*%
X75865000Y-84839564D02*
X75865000Y-84385436D01*
X77335000Y-84839564D02*
X77335000Y-84385436D01*
%TO.C,R12*%
X67665000Y-90885436D02*
X67665000Y-91339564D01*
X69135000Y-90885436D02*
X69135000Y-91339564D01*
%TO.C,J1*%
X110690000Y-48790000D02*
X114910000Y-48790000D01*
X110690000Y-64900000D02*
X110690000Y-48790000D01*
X110690000Y-64900000D02*
X112800000Y-64900000D01*
X110690000Y-65900000D02*
X110690000Y-67010000D01*
X110690000Y-67010000D02*
X111800000Y-67010000D01*
X112800000Y-64900000D02*
X112800000Y-67010000D01*
X112800000Y-67010000D02*
X114910000Y-67010000D01*
X114910000Y-67010000D02*
X114910000Y-48790000D01*
%TO.C,J9*%
X26390000Y-48890000D02*
X30610000Y-48890000D01*
X26390000Y-65000000D02*
X26390000Y-48890000D01*
X26390000Y-65000000D02*
X28500000Y-65000000D01*
X26390000Y-66000000D02*
X26390000Y-67110000D01*
X26390000Y-67110000D02*
X27500000Y-67110000D01*
X28500000Y-65000000D02*
X28500000Y-67110000D01*
X28500000Y-67110000D02*
X30610000Y-67110000D01*
X30610000Y-67110000D02*
X30610000Y-48890000D01*
%TO.C,C25*%
X84815000Y-94911252D02*
X84815000Y-94388748D01*
X86285000Y-94911252D02*
X86285000Y-94388748D01*
%TO.C,R21*%
X30442936Y-107265000D02*
X30897064Y-107265000D01*
X30442936Y-108735000D02*
X30897064Y-108735000D01*
%TO.C,R17*%
X71465000Y-82514564D02*
X71465000Y-82060436D01*
X72935000Y-82514564D02*
X72935000Y-82060436D01*
%TO.C,U2*%
X88040000Y-85540000D02*
X88040000Y-86800000D01*
X88040000Y-92360000D02*
X88040000Y-91100000D01*
X91800000Y-85540000D02*
X88040000Y-85540000D01*
X91800000Y-92360000D02*
X88040000Y-92360000D01*
X93080000Y-85640000D02*
X92840000Y-85310000D01*
X93320000Y-85310000D01*
X93080000Y-85640000D01*
G36*
X93080000Y-85640000D02*
G01*
X92840000Y-85310000D01*
X93320000Y-85310000D01*
X93080000Y-85640000D01*
G37*
%TO.C,D4*%
X55912500Y-107265000D02*
X59972500Y-107265000D01*
X59972500Y-107265000D02*
X59972500Y-109535000D01*
X59972500Y-109535000D02*
X55912500Y-109535000D01*
%TO.C,J3*%
X90290000Y-48890000D02*
X94510000Y-48890000D01*
X90290000Y-65000000D02*
X90290000Y-48890000D01*
X90290000Y-65000000D02*
X92400000Y-65000000D01*
X90290000Y-66000000D02*
X90290000Y-67110000D01*
X90290000Y-67110000D02*
X91400000Y-67110000D01*
X92400000Y-65000000D02*
X92400000Y-67110000D01*
X92400000Y-67110000D02*
X94510000Y-67110000D01*
X94510000Y-67110000D02*
X94510000Y-48890000D01*
D15*
%TO.C,IC1*%
X74425000Y-91600000D02*
G75*
G02*
X74175000Y-91600000I-125000J0D01*
G01*
X74175000Y-91600000D02*
G75*
G02*
X74425000Y-91600000I125000J0D01*
G01*
D13*
%TO.C,C14*%
X74690000Y-96026248D02*
X74690000Y-97448752D01*
X76510000Y-96026248D02*
X76510000Y-97448752D01*
%TO.C,R4*%
X80735436Y-98965000D02*
X81189564Y-98965000D01*
X80735436Y-100435000D02*
X81189564Y-100435000D01*
%TD*%
%LPC*%
D16*
%TO.C,J14*%
X31720316Y-94174174D03*
X31720316Y-99954174D03*
D17*
X32220316Y-92744174D03*
D18*
X28040316Y-92744174D03*
D17*
X32220316Y-101384174D03*
D18*
X28040316Y-101384174D03*
%TD*%
D19*
%TO.C,J16*%
X119420000Y-44000000D03*
D20*
X116880000Y-44000000D03*
X114340000Y-44000000D03*
X111800000Y-44000000D03*
X109260000Y-44000000D03*
X106720000Y-44000000D03*
X104180000Y-44000000D03*
X101640000Y-44000000D03*
X99100000Y-44000000D03*
X96560000Y-44000000D03*
X94020000Y-44000000D03*
X91480000Y-44000000D03*
X88940000Y-44000000D03*
X86400000Y-44000000D03*
X83860000Y-44000000D03*
X81320000Y-44000000D03*
X78780000Y-44000000D03*
X76240000Y-44000000D03*
X73700000Y-44000000D03*
X71160000Y-44000000D03*
X68620000Y-44000000D03*
X66080000Y-44000000D03*
X63540000Y-44000000D03*
X61000000Y-44000000D03*
X58460000Y-44000000D03*
X55920000Y-44000000D03*
X53380000Y-44000000D03*
X50840000Y-44000000D03*
X48300000Y-44000000D03*
X45760000Y-44000000D03*
X43220000Y-44000000D03*
X40680000Y-44000000D03*
X38140000Y-44000000D03*
X35600000Y-44000000D03*
X33060000Y-44000000D03*
X30520000Y-44000000D03*
X27980000Y-44000000D03*
%TD*%
D21*
%TO.C,J15*%
X43630000Y-109565000D03*
X41630000Y-109565000D03*
X39630000Y-109565000D03*
X37630000Y-109565000D03*
D22*
X43900000Y-112300000D03*
X36900000Y-112300000D03*
X36900000Y-106830000D03*
X43900000Y-106830000D03*
%TD*%
D23*
%TO.C,J13*%
X34500000Y-87250000D03*
X34500000Y-72750000D03*
D24*
X28540000Y-87250000D03*
X28540000Y-72750000D03*
%TD*%
D25*
%TO.C,U1*%
X109855000Y-106265000D03*
D26*
X112395000Y-89605000D03*
D27*
X109855000Y-89605000D03*
X107315000Y-89605000D03*
%TD*%
D19*
%TO.C,J11*%
X67600000Y-105100000D03*
D20*
X70140000Y-105100000D03*
X72680000Y-105100000D03*
X75220000Y-105100000D03*
X77760000Y-105100000D03*
%TD*%
D28*
%TO.C,RN2*%
X30950000Y-79000000D03*
X30950000Y-79800000D03*
X30950000Y-80600000D03*
X30950000Y-81400000D03*
X29250000Y-81400000D03*
X29250000Y-80600000D03*
X29250000Y-79800000D03*
X29250000Y-79000000D03*
%TD*%
D29*
%TO.C,R2*%
X63600000Y-102925000D03*
X63600000Y-101100000D03*
%TD*%
D30*
%TO.C,C23*%
X95800000Y-88700000D03*
X95800000Y-86800000D03*
%TD*%
D31*
%TO.C,R20*%
X45800000Y-102900000D03*
X45800000Y-104725000D03*
%TD*%
D32*
%TO.C,R15*%
X68400000Y-82300000D03*
X66575000Y-82300000D03*
%TD*%
D31*
%TO.C,R5*%
X76550000Y-91875000D03*
X76550000Y-93700000D03*
%TD*%
D28*
%TO.C,RN1*%
X34750000Y-84650000D03*
X34750000Y-83850000D03*
X34750000Y-83050000D03*
X34750000Y-82250000D03*
X36450000Y-82250000D03*
X36450000Y-83050000D03*
X36450000Y-83850000D03*
X36450000Y-84650000D03*
%TD*%
D33*
%TO.C,C4*%
X46000000Y-73050000D03*
X46000000Y-76000000D03*
%TD*%
D32*
%TO.C,R6*%
X68400000Y-86200000D03*
X66575000Y-86200000D03*
%TD*%
D29*
%TO.C,R18*%
X74700000Y-85500000D03*
X74700000Y-83675000D03*
%TD*%
D34*
%TO.C,C6*%
X37400000Y-100200000D03*
X37400000Y-102100000D03*
%TD*%
D32*
%TO.C,R14*%
X68408533Y-84274473D03*
X66583533Y-84274473D03*
%TD*%
D35*
%TO.C,J2*%
X101600000Y-66000000D03*
D36*
X103600000Y-66000000D03*
X101600000Y-64000000D03*
X103600000Y-64000000D03*
X101600000Y-62000000D03*
X103600000Y-62000000D03*
X101600000Y-60000000D03*
X103600000Y-60000000D03*
X101600000Y-58000000D03*
X103600000Y-58000000D03*
X101600000Y-56000000D03*
X103600000Y-56000000D03*
X101600000Y-54000000D03*
X103600000Y-54000000D03*
X101600000Y-52000000D03*
X103600000Y-52000000D03*
X101600000Y-50000000D03*
X103600000Y-50000000D03*
%TD*%
D19*
%TO.C,J12*%
X118040000Y-89500000D03*
D20*
X118040000Y-92040000D03*
X115500000Y-89500000D03*
X115500000Y-92040000D03*
%TD*%
D37*
%TO.C,C24*%
X84050000Y-89462500D03*
X84050000Y-86337500D03*
%TD*%
D31*
%TO.C,R11*%
X67100000Y-93600000D03*
X67100000Y-95425000D03*
%TD*%
D38*
%TO.C,IC2*%
X58408800Y-100271200D03*
X59678800Y-100271200D03*
X60948800Y-100271200D03*
X62218800Y-100271200D03*
X62218800Y-105198800D03*
X60948800Y-105198800D03*
X59678800Y-105198800D03*
X58408800Y-105198800D03*
%TD*%
D35*
%TO.C,J8*%
X37900000Y-66000000D03*
D36*
X39900000Y-66000000D03*
X37900000Y-64000000D03*
X39900000Y-64000000D03*
X37900000Y-62000000D03*
X39900000Y-62000000D03*
X37900000Y-60000000D03*
X39900000Y-60000000D03*
X37900000Y-58000000D03*
X39900000Y-58000000D03*
X37900000Y-56000000D03*
X39900000Y-56000000D03*
X37900000Y-54000000D03*
X39900000Y-54000000D03*
X37900000Y-52000000D03*
X39900000Y-52000000D03*
X37900000Y-50000000D03*
X39900000Y-50000000D03*
%TD*%
D31*
%TO.C,R13*%
X70100000Y-93600000D03*
X70100000Y-95425000D03*
%TD*%
D35*
%TO.C,J7*%
X48600000Y-66000000D03*
D36*
X50600000Y-66000000D03*
X48600000Y-64000000D03*
X50600000Y-64000000D03*
X48600000Y-62000000D03*
X50600000Y-62000000D03*
X48600000Y-60000000D03*
X50600000Y-60000000D03*
X48600000Y-58000000D03*
X50600000Y-58000000D03*
X48600000Y-56000000D03*
X50600000Y-56000000D03*
X48600000Y-54000000D03*
X50600000Y-54000000D03*
X48600000Y-52000000D03*
X50600000Y-52000000D03*
X48600000Y-50000000D03*
X50600000Y-50000000D03*
%TD*%
D35*
%TO.C,J6*%
X59300000Y-66000000D03*
D36*
X61300000Y-66000000D03*
X59300000Y-64000000D03*
X61300000Y-64000000D03*
X59300000Y-62000000D03*
X61300000Y-62000000D03*
X59300000Y-60000000D03*
X61300000Y-60000000D03*
X59300000Y-58000000D03*
X61300000Y-58000000D03*
X59300000Y-56000000D03*
X61300000Y-56000000D03*
X59300000Y-54000000D03*
X61300000Y-54000000D03*
X59300000Y-52000000D03*
X61300000Y-52000000D03*
X59300000Y-50000000D03*
X61300000Y-50000000D03*
%TD*%
D39*
%TO.C,C7*%
X40000000Y-100100000D03*
X40000000Y-103225000D03*
%TD*%
D40*
%TO.C,C8*%
X32025000Y-105800000D03*
X28900000Y-105800000D03*
%TD*%
D35*
%TO.C,J4*%
X80900000Y-66000000D03*
D36*
X82900000Y-66000000D03*
X80900000Y-64000000D03*
X82900000Y-64000000D03*
X80900000Y-62000000D03*
X82900000Y-62000000D03*
X80900000Y-60000000D03*
X82900000Y-60000000D03*
X80900000Y-58000000D03*
X82900000Y-58000000D03*
X80900000Y-56000000D03*
X82900000Y-56000000D03*
X80900000Y-54000000D03*
X82900000Y-54000000D03*
X80900000Y-52000000D03*
X82900000Y-52000000D03*
X80900000Y-50000000D03*
X82900000Y-50000000D03*
%TD*%
D41*
%TO.C,Y1*%
X79050000Y-97280000D03*
X79050000Y-92200000D03*
X83050000Y-92200000D03*
X83050000Y-97280000D03*
%TD*%
D32*
%TO.C,R10*%
X68425000Y-88200000D03*
X66600000Y-88200000D03*
%TD*%
D31*
%TO.C,R1*%
X43250000Y-73625000D03*
X43250000Y-75450000D03*
%TD*%
D29*
%TO.C,R16*%
X70200000Y-83200000D03*
X70200000Y-81375000D03*
%TD*%
D31*
%TO.C,R3*%
X55100000Y-102900000D03*
X55100000Y-104725000D03*
%TD*%
D35*
%TO.C,J5*%
X70100000Y-66000000D03*
D36*
X72100000Y-66000000D03*
X70100000Y-64000000D03*
X72100000Y-64000000D03*
X70100000Y-62000000D03*
X72100000Y-62000000D03*
X70100000Y-60000000D03*
X72100000Y-60000000D03*
X70100000Y-58000000D03*
X72100000Y-58000000D03*
X70100000Y-56000000D03*
X72100000Y-56000000D03*
X70100000Y-54000000D03*
X72100000Y-54000000D03*
X70100000Y-52000000D03*
X72100000Y-52000000D03*
X70100000Y-50000000D03*
X72100000Y-50000000D03*
%TD*%
D30*
%TO.C,C5*%
X74700000Y-82100000D03*
X74700000Y-80200000D03*
%TD*%
D34*
%TO.C,C13*%
X73400000Y-94400000D03*
X73400000Y-96300000D03*
%TD*%
D29*
%TO.C,R19*%
X76600000Y-85525000D03*
X76600000Y-83700000D03*
%TD*%
D31*
%TO.C,R12*%
X68400000Y-90200000D03*
X68400000Y-92025000D03*
%TD*%
D35*
%TO.C,J1*%
X111800000Y-65900000D03*
D36*
X113800000Y-65900000D03*
X111800000Y-63900000D03*
X113800000Y-63900000D03*
X111800000Y-61900000D03*
X113800000Y-61900000D03*
X111800000Y-59900000D03*
X113800000Y-59900000D03*
X111800000Y-57900000D03*
X113800000Y-57900000D03*
X111800000Y-55900000D03*
X113800000Y-55900000D03*
X111800000Y-53900000D03*
X113800000Y-53900000D03*
X111800000Y-51900000D03*
X113800000Y-51900000D03*
X111800000Y-49900000D03*
X113800000Y-49900000D03*
%TD*%
D35*
%TO.C,J9*%
X27500000Y-66000000D03*
D36*
X29500000Y-66000000D03*
X27500000Y-64000000D03*
X29500000Y-64000000D03*
X27500000Y-62000000D03*
X29500000Y-62000000D03*
X27500000Y-60000000D03*
X29500000Y-60000000D03*
X27500000Y-58000000D03*
X29500000Y-58000000D03*
X27500000Y-56000000D03*
X29500000Y-56000000D03*
X27500000Y-54000000D03*
X29500000Y-54000000D03*
X27500000Y-52000000D03*
X29500000Y-52000000D03*
X27500000Y-50000000D03*
X29500000Y-50000000D03*
%TD*%
D30*
%TO.C,C25*%
X85550000Y-95600000D03*
X85550000Y-93700000D03*
%TD*%
D42*
%TO.C,R21*%
X29757500Y-108000000D03*
X31582500Y-108000000D03*
%TD*%
D29*
%TO.C,R17*%
X72200000Y-83200000D03*
X72200000Y-81375000D03*
%TD*%
D43*
%TO.C,U2*%
X93100000Y-86650000D03*
X93100000Y-88950000D03*
D44*
X86800000Y-88950000D03*
D43*
X93100000Y-91250000D03*
%TD*%
D45*
%TO.C,D4*%
X59000000Y-108400000D03*
X56025000Y-108400000D03*
%TD*%
D35*
%TO.C,J3*%
X91400000Y-66000000D03*
D36*
X93400000Y-66000000D03*
X91400000Y-64000000D03*
X93400000Y-64000000D03*
X91400000Y-62000000D03*
X93400000Y-62000000D03*
X91400000Y-60000000D03*
X93400000Y-60000000D03*
X91400000Y-58000000D03*
X93400000Y-58000000D03*
X91400000Y-56000000D03*
X93400000Y-56000000D03*
X91400000Y-54000000D03*
X93400000Y-54000000D03*
X91400000Y-52000000D03*
X93400000Y-52000000D03*
X91400000Y-50000000D03*
X93400000Y-50000000D03*
%TD*%
D46*
%TO.C,IC1*%
X73550000Y-91150000D03*
X73050000Y-91150000D03*
X72550000Y-91150000D03*
X72050000Y-91150000D03*
X71550000Y-91150000D03*
X71050000Y-91150000D03*
D47*
X70350000Y-90450000D03*
X70350000Y-89950000D03*
X70350000Y-89450000D03*
X70350000Y-88950000D03*
X70350000Y-88450000D03*
X70350000Y-87950000D03*
D46*
X71050000Y-87250000D03*
X71550000Y-87250000D03*
X72050000Y-87250000D03*
X72550000Y-87250000D03*
X73050000Y-87250000D03*
X73550000Y-87250000D03*
D47*
X74250000Y-87950000D03*
X74250000Y-88450000D03*
X74250000Y-88950000D03*
X74250000Y-89450000D03*
X74250000Y-89950000D03*
X74250000Y-90450000D03*
D48*
X72300000Y-89200000D03*
%TD*%
D49*
%TO.C,C14*%
X75600000Y-95175000D03*
X75600000Y-98300000D03*
%TD*%
D42*
%TO.C,R4*%
X80050000Y-99700000D03*
X81875000Y-99700000D03*
%TD*%
D50*
X120900000Y-117900000D03*
X29100000Y-117900000D03*
%LPD*%
M02*
