%TF.GenerationSoftware,KiCad,Pcbnew,9.0.4*%
%TF.CreationDate,2025-10-14T22:23:38+02:00*%
%TF.ProjectId,Antminer_hat_PCB,416e746d-696e-4657-925f-6861745f5043,rev?*%
%TF.SameCoordinates,Original*%
%TF.FileFunction,Soldermask,Bot*%
%TF.FilePolarity,Negative*%
%FSLAX46Y46*%
G04 Gerber Fmt 4.6, Leading zero omitted, Abs format (unit mm)*
G04 Created by KiCad (PCBNEW 9.0.4) date 2025-10-14 22:23:38*
%MOMM*%
%LPD*%
G01*
G04 APERTURE LIST*
G04 Aperture macros list*
%AMRoundRect*
0 Rectangle with rounded corners*
0 $1 Rounding radius*
0 $2 $3 $4 $5 $6 $7 $8 $9 X,Y pos of 4 corners*
0 Add a 4 corners polygon primitive as box body*
4,1,4,$2,$3,$4,$5,$6,$7,$8,$9,$2,$3,0*
0 Add four circle primitives for the rounded corners*
1,1,$1+$1,$2,$3*
1,1,$1+$1,$4,$5*
1,1,$1+$1,$6,$7*
1,1,$1+$1,$8,$9*
0 Add four rect primitives between the rounded corners*
20,1,$1+$1,$2,$3,$4,$5,0*
20,1,$1+$1,$4,$5,$6,$7,0*
20,1,$1+$1,$6,$7,$8,$9,0*
20,1,$1+$1,$8,$9,$2,$3,0*%
G04 Aperture macros list end*
%ADD10C,0.650000*%
%ADD11O,2.100000X1.000000*%
%ADD12O,1.800000X1.000000*%
%ADD13R,1.700000X1.700000*%
%ADD14C,1.700000*%
%ADD15C,1.420000*%
%ADD16C,2.050000*%
%ADD17O,3.300000X1.500000*%
%ADD18O,2.300000X1.500000*%
%ADD19C,3.500000*%
%ADD20R,1.905000X2.000000*%
%ADD21O,1.905000X2.000000*%
%ADD22R,0.900000X0.450000*%
%ADD23RoundRect,0.250000X0.450000X-0.262500X0.450000X0.262500X-0.450000X0.262500X-0.450000X-0.262500X0*%
%ADD24RoundRect,0.250000X0.475000X-0.250000X0.475000X0.250000X-0.475000X0.250000X-0.475000X-0.250000X0*%
%ADD25RoundRect,0.250000X-0.450000X0.262500X-0.450000X-0.262500X0.450000X-0.262500X0.450000X0.262500X0*%
%ADD26RoundRect,0.250000X0.262500X0.450000X-0.262500X0.450000X-0.262500X-0.450000X0.262500X-0.450000X0*%
%ADD27RoundRect,0.250000X-0.650000X0.325000X-0.650000X-0.325000X0.650000X-0.325000X0.650000X0.325000X0*%
%ADD28RoundRect,0.250000X-0.475000X0.250000X-0.475000X-0.250000X0.475000X-0.250000X0.475000X0.250000X0*%
%ADD29R,1.350000X1.350000*%
%ADD30C,1.350000*%
%ADD31RoundRect,0.250000X0.650000X-0.412500X0.650000X0.412500X-0.650000X0.412500X-0.650000X-0.412500X0*%
%ADD32R,0.558800X1.981200*%
%ADD33RoundRect,0.250000X-1.100000X0.412500X-1.100000X-0.412500X1.100000X-0.412500X1.100000X0.412500X0*%
%ADD34RoundRect,0.250000X0.412500X0.650000X-0.412500X0.650000X-0.412500X-0.650000X0.412500X-0.650000X0*%
%ADD35RoundRect,0.250000X0.750000X-0.650000X0.750000X0.650000X-0.750000X0.650000X-0.750000X-0.650000X0*%
%ADD36RoundRect,0.250000X-0.262500X-0.450000X0.262500X-0.450000X0.262500X0.450000X-0.262500X0.450000X0*%
%ADD37RoundRect,0.375000X0.625000X0.375000X-0.625000X0.375000X-0.625000X-0.375000X0.625000X-0.375000X0*%
%ADD38RoundRect,0.500000X0.500000X1.400000X-0.500000X1.400000X-0.500000X-1.400000X0.500000X-1.400000X0*%
%ADD39RoundRect,0.250001X0.462499X0.624999X-0.462499X0.624999X-0.462499X-0.624999X0.462499X-0.624999X0*%
%ADD40R,0.300000X0.900000*%
%ADD41R,0.900000X0.300000*%
%ADD42R,2.600000X2.600000*%
%ADD43RoundRect,0.250000X-0.650000X0.412500X-0.650000X-0.412500X0.650000X-0.412500X0.650000X0.412500X0*%
%ADD44C,7.000000*%
G04 APERTURE END LIST*
D10*
%TO.C,J14*%
X31720316Y-94174174D03*
X31720316Y-99954174D03*
D11*
X32220316Y-92744174D03*
D12*
X28040316Y-92744174D03*
D11*
X32220316Y-101384174D03*
D12*
X28040316Y-101384174D03*
%TD*%
D13*
%TO.C,J16*%
X119420000Y-44000000D03*
D14*
X116880000Y-44000000D03*
X114340000Y-44000000D03*
X111800000Y-44000000D03*
X109260000Y-44000000D03*
X106720000Y-44000000D03*
X104180000Y-44000000D03*
X101640000Y-44000000D03*
X99100000Y-44000000D03*
X96560000Y-44000000D03*
X94020000Y-44000000D03*
X91480000Y-44000000D03*
X88940000Y-44000000D03*
X86400000Y-44000000D03*
X83860000Y-44000000D03*
X81320000Y-44000000D03*
X78780000Y-44000000D03*
X76240000Y-44000000D03*
X73700000Y-44000000D03*
X71160000Y-44000000D03*
X68620000Y-44000000D03*
X66080000Y-44000000D03*
X63540000Y-44000000D03*
X61000000Y-44000000D03*
X58460000Y-44000000D03*
X55920000Y-44000000D03*
X53380000Y-44000000D03*
X50840000Y-44000000D03*
X48300000Y-44000000D03*
X45760000Y-44000000D03*
X43220000Y-44000000D03*
X40680000Y-44000000D03*
X38140000Y-44000000D03*
X35600000Y-44000000D03*
X33060000Y-44000000D03*
X30520000Y-44000000D03*
X27980000Y-44000000D03*
%TD*%
D15*
%TO.C,J15*%
X43630000Y-109565000D03*
X41630000Y-109565000D03*
X39630000Y-109565000D03*
X37630000Y-109565000D03*
D16*
X43900000Y-112300000D03*
X36900000Y-112300000D03*
X36900000Y-106830000D03*
X43900000Y-106830000D03*
%TD*%
D17*
%TO.C,J13*%
X34500000Y-87250000D03*
X34500000Y-72750000D03*
D18*
X28540000Y-87250000D03*
X28540000Y-72750000D03*
%TD*%
D19*
%TO.C,U1*%
X109855000Y-106265000D03*
D20*
X112395000Y-89605000D03*
D21*
X109855000Y-89605000D03*
X107315000Y-89605000D03*
%TD*%
D13*
%TO.C,J11*%
X67600000Y-105100000D03*
D14*
X70140000Y-105100000D03*
X72680000Y-105100000D03*
X75220000Y-105100000D03*
X77760000Y-105100000D03*
%TD*%
D22*
%TO.C,RN2*%
X30950000Y-79000000D03*
X30950000Y-79800000D03*
X30950000Y-80600000D03*
X30950000Y-81400000D03*
X29250000Y-81400000D03*
X29250000Y-80600000D03*
X29250000Y-79800000D03*
X29250000Y-79000000D03*
%TD*%
D23*
%TO.C,R2*%
X63600000Y-102925000D03*
X63600000Y-101100000D03*
%TD*%
D24*
%TO.C,C23*%
X95800000Y-88700000D03*
X95800000Y-86800000D03*
%TD*%
D25*
%TO.C,R20*%
X45800000Y-102900000D03*
X45800000Y-104725000D03*
%TD*%
D26*
%TO.C,R15*%
X68400000Y-82300000D03*
X66575000Y-82300000D03*
%TD*%
D25*
%TO.C,R5*%
X76550000Y-91875000D03*
X76550000Y-93700000D03*
%TD*%
D22*
%TO.C,RN1*%
X34750000Y-84650000D03*
X34750000Y-83850000D03*
X34750000Y-83050000D03*
X34750000Y-82250000D03*
X36450000Y-82250000D03*
X36450000Y-83050000D03*
X36450000Y-83850000D03*
X36450000Y-84650000D03*
%TD*%
D27*
%TO.C,C4*%
X46000000Y-73050000D03*
X46000000Y-76000000D03*
%TD*%
D26*
%TO.C,R6*%
X68400000Y-86200000D03*
X66575000Y-86200000D03*
%TD*%
D23*
%TO.C,R18*%
X74700000Y-85500000D03*
X74700000Y-83675000D03*
%TD*%
D28*
%TO.C,C6*%
X37400000Y-100200000D03*
X37400000Y-102100000D03*
%TD*%
D26*
%TO.C,R14*%
X68408533Y-84274473D03*
X66583533Y-84274473D03*
%TD*%
D29*
%TO.C,J2*%
X101600000Y-66000000D03*
D30*
X103600000Y-66000000D03*
X101600000Y-64000000D03*
X103600000Y-64000000D03*
X101600000Y-62000000D03*
X103600000Y-62000000D03*
X101600000Y-60000000D03*
X103600000Y-60000000D03*
X101600000Y-58000000D03*
X103600000Y-58000000D03*
X101600000Y-56000000D03*
X103600000Y-56000000D03*
X101600000Y-54000000D03*
X103600000Y-54000000D03*
X101600000Y-52000000D03*
X103600000Y-52000000D03*
X101600000Y-50000000D03*
X103600000Y-50000000D03*
%TD*%
D13*
%TO.C,J12*%
X118040000Y-89500000D03*
D14*
X118040000Y-92040000D03*
X115500000Y-89500000D03*
X115500000Y-92040000D03*
%TD*%
D31*
%TO.C,C24*%
X84050000Y-89462500D03*
X84050000Y-86337500D03*
%TD*%
D25*
%TO.C,R11*%
X67100000Y-93600000D03*
X67100000Y-95425000D03*
%TD*%
D32*
%TO.C,IC2*%
X58408800Y-100271200D03*
X59678800Y-100271200D03*
X60948800Y-100271200D03*
X62218800Y-100271200D03*
X62218800Y-105198800D03*
X60948800Y-105198800D03*
X59678800Y-105198800D03*
X58408800Y-105198800D03*
%TD*%
D29*
%TO.C,J8*%
X37900000Y-66000000D03*
D30*
X39900000Y-66000000D03*
X37900000Y-64000000D03*
X39900000Y-64000000D03*
X37900000Y-62000000D03*
X39900000Y-62000000D03*
X37900000Y-60000000D03*
X39900000Y-60000000D03*
X37900000Y-58000000D03*
X39900000Y-58000000D03*
X37900000Y-56000000D03*
X39900000Y-56000000D03*
X37900000Y-54000000D03*
X39900000Y-54000000D03*
X37900000Y-52000000D03*
X39900000Y-52000000D03*
X37900000Y-50000000D03*
X39900000Y-50000000D03*
%TD*%
D25*
%TO.C,R13*%
X70100000Y-93600000D03*
X70100000Y-95425000D03*
%TD*%
D29*
%TO.C,J7*%
X48600000Y-66000000D03*
D30*
X50600000Y-66000000D03*
X48600000Y-64000000D03*
X50600000Y-64000000D03*
X48600000Y-62000000D03*
X50600000Y-62000000D03*
X48600000Y-60000000D03*
X50600000Y-60000000D03*
X48600000Y-58000000D03*
X50600000Y-58000000D03*
X48600000Y-56000000D03*
X50600000Y-56000000D03*
X48600000Y-54000000D03*
X50600000Y-54000000D03*
X48600000Y-52000000D03*
X50600000Y-52000000D03*
X48600000Y-50000000D03*
X50600000Y-50000000D03*
%TD*%
D29*
%TO.C,J6*%
X59300000Y-66000000D03*
D30*
X61300000Y-66000000D03*
X59300000Y-64000000D03*
X61300000Y-64000000D03*
X59300000Y-62000000D03*
X61300000Y-62000000D03*
X59300000Y-60000000D03*
X61300000Y-60000000D03*
X59300000Y-58000000D03*
X61300000Y-58000000D03*
X59300000Y-56000000D03*
X61300000Y-56000000D03*
X59300000Y-54000000D03*
X61300000Y-54000000D03*
X59300000Y-52000000D03*
X61300000Y-52000000D03*
X59300000Y-50000000D03*
X61300000Y-50000000D03*
%TD*%
D33*
%TO.C,C7*%
X40000000Y-100100000D03*
X40000000Y-103225000D03*
%TD*%
D34*
%TO.C,C8*%
X32025000Y-105800000D03*
X28900000Y-105800000D03*
%TD*%
D29*
%TO.C,J4*%
X80900000Y-66000000D03*
D30*
X82900000Y-66000000D03*
X80900000Y-64000000D03*
X82900000Y-64000000D03*
X80900000Y-62000000D03*
X82900000Y-62000000D03*
X80900000Y-60000000D03*
X82900000Y-60000000D03*
X80900000Y-58000000D03*
X82900000Y-58000000D03*
X80900000Y-56000000D03*
X82900000Y-56000000D03*
X80900000Y-54000000D03*
X82900000Y-54000000D03*
X80900000Y-52000000D03*
X82900000Y-52000000D03*
X80900000Y-50000000D03*
X82900000Y-50000000D03*
%TD*%
D35*
%TO.C,Y1*%
X79050000Y-97280000D03*
X79050000Y-92200000D03*
X83050000Y-92200000D03*
X83050000Y-97280000D03*
%TD*%
D26*
%TO.C,R10*%
X68425000Y-88200000D03*
X66600000Y-88200000D03*
%TD*%
D25*
%TO.C,R1*%
X43250000Y-73625000D03*
X43250000Y-75450000D03*
%TD*%
D23*
%TO.C,R16*%
X70200000Y-83200000D03*
X70200000Y-81375000D03*
%TD*%
D25*
%TO.C,R3*%
X55100000Y-102900000D03*
X55100000Y-104725000D03*
%TD*%
D29*
%TO.C,J5*%
X70100000Y-66000000D03*
D30*
X72100000Y-66000000D03*
X70100000Y-64000000D03*
X72100000Y-64000000D03*
X70100000Y-62000000D03*
X72100000Y-62000000D03*
X70100000Y-60000000D03*
X72100000Y-60000000D03*
X70100000Y-58000000D03*
X72100000Y-58000000D03*
X70100000Y-56000000D03*
X72100000Y-56000000D03*
X70100000Y-54000000D03*
X72100000Y-54000000D03*
X70100000Y-52000000D03*
X72100000Y-52000000D03*
X70100000Y-50000000D03*
X72100000Y-50000000D03*
%TD*%
D24*
%TO.C,C5*%
X74700000Y-82100000D03*
X74700000Y-80200000D03*
%TD*%
D28*
%TO.C,C13*%
X73400000Y-94400000D03*
X73400000Y-96300000D03*
%TD*%
D23*
%TO.C,R19*%
X76600000Y-85525000D03*
X76600000Y-83700000D03*
%TD*%
D25*
%TO.C,R12*%
X68400000Y-90200000D03*
X68400000Y-92025000D03*
%TD*%
D29*
%TO.C,J1*%
X111800000Y-65900000D03*
D30*
X113800000Y-65900000D03*
X111800000Y-63900000D03*
X113800000Y-63900000D03*
X111800000Y-61900000D03*
X113800000Y-61900000D03*
X111800000Y-59900000D03*
X113800000Y-59900000D03*
X111800000Y-57900000D03*
X113800000Y-57900000D03*
X111800000Y-55900000D03*
X113800000Y-55900000D03*
X111800000Y-53900000D03*
X113800000Y-53900000D03*
X111800000Y-51900000D03*
X113800000Y-51900000D03*
X111800000Y-49900000D03*
X113800000Y-49900000D03*
%TD*%
D29*
%TO.C,J9*%
X27500000Y-66000000D03*
D30*
X29500000Y-66000000D03*
X27500000Y-64000000D03*
X29500000Y-64000000D03*
X27500000Y-62000000D03*
X29500000Y-62000000D03*
X27500000Y-60000000D03*
X29500000Y-60000000D03*
X27500000Y-58000000D03*
X29500000Y-58000000D03*
X27500000Y-56000000D03*
X29500000Y-56000000D03*
X27500000Y-54000000D03*
X29500000Y-54000000D03*
X27500000Y-52000000D03*
X29500000Y-52000000D03*
X27500000Y-50000000D03*
X29500000Y-50000000D03*
%TD*%
D24*
%TO.C,C25*%
X85550000Y-95600000D03*
X85550000Y-93700000D03*
%TD*%
D36*
%TO.C,R21*%
X29757500Y-108000000D03*
X31582500Y-108000000D03*
%TD*%
D23*
%TO.C,R17*%
X72200000Y-83200000D03*
X72200000Y-81375000D03*
%TD*%
D37*
%TO.C,U2*%
X93100000Y-86650000D03*
X93100000Y-88950000D03*
D38*
X86800000Y-88950000D03*
D37*
X93100000Y-91250000D03*
%TD*%
D39*
%TO.C,D4*%
X59000000Y-108400000D03*
X56025000Y-108400000D03*
%TD*%
D29*
%TO.C,J3*%
X91400000Y-66000000D03*
D30*
X93400000Y-66000000D03*
X91400000Y-64000000D03*
X93400000Y-64000000D03*
X91400000Y-62000000D03*
X93400000Y-62000000D03*
X91400000Y-60000000D03*
X93400000Y-60000000D03*
X91400000Y-58000000D03*
X93400000Y-58000000D03*
X91400000Y-56000000D03*
X93400000Y-56000000D03*
X91400000Y-54000000D03*
X93400000Y-54000000D03*
X91400000Y-52000000D03*
X93400000Y-52000000D03*
X91400000Y-50000000D03*
X93400000Y-50000000D03*
%TD*%
D40*
%TO.C,IC1*%
X73550000Y-91150000D03*
X73050000Y-91150000D03*
X72550000Y-91150000D03*
X72050000Y-91150000D03*
X71550000Y-91150000D03*
X71050000Y-91150000D03*
D41*
X70350000Y-90450000D03*
X70350000Y-89950000D03*
X70350000Y-89450000D03*
X70350000Y-88950000D03*
X70350000Y-88450000D03*
X70350000Y-87950000D03*
D40*
X71050000Y-87250000D03*
X71550000Y-87250000D03*
X72050000Y-87250000D03*
X72550000Y-87250000D03*
X73050000Y-87250000D03*
X73550000Y-87250000D03*
D41*
X74250000Y-87950000D03*
X74250000Y-88450000D03*
X74250000Y-88950000D03*
X74250000Y-89450000D03*
X74250000Y-89950000D03*
X74250000Y-90450000D03*
D42*
X72300000Y-89200000D03*
%TD*%
D43*
%TO.C,C14*%
X75600000Y-95175000D03*
X75600000Y-98300000D03*
%TD*%
D36*
%TO.C,R4*%
X80050000Y-99700000D03*
X81875000Y-99700000D03*
%TD*%
D44*
X120900000Y-117900000D03*
X29100000Y-117900000D03*
M02*
