M48
; DRILL file {KiCad 9.0.4} date 2025-10-14T22:23:38+0200
; FORMAT={-:-/ absolute / inch / decimal}
; #@! TF.CreationDate,2025-10-14T22:23:38+02:00
; #@! TF.GenerationSoftware,Kicad,Pcbnew,9.0.4
; #@! TF.FileFunction,Plated,1,2,PTH
FMAT,2
INCH
; #@! TA.AperFunction,Plated,PTH,ViaDrill
T1C0.0118
; #@! TA.AperFunction,Plated,PTH,ComponentDrill
T2C0.0236
; #@! TA.AperFunction,Plated,PTH,ComponentDrill
T3C0.0315
; #@! TA.AperFunction,Plated,PTH,ComponentDrill
T4C0.0354
; #@! TA.AperFunction,Plated,PTH,ComponentDrill
T5C0.0362
; #@! TA.AperFunction,Plated,PTH,ComponentDrill
T6C0.0394
; #@! TA.AperFunction,Plated,PTH,ComponentDrill
T7C0.0433
; #@! TA.AperFunction,Plated,PTH,ComponentDrill
T8C0.0531
; #@! TA.AperFunction,Plated,PTH,ViaDrill
T9C0.1260
%
G90
G05
T1
X1.0472Y-4.6417
X1.0748Y-4.7087
X1.0787Y-4.5709
X1.122Y-3.5335
X1.1378Y-4.1654
X1.1457Y-4.5433
X1.1457Y-4.7402
X1.1716Y-4.252
X1.1732Y-1.8622
X1.2126Y-4.7126
X1.2165Y-4.5709
X1.2441Y-4.6417
X1.2927Y-3.2946
X1.2933Y-3.1136
X1.2933Y-3.1451
X1.2933Y-3.1766
X1.2933Y-3.2081
X1.2933Y-3.2404
X1.2992Y-2.9783
X1.2992Y-3.0098
X1.2992Y-3.0413
X1.2992Y-3.0807
X1.3091Y-3.3268
X1.3091Y-3.5335
X1.3091Y-3.2677
X1.3189Y-2.628
X1.3189Y-2.9331
X1.3386Y-3.8583
X1.3543Y-2.3346
X1.3583Y-2.1063
X1.3583Y-3.7992
X1.3583Y-4.0
X1.378Y-3.6713
X1.378Y-3.7697
X1.378Y-3.8906
X1.4134Y-3.9252
X1.4331Y-3.9252
X1.4656Y-3.0108
X1.4665Y-3.0512
X1.4724Y-4.0197
X1.4724Y-4.6181
X1.4862Y-3.3366
X1.4882Y-2.7559
X1.4987Y-3.2604
X1.5Y-3.7953
X1.5056Y-3.1811
X1.5059Y-3.5335
X1.5433Y-3.0631
X1.5443Y-3.8376
X1.5591Y-4.064
X1.5709Y-3.2283
X1.5945Y-3.7795
X1.6063Y-3.815
X1.6299Y-2.9685
X1.6535Y-2.5295
X1.6575Y-2.3937
X1.6575Y-2.5748
X1.6732Y-2.8228
X1.6732Y-3.5335
X1.6772Y-2.2126
X1.7402Y-4.6102
X1.7441Y-2.7244
X1.7598Y-1.9882
X1.7598Y-2.063
X1.7874Y-2.1772
X1.7913Y-4.3504
X1.8012Y-2.5
X1.8031Y-2.4055
X1.815Y-1.9606
X1.8543Y-3.248
X1.8701Y-3.1024
X1.8701Y-3.5335
X1.8926Y-2.7963
X1.9094Y-4.2677
X1.9173Y-4.1457
X1.9193Y-2.7795
X1.9606Y-2.9291
X1.9606Y-3.248
X1.9724Y-3.1024
X1.9961Y-4.6102
X2.0315Y-2.8819
X2.0374Y-3.5315
X2.0669Y-3.2441
X2.0669Y-4.1496
X2.0709Y-3.1063
X2.1693Y-3.8071
X2.1801Y-2.5295
X2.2283Y-3.5236
X2.2441Y-2.1693
X2.248Y-2.1142
X2.248Y-4.6063
X2.2992Y-4.4291
X2.311Y-2.689
X2.3661Y-4.2756
X2.374Y-3.689
X2.3957Y-4.2756
X2.4055Y-2.7953
X2.4961Y-2.9488
X2.4961Y-3.7992
X2.5039Y-3.9803
X2.5157Y-4.6024
X2.5276Y-3.1614
X2.5394Y-3.3386
X2.6122Y-2.0059
X2.6181Y-2.7756
X2.6211Y-3.4685
X2.6614Y-1.9173
X2.6693Y-3.1378
X2.7283Y-1.878
X2.7323Y-2.9291
X2.7559Y-3.9567
X2.7579Y-3.6004
X2.7756Y-4.6063
X2.7815Y-3.6299
X2.7874Y-3.1063
X2.8097Y-3.6496
X2.8248Y-3.5335
X2.8346Y-2.689
X2.8465Y-3.5118
X2.874Y-3.5335
X2.874Y-3.9803
X2.8858Y-3.3248
X2.8957Y-3.6299
X2.935Y-3.6299
X2.9409Y-3.1339
X3.0118Y-3.8976
X3.0197Y-3.5512
X3.0354Y-4.5984
X3.0394Y-3.2008
X3.0433Y-1.811
X3.0945Y-3.2953
X3.0984Y-1.9843
X3.1024Y-1.9134
X3.1181Y-2.7598
X3.1201Y-2.0965
X3.1417Y-3.6594
X3.1575Y-1.8031
X3.1614Y-2.685
X3.1614Y-3.4724
X3.185Y-3.689
X3.1909Y-3.7874
X3.2087Y-4.1339
X3.248Y-1.8858
X3.2913Y-2.811
X3.2913Y-2.9252
X3.2992Y-3.9331
X3.2992Y-4.5945
X3.3583Y-3.8819
X3.3602Y-3.7874
X3.3858Y-3.7756
X3.4094Y-4.0354
X3.4232Y-3.6161
X3.4252Y-3.311
X3.4409Y-3.6339
X3.4764Y-3.0945
X3.5472Y-3.4291
X3.5551Y-3.2441
X3.5669Y-4.5906
X3.5866Y-2.7441
X3.5945Y-1.8622
X3.5945Y-3.9016
X3.6063Y-2.9488
X3.6299Y-1.811
X3.6535Y-3.3268
X3.6614Y-3.0669
X3.6654Y-4.3228
X3.8031Y-3.685
X3.8268Y-4.5906
X3.9606Y-4.1732
X3.9646Y-3.3465
X3.9685Y-3.1457
X3.9882Y-1.878
X4.0472Y-1.815
X4.1024Y-4.5945
X4.124Y-3.0118
X4.2323Y-2.2343
X4.2323Y-2.7854
X4.2421Y-2.5098
X4.283Y-1.9193
X4.374Y-4.5866
X4.4409Y-1.9016
X4.5276Y-1.7953
X4.5768Y-2.1457
X4.5768Y-2.3622
X4.689Y-4.7087
X4.6929Y-4.5709
X4.7598Y-4.5433
X4.7598Y-4.7402
X4.7638Y-2.9843
X4.7638Y-3.9272
X4.7638Y-4.2362
X4.7736Y-3.5748
X4.7835Y-3.248
X4.813Y-1.7126
X4.8228Y-2.6378
X4.8268Y-4.7126
X4.8307Y-4.5709
X4.8583Y-4.6417
T3
X1.0827Y-1.9685
X1.0827Y-2.0472
X1.0827Y-2.126
X1.0827Y-2.2047
X1.0827Y-2.2835
X1.0827Y-2.3622
X1.0827Y-2.4409
X1.0827Y-2.5197
X1.0827Y-2.5984
X1.1614Y-1.9685
X1.1614Y-2.0472
X1.1614Y-2.126
X1.1614Y-2.2047
X1.1614Y-2.2835
X1.1614Y-2.3622
X1.1614Y-2.4409
X1.1614Y-2.5197
X1.1614Y-2.5984
X1.4921Y-1.9685
X1.4921Y-2.0472
X1.4921Y-2.126
X1.4921Y-2.2047
X1.4921Y-2.2835
X1.4921Y-2.3622
X1.4921Y-2.4409
X1.4921Y-2.5197
X1.4921Y-2.5984
X1.5709Y-1.9685
X1.5709Y-2.0472
X1.5709Y-2.126
X1.5709Y-2.2047
X1.5709Y-2.2835
X1.5709Y-2.3622
X1.5709Y-2.4409
X1.5709Y-2.5197
X1.5709Y-2.5984
X1.9134Y-1.9685
X1.9134Y-2.0472
X1.9134Y-2.126
X1.9134Y-2.2047
X1.9134Y-2.2835
X1.9134Y-2.3622
X1.9134Y-2.4409
X1.9134Y-2.5197
X1.9134Y-2.5984
X1.9921Y-1.9685
X1.9921Y-2.0472
X1.9921Y-2.126
X1.9921Y-2.2047
X1.9921Y-2.2835
X1.9921Y-2.3622
X1.9921Y-2.4409
X1.9921Y-2.5197
X1.9921Y-2.5984
X2.3346Y-1.9685
X2.3346Y-2.0472
X2.3346Y-2.126
X2.3346Y-2.2047
X2.3346Y-2.2835
X2.3346Y-2.3622
X2.3346Y-2.4409
X2.3346Y-2.5197
X2.3346Y-2.5984
X2.4134Y-1.9685
X2.4134Y-2.0472
X2.4134Y-2.126
X2.4134Y-2.2047
X2.4134Y-2.2835
X2.4134Y-2.3622
X2.4134Y-2.4409
X2.4134Y-2.5197
X2.4134Y-2.5984
X2.7598Y-1.9685
X2.7598Y-2.0472
X2.7598Y-2.126
X2.7598Y-2.2047
X2.7598Y-2.2835
X2.7598Y-2.3622
X2.7598Y-2.4409
X2.7598Y-2.5197
X2.7598Y-2.5984
X2.8386Y-1.9685
X2.8386Y-2.0472
X2.8386Y-2.126
X2.8386Y-2.2047
X2.8386Y-2.2835
X2.8386Y-2.3622
X2.8386Y-2.4409
X2.8386Y-2.5197
X2.8386Y-2.5984
X3.185Y-1.9685
X3.185Y-2.0472
X3.185Y-2.126
X3.185Y-2.2047
X3.185Y-2.2835
X3.185Y-2.3622
X3.185Y-2.4409
X3.185Y-2.5197
X3.185Y-2.5984
X3.2638Y-1.9685
X3.2638Y-2.0472
X3.2638Y-2.126
X3.2638Y-2.2047
X3.2638Y-2.2835
X3.2638Y-2.3622
X3.2638Y-2.4409
X3.2638Y-2.5197
X3.2638Y-2.5984
X3.5984Y-1.9685
X3.5984Y-2.0472
X3.5984Y-2.126
X3.5984Y-2.2047
X3.5984Y-2.2835
X3.5984Y-2.3622
X3.5984Y-2.4409
X3.5984Y-2.5197
X3.5984Y-2.5984
X3.6772Y-1.9685
X3.6772Y-2.0472
X3.6772Y-2.126
X3.6772Y-2.2047
X3.6772Y-2.2835
X3.6772Y-2.3622
X3.6772Y-2.4409
X3.6772Y-2.5197
X3.6772Y-2.5984
X4.0Y-1.9685
X4.0Y-2.0472
X4.0Y-2.126
X4.0Y-2.2047
X4.0Y-2.2835
X4.0Y-2.3622
X4.0Y-2.4409
X4.0Y-2.5197
X4.0Y-2.5984
X4.0787Y-1.9685
X4.0787Y-2.0472
X4.0787Y-2.126
X4.0787Y-2.2047
X4.0787Y-2.2835
X4.0787Y-2.3622
X4.0787Y-2.4409
X4.0787Y-2.5197
X4.0787Y-2.5984
X4.4016Y-1.9646
X4.4016Y-2.0433
X4.4016Y-2.122
X4.4016Y-2.2008
X4.4016Y-2.2795
X4.4016Y-2.3583
X4.4016Y-2.437
X4.4016Y-2.5157
X4.4016Y-2.5945
X4.4803Y-1.9646
X4.4803Y-2.0433
X4.4803Y-2.122
X4.4803Y-2.2008
X4.4803Y-2.2795
X4.4803Y-2.3583
X4.4803Y-2.437
X4.4803Y-2.5157
X4.4803Y-2.5945
T5
X1.4815Y-4.3136
X1.5602Y-4.3136
X1.639Y-4.3136
X1.7177Y-4.3136
T6
X1.1016Y-1.7323
X1.2016Y-1.7323
X1.3016Y-1.7323
X1.4016Y-1.7323
X1.5016Y-1.7323
X1.6016Y-1.7323
X1.7016Y-1.7323
X1.8016Y-1.7323
X1.9016Y-1.7323
X2.0016Y-1.7323
X2.1016Y-1.7323
X2.2016Y-1.7323
X2.3016Y-1.7323
X2.4016Y-1.7323
X2.5016Y-1.7323
X2.6016Y-1.7323
X2.6614Y-4.1378
X2.7016Y-1.7323
X2.7614Y-4.1378
X2.8016Y-1.7323
X2.8614Y-4.1378
X2.9016Y-1.7323
X2.9614Y-4.1378
X3.0016Y-1.7323
X3.0614Y-4.1378
X3.1016Y-1.7323
X3.2016Y-1.7323
X3.3016Y-1.7323
X3.4016Y-1.7323
X3.5016Y-1.7323
X3.6016Y-1.7323
X3.7016Y-1.7323
X3.8016Y-1.7323
X3.9016Y-1.7323
X4.0016Y-1.7323
X4.1016Y-1.7323
X4.2016Y-1.7323
X4.3016Y-1.7323
X4.4016Y-1.7323
X4.5016Y-1.7323
X4.5472Y-3.5236
X4.5472Y-3.6236
X4.6016Y-1.7323
X4.6472Y-3.5236
X4.6472Y-3.6236
X4.7016Y-1.7323
T7
X4.225Y-3.5278
X4.325Y-3.5278
X4.425Y-3.5278
T8
X1.4528Y-4.2059
X1.4528Y-4.4213
X1.7283Y-4.2059
X1.7283Y-4.4213
T9
X1.1457Y-4.6417
X4.7598Y-4.6417
T2
G00X1.1197Y-3.6513
M15
G01X1.0882Y-3.6513
M16
G05
G00X1.1197Y-3.9915
M15
G01X1.0882Y-3.9915
M16
G05
G00X1.2902Y-3.6513
M15
G01X1.2469Y-3.6513
M16
G05
G00X1.2902Y-3.9915
M15
G01X1.2469Y-3.9915
M16
G05
T4
G00X1.1394Y-2.8642
M15
G01X1.1079Y-2.8642
M16
G05
G00X1.1394Y-3.435
M15
G01X1.1079Y-3.435
M16
G05
G00X1.3937Y-2.8642
M15
G01X1.3228Y-2.8642
M16
G05
G00X1.3937Y-3.435
M15
G01X1.3228Y-3.435
M16
G05
M30
