%TF.GenerationSoftware,KiCad,Pcbnew,9.0.4*%
%TF.CreationDate,2025-10-14T22:23:38+02:00*%
%TF.ProjectId,Antminer_hat_PCB,416e746d-696e-4657-925f-6861745f5043,rev?*%
%TF.SameCoordinates,Original*%
%TF.FileFunction,Legend,Top*%
%TF.FilePolarity,Positive*%
%FSLAX46Y46*%
G04 Gerber Fmt 4.6, Leading zero omitted, Abs format (unit mm)*
G04 Created by KiCad (PCBNEW 9.0.4) date 2025-10-14 22:23:38*
%MOMM*%
%LPD*%
G01*
G04 APERTURE LIST*
G04 Aperture macros list*
%AMRoundRect*
0 Rectangle with rounded corners*
0 $1 Rounding radius*
0 $2 $3 $4 $5 $6 $7 $8 $9 X,Y pos of 4 corners*
0 Add a 4 corners polygon primitive as box body*
4,1,4,$2,$3,$4,$5,$6,$7,$8,$9,$2,$3,0*
0 Add four circle primitives for the rounded corners*
1,1,$1+$1,$2,$3*
1,1,$1+$1,$4,$5*
1,1,$1+$1,$6,$7*
1,1,$1+$1,$8,$9*
0 Add four rect primitives between the rounded corners*
20,1,$1+$1,$2,$3,$4,$5,0*
20,1,$1+$1,$4,$5,$6,$7,0*
20,1,$1+$1,$6,$7,$8,$9,0*
20,1,$1+$1,$8,$9,$2,$3,0*%
G04 Aperture macros list end*
%ADD10C,0.100000*%
%ADD11C,0.158750*%
%ADD12C,0.150000*%
%ADD13C,0.254000*%
%ADD14C,0.120000*%
%ADD15C,0.200000*%
%ADD16RoundRect,0.250001X-1.074999X0.462499X-1.074999X-0.462499X1.074999X-0.462499X1.074999X0.462499X0*%
%ADD17C,0.650000*%
%ADD18RoundRect,0.150000X-0.425000X0.150000X-0.425000X-0.150000X0.425000X-0.150000X0.425000X0.150000X0*%
%ADD19RoundRect,0.075000X-0.500000X0.075000X-0.500000X-0.075000X0.500000X-0.075000X0.500000X0.075000X0*%
%ADD20O,2.100000X1.000000*%
%ADD21O,1.800000X1.000000*%
%ADD22R,1.700000X1.700000*%
%ADD23C,1.700000*%
%ADD24C,1.420000*%
%ADD25C,2.050000*%
%ADD26C,1.500000*%
%ADD27R,2.600000X0.300000*%
%ADD28O,3.300000X1.500000*%
%ADD29O,2.300000X1.500000*%
%ADD30R,0.675000X0.200000*%
%ADD31R,1.550000X0.400000*%
%ADD32RoundRect,0.250000X-0.325000X-0.650000X0.325000X-0.650000X0.325000X0.650000X-0.325000X0.650000X0*%
%ADD33C,3.500000*%
%ADD34R,1.905000X2.000000*%
%ADD35O,1.905000X2.000000*%
%ADD36RoundRect,0.250000X0.325000X0.650000X-0.325000X0.650000X-0.325000X-0.650000X0.325000X-0.650000X0*%
%ADD37R,1.350000X1.350000*%
%ADD38C,1.350000*%
%ADD39C,7.000000*%
G04 APERTURE END LIST*
D10*
X79093255Y-48469925D02*
X79093255Y-48946115D01*
X79093255Y-48946115D02*
X78293255Y-48946115D01*
X78293255Y-48231829D02*
X78293255Y-47565163D01*
X78293255Y-47565163D02*
X79093255Y-47993734D01*
X79093255Y-47184210D02*
X78293255Y-47184210D01*
X78293255Y-47184210D02*
X79093255Y-46612782D01*
X79093255Y-46612782D02*
X78293255Y-46612782D01*
X81669165Y-48469925D02*
X81669165Y-48946115D01*
X81669165Y-48946115D02*
X80869165Y-48946115D01*
X80869165Y-48231829D02*
X80869165Y-47565163D01*
X80869165Y-47565163D02*
X81669165Y-47993734D01*
X81669165Y-47184210D02*
X80869165Y-47184210D01*
X80869165Y-47184210D02*
X80869165Y-46803258D01*
X80869165Y-46803258D02*
X80907260Y-46708020D01*
X80907260Y-46708020D02*
X80945355Y-46660401D01*
X80945355Y-46660401D02*
X81021546Y-46612782D01*
X81021546Y-46612782D02*
X81135831Y-46612782D01*
X81135831Y-46612782D02*
X81212022Y-46660401D01*
X81212022Y-46660401D02*
X81250117Y-46708020D01*
X81250117Y-46708020D02*
X81288212Y-46803258D01*
X81288212Y-46803258D02*
X81288212Y-47184210D01*
X83483170Y-48422306D02*
X83445075Y-48517544D01*
X83445075Y-48517544D02*
X83445075Y-48660401D01*
X83445075Y-48660401D02*
X83483170Y-48803258D01*
X83483170Y-48803258D02*
X83559360Y-48898496D01*
X83559360Y-48898496D02*
X83635551Y-48946115D01*
X83635551Y-48946115D02*
X83787932Y-48993734D01*
X83787932Y-48993734D02*
X83902218Y-48993734D01*
X83902218Y-48993734D02*
X84054599Y-48946115D01*
X84054599Y-48946115D02*
X84130789Y-48898496D01*
X84130789Y-48898496D02*
X84206980Y-48803258D01*
X84206980Y-48803258D02*
X84245075Y-48660401D01*
X84245075Y-48660401D02*
X84245075Y-48565163D01*
X84245075Y-48565163D02*
X84206980Y-48422306D01*
X84206980Y-48422306D02*
X84168884Y-48374687D01*
X84168884Y-48374687D02*
X83902218Y-48374687D01*
X83902218Y-48374687D02*
X83902218Y-48565163D01*
X84245075Y-47946115D02*
X83445075Y-47946115D01*
X83445075Y-47946115D02*
X84245075Y-47374687D01*
X84245075Y-47374687D02*
X83445075Y-47374687D01*
X84245075Y-46898496D02*
X83445075Y-46898496D01*
X83445075Y-46898496D02*
X83445075Y-46660401D01*
X83445075Y-46660401D02*
X83483170Y-46517544D01*
X83483170Y-46517544D02*
X83559360Y-46422306D01*
X83559360Y-46422306D02*
X83635551Y-46374687D01*
X83635551Y-46374687D02*
X83787932Y-46327068D01*
X83787932Y-46327068D02*
X83902218Y-46327068D01*
X83902218Y-46327068D02*
X84054599Y-46374687D01*
X84054599Y-46374687D02*
X84130789Y-46422306D01*
X84130789Y-46422306D02*
X84206980Y-46517544D01*
X84206980Y-46517544D02*
X84245075Y-46660401D01*
X84245075Y-46660401D02*
X84245075Y-46898496D01*
X86820985Y-48469925D02*
X86820985Y-48946115D01*
X86820985Y-48946115D02*
X86020985Y-48946115D01*
X86020985Y-47708020D02*
X86020985Y-47898496D01*
X86020985Y-47898496D02*
X86059080Y-47993734D01*
X86059080Y-47993734D02*
X86097175Y-48041353D01*
X86097175Y-48041353D02*
X86211461Y-48136591D01*
X86211461Y-48136591D02*
X86363842Y-48184210D01*
X86363842Y-48184210D02*
X86668604Y-48184210D01*
X86668604Y-48184210D02*
X86744794Y-48136591D01*
X86744794Y-48136591D02*
X86782890Y-48088972D01*
X86782890Y-48088972D02*
X86820985Y-47993734D01*
X86820985Y-47993734D02*
X86820985Y-47803258D01*
X86820985Y-47803258D02*
X86782890Y-47708020D01*
X86782890Y-47708020D02*
X86744794Y-47660401D01*
X86744794Y-47660401D02*
X86668604Y-47612782D01*
X86668604Y-47612782D02*
X86478128Y-47612782D01*
X86478128Y-47612782D02*
X86401937Y-47660401D01*
X86401937Y-47660401D02*
X86363842Y-47708020D01*
X86363842Y-47708020D02*
X86325747Y-47803258D01*
X86325747Y-47803258D02*
X86325747Y-47993734D01*
X86325747Y-47993734D02*
X86363842Y-48088972D01*
X86363842Y-48088972D02*
X86401937Y-48136591D01*
X86401937Y-48136591D02*
X86478128Y-48184210D01*
X86820985Y-47184210D02*
X86020985Y-47184210D01*
X86020985Y-47184210D02*
X86820985Y-46612782D01*
X86820985Y-46612782D02*
X86020985Y-46612782D01*
X89396895Y-48469925D02*
X89396895Y-48946115D01*
X89396895Y-48946115D02*
X88596895Y-48946115D01*
X88596895Y-47708020D02*
X88596895Y-47898496D01*
X88596895Y-47898496D02*
X88634990Y-47993734D01*
X88634990Y-47993734D02*
X88673085Y-48041353D01*
X88673085Y-48041353D02*
X88787371Y-48136591D01*
X88787371Y-48136591D02*
X88939752Y-48184210D01*
X88939752Y-48184210D02*
X89244514Y-48184210D01*
X89244514Y-48184210D02*
X89320704Y-48136591D01*
X89320704Y-48136591D02*
X89358800Y-48088972D01*
X89358800Y-48088972D02*
X89396895Y-47993734D01*
X89396895Y-47993734D02*
X89396895Y-47803258D01*
X89396895Y-47803258D02*
X89358800Y-47708020D01*
X89358800Y-47708020D02*
X89320704Y-47660401D01*
X89320704Y-47660401D02*
X89244514Y-47612782D01*
X89244514Y-47612782D02*
X89054038Y-47612782D01*
X89054038Y-47612782D02*
X88977847Y-47660401D01*
X88977847Y-47660401D02*
X88939752Y-47708020D01*
X88939752Y-47708020D02*
X88901657Y-47803258D01*
X88901657Y-47803258D02*
X88901657Y-47993734D01*
X88901657Y-47993734D02*
X88939752Y-48088972D01*
X88939752Y-48088972D02*
X88977847Y-48136591D01*
X88977847Y-48136591D02*
X89054038Y-48184210D01*
X89396895Y-47184210D02*
X88596895Y-47184210D01*
X88596895Y-47184210D02*
X88596895Y-46803258D01*
X88596895Y-46803258D02*
X88634990Y-46708020D01*
X88634990Y-46708020D02*
X88673085Y-46660401D01*
X88673085Y-46660401D02*
X88749276Y-46612782D01*
X88749276Y-46612782D02*
X88863561Y-46612782D01*
X88863561Y-46612782D02*
X88939752Y-46660401D01*
X88939752Y-46660401D02*
X88977847Y-46708020D01*
X88977847Y-46708020D02*
X89015942Y-46803258D01*
X89015942Y-46803258D02*
X89015942Y-47184210D01*
X121972419Y-79710401D02*
X122686704Y-79710401D01*
X122686704Y-79710401D02*
X122829561Y-79758020D01*
X122829561Y-79758020D02*
X122924800Y-79853258D01*
X122924800Y-79853258D02*
X122972419Y-79996115D01*
X122972419Y-79996115D02*
X122972419Y-80091353D01*
X122972419Y-78758020D02*
X122972419Y-79234210D01*
X122972419Y-79234210D02*
X121972419Y-79234210D01*
X122877180Y-77853258D02*
X122924800Y-77900877D01*
X122924800Y-77900877D02*
X122972419Y-78043734D01*
X122972419Y-78043734D02*
X122972419Y-78138972D01*
X122972419Y-78138972D02*
X122924800Y-78281829D01*
X122924800Y-78281829D02*
X122829561Y-78377067D01*
X122829561Y-78377067D02*
X122734323Y-78424686D01*
X122734323Y-78424686D02*
X122543847Y-78472305D01*
X122543847Y-78472305D02*
X122400990Y-78472305D01*
X122400990Y-78472305D02*
X122210514Y-78424686D01*
X122210514Y-78424686D02*
X122115276Y-78377067D01*
X122115276Y-78377067D02*
X122020038Y-78281829D01*
X122020038Y-78281829D02*
X121972419Y-78138972D01*
X121972419Y-78138972D02*
X121972419Y-78043734D01*
X121972419Y-78043734D02*
X122020038Y-77900877D01*
X122020038Y-77900877D02*
X122067657Y-77853258D01*
X121972419Y-77138972D02*
X122686704Y-77138972D01*
X122686704Y-77138972D02*
X122829561Y-77186591D01*
X122829561Y-77186591D02*
X122924800Y-77281829D01*
X122924800Y-77281829D02*
X122972419Y-77424686D01*
X122972419Y-77424686D02*
X122972419Y-77519924D01*
X122972419Y-76186591D02*
X122972419Y-76662781D01*
X122972419Y-76662781D02*
X121972419Y-76662781D01*
X122877180Y-75281829D02*
X122924800Y-75329448D01*
X122924800Y-75329448D02*
X122972419Y-75472305D01*
X122972419Y-75472305D02*
X122972419Y-75567543D01*
X122972419Y-75567543D02*
X122924800Y-75710400D01*
X122924800Y-75710400D02*
X122829561Y-75805638D01*
X122829561Y-75805638D02*
X122734323Y-75853257D01*
X122734323Y-75853257D02*
X122543847Y-75900876D01*
X122543847Y-75900876D02*
X122400990Y-75900876D01*
X122400990Y-75900876D02*
X122210514Y-75853257D01*
X122210514Y-75853257D02*
X122115276Y-75805638D01*
X122115276Y-75805638D02*
X122020038Y-75710400D01*
X122020038Y-75710400D02*
X121972419Y-75567543D01*
X121972419Y-75567543D02*
X121972419Y-75472305D01*
X121972419Y-75472305D02*
X122020038Y-75329448D01*
X122020038Y-75329448D02*
X122067657Y-75281829D01*
X121972419Y-74567543D02*
X122686704Y-74567543D01*
X122686704Y-74567543D02*
X122829561Y-74615162D01*
X122829561Y-74615162D02*
X122924800Y-74710400D01*
X122924800Y-74710400D02*
X122972419Y-74853257D01*
X122972419Y-74853257D02*
X122972419Y-74948495D01*
X122972419Y-73615162D02*
X122972419Y-74091352D01*
X122972419Y-74091352D02*
X121972419Y-74091352D01*
X122877180Y-72710400D02*
X122924800Y-72758019D01*
X122924800Y-72758019D02*
X122972419Y-72900876D01*
X122972419Y-72900876D02*
X122972419Y-72996114D01*
X122972419Y-72996114D02*
X122924800Y-73138971D01*
X122924800Y-73138971D02*
X122829561Y-73234209D01*
X122829561Y-73234209D02*
X122734323Y-73281828D01*
X122734323Y-73281828D02*
X122543847Y-73329447D01*
X122543847Y-73329447D02*
X122400990Y-73329447D01*
X122400990Y-73329447D02*
X122210514Y-73281828D01*
X122210514Y-73281828D02*
X122115276Y-73234209D01*
X122115276Y-73234209D02*
X122020038Y-73138971D01*
X122020038Y-73138971D02*
X121972419Y-72996114D01*
X121972419Y-72996114D02*
X121972419Y-72900876D01*
X121972419Y-72900876D02*
X122020038Y-72758019D01*
X122020038Y-72758019D02*
X122067657Y-72710400D01*
X121972419Y-71996114D02*
X122686704Y-71996114D01*
X122686704Y-71996114D02*
X122829561Y-72043733D01*
X122829561Y-72043733D02*
X122924800Y-72138971D01*
X122924800Y-72138971D02*
X122972419Y-72281828D01*
X122972419Y-72281828D02*
X122972419Y-72377066D01*
X122972419Y-71043733D02*
X122972419Y-71519923D01*
X122972419Y-71519923D02*
X121972419Y-71519923D01*
X122877180Y-70138971D02*
X122924800Y-70186590D01*
X122924800Y-70186590D02*
X122972419Y-70329447D01*
X122972419Y-70329447D02*
X122972419Y-70424685D01*
X122972419Y-70424685D02*
X122924800Y-70567542D01*
X122924800Y-70567542D02*
X122829561Y-70662780D01*
X122829561Y-70662780D02*
X122734323Y-70710399D01*
X122734323Y-70710399D02*
X122543847Y-70758018D01*
X122543847Y-70758018D02*
X122400990Y-70758018D01*
X122400990Y-70758018D02*
X122210514Y-70710399D01*
X122210514Y-70710399D02*
X122115276Y-70662780D01*
X122115276Y-70662780D02*
X122020038Y-70567542D01*
X122020038Y-70567542D02*
X121972419Y-70424685D01*
X121972419Y-70424685D02*
X121972419Y-70329447D01*
X121972419Y-70329447D02*
X122020038Y-70186590D01*
X122020038Y-70186590D02*
X122067657Y-70138971D01*
X53043255Y-49041353D02*
X53043255Y-48422306D01*
X53043255Y-48422306D02*
X53348017Y-48755639D01*
X53348017Y-48755639D02*
X53348017Y-48612782D01*
X53348017Y-48612782D02*
X53386112Y-48517544D01*
X53386112Y-48517544D02*
X53424207Y-48469925D01*
X53424207Y-48469925D02*
X53500398Y-48422306D01*
X53500398Y-48422306D02*
X53690874Y-48422306D01*
X53690874Y-48422306D02*
X53767064Y-48469925D01*
X53767064Y-48469925D02*
X53805160Y-48517544D01*
X53805160Y-48517544D02*
X53843255Y-48612782D01*
X53843255Y-48612782D02*
X53843255Y-48898496D01*
X53843255Y-48898496D02*
X53805160Y-48993734D01*
X53805160Y-48993734D02*
X53767064Y-49041353D01*
X53043255Y-48136591D02*
X53843255Y-47803258D01*
X53843255Y-47803258D02*
X53043255Y-47469925D01*
X53043255Y-47231829D02*
X53043255Y-46612782D01*
X53043255Y-46612782D02*
X53348017Y-46946115D01*
X53348017Y-46946115D02*
X53348017Y-46803258D01*
X53348017Y-46803258D02*
X53386112Y-46708020D01*
X53386112Y-46708020D02*
X53424207Y-46660401D01*
X53424207Y-46660401D02*
X53500398Y-46612782D01*
X53500398Y-46612782D02*
X53690874Y-46612782D01*
X53690874Y-46612782D02*
X53767064Y-46660401D01*
X53767064Y-46660401D02*
X53805160Y-46708020D01*
X53805160Y-46708020D02*
X53843255Y-46803258D01*
X53843255Y-46803258D02*
X53843255Y-47088972D01*
X53843255Y-47088972D02*
X53805160Y-47184210D01*
X53805160Y-47184210D02*
X53767064Y-47231829D01*
X55657260Y-48422306D02*
X55619165Y-48517544D01*
X55619165Y-48517544D02*
X55619165Y-48660401D01*
X55619165Y-48660401D02*
X55657260Y-48803258D01*
X55657260Y-48803258D02*
X55733450Y-48898496D01*
X55733450Y-48898496D02*
X55809641Y-48946115D01*
X55809641Y-48946115D02*
X55962022Y-48993734D01*
X55962022Y-48993734D02*
X56076308Y-48993734D01*
X56076308Y-48993734D02*
X56228689Y-48946115D01*
X56228689Y-48946115D02*
X56304879Y-48898496D01*
X56304879Y-48898496D02*
X56381070Y-48803258D01*
X56381070Y-48803258D02*
X56419165Y-48660401D01*
X56419165Y-48660401D02*
X56419165Y-48565163D01*
X56419165Y-48565163D02*
X56381070Y-48422306D01*
X56381070Y-48422306D02*
X56342974Y-48374687D01*
X56342974Y-48374687D02*
X56076308Y-48374687D01*
X56076308Y-48374687D02*
X56076308Y-48565163D01*
X56419165Y-47946115D02*
X55619165Y-47946115D01*
X55619165Y-47946115D02*
X56419165Y-47374687D01*
X56419165Y-47374687D02*
X55619165Y-47374687D01*
X56419165Y-46898496D02*
X55619165Y-46898496D01*
X55619165Y-46898496D02*
X55619165Y-46660401D01*
X55619165Y-46660401D02*
X55657260Y-46517544D01*
X55657260Y-46517544D02*
X55733450Y-46422306D01*
X55733450Y-46422306D02*
X55809641Y-46374687D01*
X55809641Y-46374687D02*
X55962022Y-46327068D01*
X55962022Y-46327068D02*
X56076308Y-46327068D01*
X56076308Y-46327068D02*
X56228689Y-46374687D01*
X56228689Y-46374687D02*
X56304879Y-46422306D01*
X56304879Y-46422306D02*
X56381070Y-46517544D01*
X56381070Y-46517544D02*
X56419165Y-46660401D01*
X56419165Y-46660401D02*
X56419165Y-46898496D01*
X58233170Y-48422306D02*
X58195075Y-48517544D01*
X58195075Y-48517544D02*
X58195075Y-48660401D01*
X58195075Y-48660401D02*
X58233170Y-48803258D01*
X58233170Y-48803258D02*
X58309360Y-48898496D01*
X58309360Y-48898496D02*
X58385551Y-48946115D01*
X58385551Y-48946115D02*
X58537932Y-48993734D01*
X58537932Y-48993734D02*
X58652218Y-48993734D01*
X58652218Y-48993734D02*
X58804599Y-48946115D01*
X58804599Y-48946115D02*
X58880789Y-48898496D01*
X58880789Y-48898496D02*
X58956980Y-48803258D01*
X58956980Y-48803258D02*
X58995075Y-48660401D01*
X58995075Y-48660401D02*
X58995075Y-48565163D01*
X58995075Y-48565163D02*
X58956980Y-48422306D01*
X58956980Y-48422306D02*
X58918884Y-48374687D01*
X58918884Y-48374687D02*
X58652218Y-48374687D01*
X58652218Y-48374687D02*
X58652218Y-48565163D01*
X58995075Y-47946115D02*
X58195075Y-47946115D01*
X58195075Y-47946115D02*
X58995075Y-47374687D01*
X58995075Y-47374687D02*
X58195075Y-47374687D01*
X58995075Y-46898496D02*
X58195075Y-46898496D01*
X58195075Y-46898496D02*
X58195075Y-46660401D01*
X58195075Y-46660401D02*
X58233170Y-46517544D01*
X58233170Y-46517544D02*
X58309360Y-46422306D01*
X58309360Y-46422306D02*
X58385551Y-46374687D01*
X58385551Y-46374687D02*
X58537932Y-46327068D01*
X58537932Y-46327068D02*
X58652218Y-46327068D01*
X58652218Y-46327068D02*
X58804599Y-46374687D01*
X58804599Y-46374687D02*
X58880789Y-46422306D01*
X58880789Y-46422306D02*
X58956980Y-46517544D01*
X58956980Y-46517544D02*
X58995075Y-46660401D01*
X58995075Y-46660401D02*
X58995075Y-46898496D01*
X61570985Y-48469925D02*
X61570985Y-48946115D01*
X61570985Y-48946115D02*
X60770985Y-48946115D01*
X61570985Y-47612782D02*
X61570985Y-48184210D01*
X61570985Y-47898496D02*
X60770985Y-47898496D01*
X60770985Y-47898496D02*
X60885270Y-47993734D01*
X60885270Y-47993734D02*
X60961461Y-48088972D01*
X60961461Y-48088972D02*
X60999556Y-48184210D01*
X60770985Y-46993734D02*
X60770985Y-46898496D01*
X60770985Y-46898496D02*
X60809080Y-46803258D01*
X60809080Y-46803258D02*
X60847175Y-46755639D01*
X60847175Y-46755639D02*
X60923366Y-46708020D01*
X60923366Y-46708020D02*
X61075747Y-46660401D01*
X61075747Y-46660401D02*
X61266223Y-46660401D01*
X61266223Y-46660401D02*
X61418604Y-46708020D01*
X61418604Y-46708020D02*
X61494794Y-46755639D01*
X61494794Y-46755639D02*
X61532890Y-46803258D01*
X61532890Y-46803258D02*
X61570985Y-46898496D01*
X61570985Y-46898496D02*
X61570985Y-46993734D01*
X61570985Y-46993734D02*
X61532890Y-47088972D01*
X61532890Y-47088972D02*
X61494794Y-47136591D01*
X61494794Y-47136591D02*
X61418604Y-47184210D01*
X61418604Y-47184210D02*
X61266223Y-47231829D01*
X61266223Y-47231829D02*
X61075747Y-47231829D01*
X61075747Y-47231829D02*
X60923366Y-47184210D01*
X60923366Y-47184210D02*
X60847175Y-47136591D01*
X60847175Y-47136591D02*
X60809080Y-47088972D01*
X60809080Y-47088972D02*
X60770985Y-46993734D01*
X61570985Y-46231829D02*
X60770985Y-46231829D01*
X60770985Y-46231829D02*
X61570985Y-45660401D01*
X61570985Y-45660401D02*
X60770985Y-45660401D01*
X64146895Y-48469925D02*
X64146895Y-48946115D01*
X64146895Y-48946115D02*
X63346895Y-48946115D01*
X64146895Y-47612782D02*
X64146895Y-48184210D01*
X64146895Y-47898496D02*
X63346895Y-47898496D01*
X63346895Y-47898496D02*
X63461180Y-47993734D01*
X63461180Y-47993734D02*
X63537371Y-48088972D01*
X63537371Y-48088972D02*
X63575466Y-48184210D01*
X63346895Y-46993734D02*
X63346895Y-46898496D01*
X63346895Y-46898496D02*
X63384990Y-46803258D01*
X63384990Y-46803258D02*
X63423085Y-46755639D01*
X63423085Y-46755639D02*
X63499276Y-46708020D01*
X63499276Y-46708020D02*
X63651657Y-46660401D01*
X63651657Y-46660401D02*
X63842133Y-46660401D01*
X63842133Y-46660401D02*
X63994514Y-46708020D01*
X63994514Y-46708020D02*
X64070704Y-46755639D01*
X64070704Y-46755639D02*
X64108800Y-46803258D01*
X64108800Y-46803258D02*
X64146895Y-46898496D01*
X64146895Y-46898496D02*
X64146895Y-46993734D01*
X64146895Y-46993734D02*
X64108800Y-47088972D01*
X64108800Y-47088972D02*
X64070704Y-47136591D01*
X64070704Y-47136591D02*
X63994514Y-47184210D01*
X63994514Y-47184210D02*
X63842133Y-47231829D01*
X63842133Y-47231829D02*
X63651657Y-47231829D01*
X63651657Y-47231829D02*
X63499276Y-47184210D01*
X63499276Y-47184210D02*
X63423085Y-47136591D01*
X63423085Y-47136591D02*
X63384990Y-47088972D01*
X63384990Y-47088972D02*
X63346895Y-46993734D01*
X64146895Y-46231829D02*
X63346895Y-46231829D01*
X63346895Y-46231829D02*
X63346895Y-45850877D01*
X63346895Y-45850877D02*
X63384990Y-45755639D01*
X63384990Y-45755639D02*
X63423085Y-45708020D01*
X63423085Y-45708020D02*
X63499276Y-45660401D01*
X63499276Y-45660401D02*
X63613561Y-45660401D01*
X63613561Y-45660401D02*
X63689752Y-45708020D01*
X63689752Y-45708020D02*
X63727847Y-45755639D01*
X63727847Y-45755639D02*
X63765942Y-45850877D01*
X63765942Y-45850877D02*
X63765942Y-46231829D01*
D11*
X117669747Y-97294284D02*
X117609271Y-97415237D01*
X117609271Y-97415237D02*
X117609271Y-97596665D01*
X117609271Y-97596665D02*
X117669747Y-97778094D01*
X117669747Y-97778094D02*
X117790699Y-97899046D01*
X117790699Y-97899046D02*
X117911652Y-97959523D01*
X117911652Y-97959523D02*
X118153556Y-98019999D01*
X118153556Y-98019999D02*
X118334985Y-98019999D01*
X118334985Y-98019999D02*
X118576890Y-97959523D01*
X118576890Y-97959523D02*
X118697842Y-97899046D01*
X118697842Y-97899046D02*
X118818795Y-97778094D01*
X118818795Y-97778094D02*
X118879271Y-97596665D01*
X118879271Y-97596665D02*
X118879271Y-97475713D01*
X118879271Y-97475713D02*
X118818795Y-97294284D01*
X118818795Y-97294284D02*
X118758318Y-97233808D01*
X118758318Y-97233808D02*
X118334985Y-97233808D01*
X118334985Y-97233808D02*
X118334985Y-97475713D01*
X118879271Y-96689523D02*
X117609271Y-96689523D01*
X117609271Y-96689523D02*
X118879271Y-95963808D01*
X118879271Y-95963808D02*
X117609271Y-95963808D01*
X118879271Y-95359047D02*
X117609271Y-95359047D01*
X117609271Y-95359047D02*
X117609271Y-95056666D01*
X117609271Y-95056666D02*
X117669747Y-94875237D01*
X117669747Y-94875237D02*
X117790699Y-94754285D01*
X117790699Y-94754285D02*
X117911652Y-94693808D01*
X117911652Y-94693808D02*
X118153556Y-94633332D01*
X118153556Y-94633332D02*
X118334985Y-94633332D01*
X118334985Y-94633332D02*
X118576890Y-94693808D01*
X118576890Y-94693808D02*
X118697842Y-94754285D01*
X118697842Y-94754285D02*
X118818795Y-94875237D01*
X118818795Y-94875237D02*
X118879271Y-95056666D01*
X118879271Y-95056666D02*
X118879271Y-95359047D01*
X118395461Y-87315714D02*
X118395461Y-86348095D01*
X118879271Y-86831904D02*
X117911652Y-86831904D01*
X118879271Y-85078094D02*
X118879271Y-85803809D01*
X118879271Y-85440952D02*
X117609271Y-85440952D01*
X117609271Y-85440952D02*
X117790699Y-85561904D01*
X117790699Y-85561904D02*
X117911652Y-85682856D01*
X117911652Y-85682856D02*
X117972128Y-85803809D01*
X117730223Y-84594285D02*
X117669747Y-84533809D01*
X117669747Y-84533809D02*
X117609271Y-84412856D01*
X117609271Y-84412856D02*
X117609271Y-84110475D01*
X117609271Y-84110475D02*
X117669747Y-83989523D01*
X117669747Y-83989523D02*
X117730223Y-83929047D01*
X117730223Y-83929047D02*
X117851175Y-83868570D01*
X117851175Y-83868570D02*
X117972128Y-83868570D01*
X117972128Y-83868570D02*
X118153556Y-83929047D01*
X118153556Y-83929047D02*
X118879271Y-84654761D01*
X118879271Y-84654761D02*
X118879271Y-83868570D01*
X117609271Y-83505713D02*
X118879271Y-83082380D01*
X118879271Y-83082380D02*
X117609271Y-82659046D01*
D10*
X104593255Y-48469925D02*
X104593255Y-48946115D01*
X104593255Y-48946115D02*
X103793255Y-48946115D01*
X103793255Y-48231829D02*
X103793255Y-47612782D01*
X103793255Y-47612782D02*
X104098017Y-47946115D01*
X104098017Y-47946115D02*
X104098017Y-47803258D01*
X104098017Y-47803258D02*
X104136112Y-47708020D01*
X104136112Y-47708020D02*
X104174207Y-47660401D01*
X104174207Y-47660401D02*
X104250398Y-47612782D01*
X104250398Y-47612782D02*
X104440874Y-47612782D01*
X104440874Y-47612782D02*
X104517064Y-47660401D01*
X104517064Y-47660401D02*
X104555160Y-47708020D01*
X104555160Y-47708020D02*
X104593255Y-47803258D01*
X104593255Y-47803258D02*
X104593255Y-48088972D01*
X104593255Y-48088972D02*
X104555160Y-48184210D01*
X104555160Y-48184210D02*
X104517064Y-48231829D01*
X104593255Y-47184210D02*
X103793255Y-47184210D01*
X103793255Y-47184210D02*
X104593255Y-46612782D01*
X104593255Y-46612782D02*
X103793255Y-46612782D01*
X106369165Y-49041353D02*
X106369165Y-48422306D01*
X106369165Y-48422306D02*
X106673927Y-48755639D01*
X106673927Y-48755639D02*
X106673927Y-48612782D01*
X106673927Y-48612782D02*
X106712022Y-48517544D01*
X106712022Y-48517544D02*
X106750117Y-48469925D01*
X106750117Y-48469925D02*
X106826308Y-48422306D01*
X106826308Y-48422306D02*
X107016784Y-48422306D01*
X107016784Y-48422306D02*
X107092974Y-48469925D01*
X107092974Y-48469925D02*
X107131070Y-48517544D01*
X107131070Y-48517544D02*
X107169165Y-48612782D01*
X107169165Y-48612782D02*
X107169165Y-48898496D01*
X107169165Y-48898496D02*
X107131070Y-48993734D01*
X107131070Y-48993734D02*
X107092974Y-49041353D01*
X106635831Y-47565163D02*
X107169165Y-47565163D01*
X106331070Y-47803258D02*
X106902498Y-48041353D01*
X106902498Y-48041353D02*
X106902498Y-47422306D01*
X107245355Y-47279449D02*
X107245355Y-46517544D01*
X106369165Y-46088972D02*
X106369165Y-45993734D01*
X106369165Y-45993734D02*
X106407260Y-45898496D01*
X106407260Y-45898496D02*
X106445355Y-45850877D01*
X106445355Y-45850877D02*
X106521546Y-45803258D01*
X106521546Y-45803258D02*
X106673927Y-45755639D01*
X106673927Y-45755639D02*
X106864403Y-45755639D01*
X106864403Y-45755639D02*
X107016784Y-45803258D01*
X107016784Y-45803258D02*
X107092974Y-45850877D01*
X107092974Y-45850877D02*
X107131070Y-45898496D01*
X107131070Y-45898496D02*
X107169165Y-45993734D01*
X107169165Y-45993734D02*
X107169165Y-46088972D01*
X107169165Y-46088972D02*
X107131070Y-46184210D01*
X107131070Y-46184210D02*
X107092974Y-46231829D01*
X107092974Y-46231829D02*
X107016784Y-46279448D01*
X107016784Y-46279448D02*
X106864403Y-46327067D01*
X106864403Y-46327067D02*
X106673927Y-46327067D01*
X106673927Y-46327067D02*
X106521546Y-46279448D01*
X106521546Y-46279448D02*
X106445355Y-46231829D01*
X106445355Y-46231829D02*
X106407260Y-46184210D01*
X106407260Y-46184210D02*
X106369165Y-46088972D01*
X108983170Y-48422306D02*
X108945075Y-48517544D01*
X108945075Y-48517544D02*
X108945075Y-48660401D01*
X108945075Y-48660401D02*
X108983170Y-48803258D01*
X108983170Y-48803258D02*
X109059360Y-48898496D01*
X109059360Y-48898496D02*
X109135551Y-48946115D01*
X109135551Y-48946115D02*
X109287932Y-48993734D01*
X109287932Y-48993734D02*
X109402218Y-48993734D01*
X109402218Y-48993734D02*
X109554599Y-48946115D01*
X109554599Y-48946115D02*
X109630789Y-48898496D01*
X109630789Y-48898496D02*
X109706980Y-48803258D01*
X109706980Y-48803258D02*
X109745075Y-48660401D01*
X109745075Y-48660401D02*
X109745075Y-48565163D01*
X109745075Y-48565163D02*
X109706980Y-48422306D01*
X109706980Y-48422306D02*
X109668884Y-48374687D01*
X109668884Y-48374687D02*
X109402218Y-48374687D01*
X109402218Y-48374687D02*
X109402218Y-48565163D01*
X109745075Y-47946115D02*
X108945075Y-47946115D01*
X108945075Y-47946115D02*
X109745075Y-47374687D01*
X109745075Y-47374687D02*
X108945075Y-47374687D01*
X109745075Y-46898496D02*
X108945075Y-46898496D01*
X108945075Y-46898496D02*
X108945075Y-46660401D01*
X108945075Y-46660401D02*
X108983170Y-46517544D01*
X108983170Y-46517544D02*
X109059360Y-46422306D01*
X109059360Y-46422306D02*
X109135551Y-46374687D01*
X109135551Y-46374687D02*
X109287932Y-46327068D01*
X109287932Y-46327068D02*
X109402218Y-46327068D01*
X109402218Y-46327068D02*
X109554599Y-46374687D01*
X109554599Y-46374687D02*
X109630789Y-46422306D01*
X109630789Y-46422306D02*
X109706980Y-46517544D01*
X109706980Y-46517544D02*
X109745075Y-46660401D01*
X109745075Y-46660401D02*
X109745075Y-46898496D01*
X112320985Y-48469925D02*
X112320985Y-48946115D01*
X112320985Y-48946115D02*
X111520985Y-48946115D01*
X111597175Y-48184210D02*
X111559080Y-48136591D01*
X111559080Y-48136591D02*
X111520985Y-48041353D01*
X111520985Y-48041353D02*
X111520985Y-47803258D01*
X111520985Y-47803258D02*
X111559080Y-47708020D01*
X111559080Y-47708020D02*
X111597175Y-47660401D01*
X111597175Y-47660401D02*
X111673366Y-47612782D01*
X111673366Y-47612782D02*
X111749556Y-47612782D01*
X111749556Y-47612782D02*
X111863842Y-47660401D01*
X111863842Y-47660401D02*
X112320985Y-48231829D01*
X112320985Y-48231829D02*
X112320985Y-47612782D01*
X112320985Y-47184210D02*
X111520985Y-47184210D01*
X111520985Y-47184210D02*
X112320985Y-46612782D01*
X112320985Y-46612782D02*
X111520985Y-46612782D01*
X114896895Y-48469925D02*
X114896895Y-48946115D01*
X114896895Y-48946115D02*
X114096895Y-48946115D01*
X114173085Y-48184210D02*
X114134990Y-48136591D01*
X114134990Y-48136591D02*
X114096895Y-48041353D01*
X114096895Y-48041353D02*
X114096895Y-47803258D01*
X114096895Y-47803258D02*
X114134990Y-47708020D01*
X114134990Y-47708020D02*
X114173085Y-47660401D01*
X114173085Y-47660401D02*
X114249276Y-47612782D01*
X114249276Y-47612782D02*
X114325466Y-47612782D01*
X114325466Y-47612782D02*
X114439752Y-47660401D01*
X114439752Y-47660401D02*
X114896895Y-48231829D01*
X114896895Y-48231829D02*
X114896895Y-47612782D01*
X114896895Y-47184210D02*
X114096895Y-47184210D01*
X114096895Y-47184210D02*
X114096895Y-46803258D01*
X114096895Y-46803258D02*
X114134990Y-46708020D01*
X114134990Y-46708020D02*
X114173085Y-46660401D01*
X114173085Y-46660401D02*
X114249276Y-46612782D01*
X114249276Y-46612782D02*
X114363561Y-46612782D01*
X114363561Y-46612782D02*
X114439752Y-46660401D01*
X114439752Y-46660401D02*
X114477847Y-46708020D01*
X114477847Y-46708020D02*
X114515942Y-46803258D01*
X114515942Y-46803258D02*
X114515942Y-47184210D01*
X121896895Y-44469925D02*
X121896895Y-44946115D01*
X121896895Y-44946115D02*
X121096895Y-44946115D01*
X121896895Y-43612782D02*
X121896895Y-44184210D01*
X121896895Y-43898496D02*
X121096895Y-43898496D01*
X121096895Y-43898496D02*
X121211180Y-43993734D01*
X121211180Y-43993734D02*
X121287371Y-44088972D01*
X121287371Y-44088972D02*
X121325466Y-44184210D01*
X121896895Y-43184210D02*
X121096895Y-43184210D01*
X121096895Y-43184210D02*
X121096895Y-42803258D01*
X121096895Y-42803258D02*
X121134990Y-42708020D01*
X121134990Y-42708020D02*
X121173085Y-42660401D01*
X121173085Y-42660401D02*
X121249276Y-42612782D01*
X121249276Y-42612782D02*
X121363561Y-42612782D01*
X121363561Y-42612782D02*
X121439752Y-42660401D01*
X121439752Y-42660401D02*
X121477847Y-42708020D01*
X121477847Y-42708020D02*
X121515942Y-42803258D01*
X121515942Y-42803258D02*
X121515942Y-43184210D01*
X48452531Y-116896115D02*
X49262054Y-116896115D01*
X49262054Y-116896115D02*
X49357292Y-116848496D01*
X49357292Y-116848496D02*
X49404912Y-116800877D01*
X49404912Y-116800877D02*
X49452531Y-116705639D01*
X49452531Y-116705639D02*
X49452531Y-116515163D01*
X49452531Y-116515163D02*
X49404912Y-116419925D01*
X49404912Y-116419925D02*
X49357292Y-116372306D01*
X49357292Y-116372306D02*
X49262054Y-116324687D01*
X49262054Y-116324687D02*
X48452531Y-116324687D01*
X49404912Y-115896115D02*
X49452531Y-115753258D01*
X49452531Y-115753258D02*
X49452531Y-115515163D01*
X49452531Y-115515163D02*
X49404912Y-115419925D01*
X49404912Y-115419925D02*
X49357292Y-115372306D01*
X49357292Y-115372306D02*
X49262054Y-115324687D01*
X49262054Y-115324687D02*
X49166816Y-115324687D01*
X49166816Y-115324687D02*
X49071578Y-115372306D01*
X49071578Y-115372306D02*
X49023959Y-115419925D01*
X49023959Y-115419925D02*
X48976340Y-115515163D01*
X48976340Y-115515163D02*
X48928721Y-115705639D01*
X48928721Y-115705639D02*
X48881102Y-115800877D01*
X48881102Y-115800877D02*
X48833483Y-115848496D01*
X48833483Y-115848496D02*
X48738245Y-115896115D01*
X48738245Y-115896115D02*
X48643007Y-115896115D01*
X48643007Y-115896115D02*
X48547769Y-115848496D01*
X48547769Y-115848496D02*
X48500150Y-115800877D01*
X48500150Y-115800877D02*
X48452531Y-115705639D01*
X48452531Y-115705639D02*
X48452531Y-115467544D01*
X48452531Y-115467544D02*
X48500150Y-115324687D01*
X48928721Y-114562782D02*
X48976340Y-114419925D01*
X48976340Y-114419925D02*
X49023959Y-114372306D01*
X49023959Y-114372306D02*
X49119197Y-114324687D01*
X49119197Y-114324687D02*
X49262054Y-114324687D01*
X49262054Y-114324687D02*
X49357292Y-114372306D01*
X49357292Y-114372306D02*
X49404912Y-114419925D01*
X49404912Y-114419925D02*
X49452531Y-114515163D01*
X49452531Y-114515163D02*
X49452531Y-114896115D01*
X49452531Y-114896115D02*
X48452531Y-114896115D01*
X48452531Y-114896115D02*
X48452531Y-114562782D01*
X48452531Y-114562782D02*
X48500150Y-114467544D01*
X48500150Y-114467544D02*
X48547769Y-114419925D01*
X48547769Y-114419925D02*
X48643007Y-114372306D01*
X48643007Y-114372306D02*
X48738245Y-114372306D01*
X48738245Y-114372306D02*
X48833483Y-114419925D01*
X48833483Y-114419925D02*
X48881102Y-114467544D01*
X48881102Y-114467544D02*
X48928721Y-114562782D01*
X48928721Y-114562782D02*
X48928721Y-114896115D01*
X48452531Y-113277067D02*
X49452531Y-112943734D01*
X49452531Y-112943734D02*
X48452531Y-112610401D01*
X48928721Y-111943734D02*
X48976340Y-111800877D01*
X48976340Y-111800877D02*
X49023959Y-111753258D01*
X49023959Y-111753258D02*
X49119197Y-111705639D01*
X49119197Y-111705639D02*
X49262054Y-111705639D01*
X49262054Y-111705639D02*
X49357292Y-111753258D01*
X49357292Y-111753258D02*
X49404912Y-111800877D01*
X49404912Y-111800877D02*
X49452531Y-111896115D01*
X49452531Y-111896115D02*
X49452531Y-112277067D01*
X49452531Y-112277067D02*
X48452531Y-112277067D01*
X48452531Y-112277067D02*
X48452531Y-111943734D01*
X48452531Y-111943734D02*
X48500150Y-111848496D01*
X48500150Y-111848496D02*
X48547769Y-111800877D01*
X48547769Y-111800877D02*
X48643007Y-111753258D01*
X48643007Y-111753258D02*
X48738245Y-111753258D01*
X48738245Y-111753258D02*
X48833483Y-111800877D01*
X48833483Y-111800877D02*
X48881102Y-111848496D01*
X48881102Y-111848496D02*
X48928721Y-111943734D01*
X48928721Y-111943734D02*
X48928721Y-112277067D01*
X48785864Y-110848496D02*
X49452531Y-110848496D01*
X48785864Y-111277067D02*
X49309673Y-111277067D01*
X49309673Y-111277067D02*
X49404912Y-111229448D01*
X49404912Y-111229448D02*
X49452531Y-111134210D01*
X49452531Y-111134210D02*
X49452531Y-110991353D01*
X49452531Y-110991353D02*
X49404912Y-110896115D01*
X49404912Y-110896115D02*
X49357292Y-110848496D01*
X49404912Y-110419924D02*
X49452531Y-110324686D01*
X49452531Y-110324686D02*
X49452531Y-110134210D01*
X49452531Y-110134210D02*
X49404912Y-110038972D01*
X49404912Y-110038972D02*
X49309673Y-109991353D01*
X49309673Y-109991353D02*
X49262054Y-109991353D01*
X49262054Y-109991353D02*
X49166816Y-110038972D01*
X49166816Y-110038972D02*
X49119197Y-110134210D01*
X49119197Y-110134210D02*
X49119197Y-110277067D01*
X49119197Y-110277067D02*
X49071578Y-110372305D01*
X49071578Y-110372305D02*
X48976340Y-110419924D01*
X48976340Y-110419924D02*
X48928721Y-110419924D01*
X48928721Y-110419924D02*
X48833483Y-110372305D01*
X48833483Y-110372305D02*
X48785864Y-110277067D01*
X48785864Y-110277067D02*
X48785864Y-110134210D01*
X48785864Y-110134210D02*
X48833483Y-110038972D01*
X51672419Y-117038972D02*
X52672419Y-116705639D01*
X52672419Y-116705639D02*
X51672419Y-116372306D01*
X52148609Y-115705639D02*
X52196228Y-115562782D01*
X52196228Y-115562782D02*
X52243847Y-115515163D01*
X52243847Y-115515163D02*
X52339085Y-115467544D01*
X52339085Y-115467544D02*
X52481942Y-115467544D01*
X52481942Y-115467544D02*
X52577180Y-115515163D01*
X52577180Y-115515163D02*
X52624800Y-115562782D01*
X52624800Y-115562782D02*
X52672419Y-115658020D01*
X52672419Y-115658020D02*
X52672419Y-116038972D01*
X52672419Y-116038972D02*
X51672419Y-116038972D01*
X51672419Y-116038972D02*
X51672419Y-115705639D01*
X51672419Y-115705639D02*
X51720038Y-115610401D01*
X51720038Y-115610401D02*
X51767657Y-115562782D01*
X51767657Y-115562782D02*
X51862895Y-115515163D01*
X51862895Y-115515163D02*
X51958133Y-115515163D01*
X51958133Y-115515163D02*
X52053371Y-115562782D01*
X52053371Y-115562782D02*
X52100990Y-115610401D01*
X52100990Y-115610401D02*
X52148609Y-115705639D01*
X52148609Y-115705639D02*
X52148609Y-116038972D01*
X52005752Y-114610401D02*
X52672419Y-114610401D01*
X52005752Y-115038972D02*
X52529561Y-115038972D01*
X52529561Y-115038972D02*
X52624800Y-114991353D01*
X52624800Y-114991353D02*
X52672419Y-114896115D01*
X52672419Y-114896115D02*
X52672419Y-114753258D01*
X52672419Y-114753258D02*
X52624800Y-114658020D01*
X52624800Y-114658020D02*
X52577180Y-114610401D01*
X52624800Y-114181829D02*
X52672419Y-114086591D01*
X52672419Y-114086591D02*
X52672419Y-113896115D01*
X52672419Y-113896115D02*
X52624800Y-113800877D01*
X52624800Y-113800877D02*
X52529561Y-113753258D01*
X52529561Y-113753258D02*
X52481942Y-113753258D01*
X52481942Y-113753258D02*
X52386704Y-113800877D01*
X52386704Y-113800877D02*
X52339085Y-113896115D01*
X52339085Y-113896115D02*
X52339085Y-114038972D01*
X52339085Y-114038972D02*
X52291466Y-114134210D01*
X52291466Y-114134210D02*
X52196228Y-114181829D01*
X52196228Y-114181829D02*
X52148609Y-114181829D01*
X52148609Y-114181829D02*
X52053371Y-114134210D01*
X52053371Y-114134210D02*
X52005752Y-114038972D01*
X52005752Y-114038972D02*
X52005752Y-113896115D01*
X52005752Y-113896115D02*
X52053371Y-113800877D01*
X52148609Y-112229448D02*
X52148609Y-112562781D01*
X52672419Y-112562781D02*
X51672419Y-112562781D01*
X51672419Y-112562781D02*
X51672419Y-112086591D01*
X52672419Y-111277067D02*
X52148609Y-111277067D01*
X52148609Y-111277067D02*
X52053371Y-111324686D01*
X52053371Y-111324686D02*
X52005752Y-111419924D01*
X52005752Y-111419924D02*
X52005752Y-111610400D01*
X52005752Y-111610400D02*
X52053371Y-111705638D01*
X52624800Y-111277067D02*
X52672419Y-111372305D01*
X52672419Y-111372305D02*
X52672419Y-111610400D01*
X52672419Y-111610400D02*
X52624800Y-111705638D01*
X52624800Y-111705638D02*
X52529561Y-111753257D01*
X52529561Y-111753257D02*
X52434323Y-111753257D01*
X52434323Y-111753257D02*
X52339085Y-111705638D01*
X52339085Y-111705638D02*
X52291466Y-111610400D01*
X52291466Y-111610400D02*
X52291466Y-111372305D01*
X52291466Y-111372305D02*
X52243847Y-111277067D01*
X52672419Y-110800876D02*
X52005752Y-110800876D01*
X51672419Y-110800876D02*
X51720038Y-110848495D01*
X51720038Y-110848495D02*
X51767657Y-110800876D01*
X51767657Y-110800876D02*
X51720038Y-110753257D01*
X51720038Y-110753257D02*
X51672419Y-110800876D01*
X51672419Y-110800876D02*
X51767657Y-110800876D01*
X52672419Y-110181829D02*
X52624800Y-110277067D01*
X52624800Y-110277067D02*
X52529561Y-110324686D01*
X52529561Y-110324686D02*
X51672419Y-110324686D01*
X41093255Y-48469925D02*
X41093255Y-48946115D01*
X41093255Y-48946115D02*
X40293255Y-48946115D01*
X41093255Y-47612782D02*
X41093255Y-48184210D01*
X41093255Y-47898496D02*
X40293255Y-47898496D01*
X40293255Y-47898496D02*
X40407540Y-47993734D01*
X40407540Y-47993734D02*
X40483731Y-48088972D01*
X40483731Y-48088972D02*
X40521826Y-48184210D01*
X40636112Y-47041353D02*
X40598017Y-47136591D01*
X40598017Y-47136591D02*
X40559921Y-47184210D01*
X40559921Y-47184210D02*
X40483731Y-47231829D01*
X40483731Y-47231829D02*
X40445636Y-47231829D01*
X40445636Y-47231829D02*
X40369445Y-47184210D01*
X40369445Y-47184210D02*
X40331350Y-47136591D01*
X40331350Y-47136591D02*
X40293255Y-47041353D01*
X40293255Y-47041353D02*
X40293255Y-46850877D01*
X40293255Y-46850877D02*
X40331350Y-46755639D01*
X40331350Y-46755639D02*
X40369445Y-46708020D01*
X40369445Y-46708020D02*
X40445636Y-46660401D01*
X40445636Y-46660401D02*
X40483731Y-46660401D01*
X40483731Y-46660401D02*
X40559921Y-46708020D01*
X40559921Y-46708020D02*
X40598017Y-46755639D01*
X40598017Y-46755639D02*
X40636112Y-46850877D01*
X40636112Y-46850877D02*
X40636112Y-47041353D01*
X40636112Y-47041353D02*
X40674207Y-47136591D01*
X40674207Y-47136591D02*
X40712302Y-47184210D01*
X40712302Y-47184210D02*
X40788493Y-47231829D01*
X40788493Y-47231829D02*
X40940874Y-47231829D01*
X40940874Y-47231829D02*
X41017064Y-47184210D01*
X41017064Y-47184210D02*
X41055160Y-47136591D01*
X41055160Y-47136591D02*
X41093255Y-47041353D01*
X41093255Y-47041353D02*
X41093255Y-46850877D01*
X41093255Y-46850877D02*
X41055160Y-46755639D01*
X41055160Y-46755639D02*
X41017064Y-46708020D01*
X41017064Y-46708020D02*
X40940874Y-46660401D01*
X40940874Y-46660401D02*
X40788493Y-46660401D01*
X40788493Y-46660401D02*
X40712302Y-46708020D01*
X40712302Y-46708020D02*
X40674207Y-46755639D01*
X40674207Y-46755639D02*
X40636112Y-46850877D01*
X41093255Y-46231829D02*
X40293255Y-46231829D01*
X40293255Y-46231829D02*
X41093255Y-45660401D01*
X41093255Y-45660401D02*
X40293255Y-45660401D01*
X43669165Y-48469925D02*
X43669165Y-48946115D01*
X43669165Y-48946115D02*
X42869165Y-48946115D01*
X43669165Y-47612782D02*
X43669165Y-48184210D01*
X43669165Y-47898496D02*
X42869165Y-47898496D01*
X42869165Y-47898496D02*
X42983450Y-47993734D01*
X42983450Y-47993734D02*
X43059641Y-48088972D01*
X43059641Y-48088972D02*
X43097736Y-48184210D01*
X43212022Y-47041353D02*
X43173927Y-47136591D01*
X43173927Y-47136591D02*
X43135831Y-47184210D01*
X43135831Y-47184210D02*
X43059641Y-47231829D01*
X43059641Y-47231829D02*
X43021546Y-47231829D01*
X43021546Y-47231829D02*
X42945355Y-47184210D01*
X42945355Y-47184210D02*
X42907260Y-47136591D01*
X42907260Y-47136591D02*
X42869165Y-47041353D01*
X42869165Y-47041353D02*
X42869165Y-46850877D01*
X42869165Y-46850877D02*
X42907260Y-46755639D01*
X42907260Y-46755639D02*
X42945355Y-46708020D01*
X42945355Y-46708020D02*
X43021546Y-46660401D01*
X43021546Y-46660401D02*
X43059641Y-46660401D01*
X43059641Y-46660401D02*
X43135831Y-46708020D01*
X43135831Y-46708020D02*
X43173927Y-46755639D01*
X43173927Y-46755639D02*
X43212022Y-46850877D01*
X43212022Y-46850877D02*
X43212022Y-47041353D01*
X43212022Y-47041353D02*
X43250117Y-47136591D01*
X43250117Y-47136591D02*
X43288212Y-47184210D01*
X43288212Y-47184210D02*
X43364403Y-47231829D01*
X43364403Y-47231829D02*
X43516784Y-47231829D01*
X43516784Y-47231829D02*
X43592974Y-47184210D01*
X43592974Y-47184210D02*
X43631070Y-47136591D01*
X43631070Y-47136591D02*
X43669165Y-47041353D01*
X43669165Y-47041353D02*
X43669165Y-46850877D01*
X43669165Y-46850877D02*
X43631070Y-46755639D01*
X43631070Y-46755639D02*
X43592974Y-46708020D01*
X43592974Y-46708020D02*
X43516784Y-46660401D01*
X43516784Y-46660401D02*
X43364403Y-46660401D01*
X43364403Y-46660401D02*
X43288212Y-46708020D01*
X43288212Y-46708020D02*
X43250117Y-46755639D01*
X43250117Y-46755639D02*
X43212022Y-46850877D01*
X43669165Y-46231829D02*
X42869165Y-46231829D01*
X42869165Y-46231829D02*
X42869165Y-45850877D01*
X42869165Y-45850877D02*
X42907260Y-45755639D01*
X42907260Y-45755639D02*
X42945355Y-45708020D01*
X42945355Y-45708020D02*
X43021546Y-45660401D01*
X43021546Y-45660401D02*
X43135831Y-45660401D01*
X43135831Y-45660401D02*
X43212022Y-45708020D01*
X43212022Y-45708020D02*
X43250117Y-45755639D01*
X43250117Y-45755639D02*
X43288212Y-45850877D01*
X43288212Y-45850877D02*
X43288212Y-46231829D01*
X46245075Y-48469925D02*
X46245075Y-48946115D01*
X46245075Y-48946115D02*
X45445075Y-48946115D01*
X46245075Y-47612782D02*
X46245075Y-48184210D01*
X46245075Y-47898496D02*
X45445075Y-47898496D01*
X45445075Y-47898496D02*
X45559360Y-47993734D01*
X45559360Y-47993734D02*
X45635551Y-48088972D01*
X45635551Y-48088972D02*
X45673646Y-48184210D01*
X45445075Y-47279448D02*
X45445075Y-46612782D01*
X45445075Y-46612782D02*
X46245075Y-47041353D01*
X46245075Y-46231829D02*
X45445075Y-46231829D01*
X45445075Y-46231829D02*
X46245075Y-45660401D01*
X46245075Y-45660401D02*
X45445075Y-45660401D01*
X48820985Y-48469925D02*
X48820985Y-48946115D01*
X48820985Y-48946115D02*
X48020985Y-48946115D01*
X48820985Y-47612782D02*
X48820985Y-48184210D01*
X48820985Y-47898496D02*
X48020985Y-47898496D01*
X48020985Y-47898496D02*
X48135270Y-47993734D01*
X48135270Y-47993734D02*
X48211461Y-48088972D01*
X48211461Y-48088972D02*
X48249556Y-48184210D01*
X48020985Y-47279448D02*
X48020985Y-46612782D01*
X48020985Y-46612782D02*
X48820985Y-47041353D01*
X48820985Y-46231829D02*
X48020985Y-46231829D01*
X48020985Y-46231829D02*
X48020985Y-45850877D01*
X48020985Y-45850877D02*
X48059080Y-45755639D01*
X48059080Y-45755639D02*
X48097175Y-45708020D01*
X48097175Y-45708020D02*
X48173366Y-45660401D01*
X48173366Y-45660401D02*
X48287651Y-45660401D01*
X48287651Y-45660401D02*
X48363842Y-45708020D01*
X48363842Y-45708020D02*
X48401937Y-45755639D01*
X48401937Y-45755639D02*
X48440032Y-45850877D01*
X48440032Y-45850877D02*
X48440032Y-46231829D01*
X50596895Y-49041353D02*
X50596895Y-48422306D01*
X50596895Y-48422306D02*
X50901657Y-48755639D01*
X50901657Y-48755639D02*
X50901657Y-48612782D01*
X50901657Y-48612782D02*
X50939752Y-48517544D01*
X50939752Y-48517544D02*
X50977847Y-48469925D01*
X50977847Y-48469925D02*
X51054038Y-48422306D01*
X51054038Y-48422306D02*
X51244514Y-48422306D01*
X51244514Y-48422306D02*
X51320704Y-48469925D01*
X51320704Y-48469925D02*
X51358800Y-48517544D01*
X51358800Y-48517544D02*
X51396895Y-48612782D01*
X51396895Y-48612782D02*
X51396895Y-48898496D01*
X51396895Y-48898496D02*
X51358800Y-48993734D01*
X51358800Y-48993734D02*
X51320704Y-49041353D01*
X50596895Y-48136591D02*
X51396895Y-47803258D01*
X51396895Y-47803258D02*
X50596895Y-47469925D01*
X50596895Y-47231829D02*
X50596895Y-46612782D01*
X50596895Y-46612782D02*
X50901657Y-46946115D01*
X50901657Y-46946115D02*
X50901657Y-46803258D01*
X50901657Y-46803258D02*
X50939752Y-46708020D01*
X50939752Y-46708020D02*
X50977847Y-46660401D01*
X50977847Y-46660401D02*
X51054038Y-46612782D01*
X51054038Y-46612782D02*
X51244514Y-46612782D01*
X51244514Y-46612782D02*
X51320704Y-46660401D01*
X51320704Y-46660401D02*
X51358800Y-46708020D01*
X51358800Y-46708020D02*
X51396895Y-46803258D01*
X51396895Y-46803258D02*
X51396895Y-47088972D01*
X51396895Y-47088972D02*
X51358800Y-47184210D01*
X51358800Y-47184210D02*
X51320704Y-47231829D01*
X66343255Y-48469925D02*
X66343255Y-48946115D01*
X66343255Y-48946115D02*
X65543255Y-48946115D01*
X66343255Y-48088972D02*
X66343255Y-47898496D01*
X66343255Y-47898496D02*
X66305160Y-47803258D01*
X66305160Y-47803258D02*
X66267064Y-47755639D01*
X66267064Y-47755639D02*
X66152779Y-47660401D01*
X66152779Y-47660401D02*
X66000398Y-47612782D01*
X66000398Y-47612782D02*
X65695636Y-47612782D01*
X65695636Y-47612782D02*
X65619445Y-47660401D01*
X65619445Y-47660401D02*
X65581350Y-47708020D01*
X65581350Y-47708020D02*
X65543255Y-47803258D01*
X65543255Y-47803258D02*
X65543255Y-47993734D01*
X65543255Y-47993734D02*
X65581350Y-48088972D01*
X65581350Y-48088972D02*
X65619445Y-48136591D01*
X65619445Y-48136591D02*
X65695636Y-48184210D01*
X65695636Y-48184210D02*
X65886112Y-48184210D01*
X65886112Y-48184210D02*
X65962302Y-48136591D01*
X65962302Y-48136591D02*
X66000398Y-48088972D01*
X66000398Y-48088972D02*
X66038493Y-47993734D01*
X66038493Y-47993734D02*
X66038493Y-47803258D01*
X66038493Y-47803258D02*
X66000398Y-47708020D01*
X66000398Y-47708020D02*
X65962302Y-47660401D01*
X65962302Y-47660401D02*
X65886112Y-47612782D01*
X66343255Y-47184210D02*
X65543255Y-47184210D01*
X65543255Y-47184210D02*
X66343255Y-46612782D01*
X66343255Y-46612782D02*
X65543255Y-46612782D01*
X68919165Y-48469925D02*
X68919165Y-48946115D01*
X68919165Y-48946115D02*
X68119165Y-48946115D01*
X68919165Y-48088972D02*
X68919165Y-47898496D01*
X68919165Y-47898496D02*
X68881070Y-47803258D01*
X68881070Y-47803258D02*
X68842974Y-47755639D01*
X68842974Y-47755639D02*
X68728689Y-47660401D01*
X68728689Y-47660401D02*
X68576308Y-47612782D01*
X68576308Y-47612782D02*
X68271546Y-47612782D01*
X68271546Y-47612782D02*
X68195355Y-47660401D01*
X68195355Y-47660401D02*
X68157260Y-47708020D01*
X68157260Y-47708020D02*
X68119165Y-47803258D01*
X68119165Y-47803258D02*
X68119165Y-47993734D01*
X68119165Y-47993734D02*
X68157260Y-48088972D01*
X68157260Y-48088972D02*
X68195355Y-48136591D01*
X68195355Y-48136591D02*
X68271546Y-48184210D01*
X68271546Y-48184210D02*
X68462022Y-48184210D01*
X68462022Y-48184210D02*
X68538212Y-48136591D01*
X68538212Y-48136591D02*
X68576308Y-48088972D01*
X68576308Y-48088972D02*
X68614403Y-47993734D01*
X68614403Y-47993734D02*
X68614403Y-47803258D01*
X68614403Y-47803258D02*
X68576308Y-47708020D01*
X68576308Y-47708020D02*
X68538212Y-47660401D01*
X68538212Y-47660401D02*
X68462022Y-47612782D01*
X68919165Y-47184210D02*
X68119165Y-47184210D01*
X68119165Y-47184210D02*
X68119165Y-46803258D01*
X68119165Y-46803258D02*
X68157260Y-46708020D01*
X68157260Y-46708020D02*
X68195355Y-46660401D01*
X68195355Y-46660401D02*
X68271546Y-46612782D01*
X68271546Y-46612782D02*
X68385831Y-46612782D01*
X68385831Y-46612782D02*
X68462022Y-46660401D01*
X68462022Y-46660401D02*
X68500117Y-46708020D01*
X68500117Y-46708020D02*
X68538212Y-46803258D01*
X68538212Y-46803258D02*
X68538212Y-47184210D01*
X70733170Y-48422306D02*
X70695075Y-48517544D01*
X70695075Y-48517544D02*
X70695075Y-48660401D01*
X70695075Y-48660401D02*
X70733170Y-48803258D01*
X70733170Y-48803258D02*
X70809360Y-48898496D01*
X70809360Y-48898496D02*
X70885551Y-48946115D01*
X70885551Y-48946115D02*
X71037932Y-48993734D01*
X71037932Y-48993734D02*
X71152218Y-48993734D01*
X71152218Y-48993734D02*
X71304599Y-48946115D01*
X71304599Y-48946115D02*
X71380789Y-48898496D01*
X71380789Y-48898496D02*
X71456980Y-48803258D01*
X71456980Y-48803258D02*
X71495075Y-48660401D01*
X71495075Y-48660401D02*
X71495075Y-48565163D01*
X71495075Y-48565163D02*
X71456980Y-48422306D01*
X71456980Y-48422306D02*
X71418884Y-48374687D01*
X71418884Y-48374687D02*
X71152218Y-48374687D01*
X71152218Y-48374687D02*
X71152218Y-48565163D01*
X71495075Y-47946115D02*
X70695075Y-47946115D01*
X70695075Y-47946115D02*
X71495075Y-47374687D01*
X71495075Y-47374687D02*
X70695075Y-47374687D01*
X71495075Y-46898496D02*
X70695075Y-46898496D01*
X70695075Y-46898496D02*
X70695075Y-46660401D01*
X70695075Y-46660401D02*
X70733170Y-46517544D01*
X70733170Y-46517544D02*
X70809360Y-46422306D01*
X70809360Y-46422306D02*
X70885551Y-46374687D01*
X70885551Y-46374687D02*
X71037932Y-46327068D01*
X71037932Y-46327068D02*
X71152218Y-46327068D01*
X71152218Y-46327068D02*
X71304599Y-46374687D01*
X71304599Y-46374687D02*
X71380789Y-46422306D01*
X71380789Y-46422306D02*
X71456980Y-46517544D01*
X71456980Y-46517544D02*
X71495075Y-46660401D01*
X71495075Y-46660401D02*
X71495075Y-46898496D01*
X74070985Y-48469925D02*
X74070985Y-48946115D01*
X74070985Y-48946115D02*
X73270985Y-48946115D01*
X73613842Y-47993734D02*
X73575747Y-48088972D01*
X73575747Y-48088972D02*
X73537651Y-48136591D01*
X73537651Y-48136591D02*
X73461461Y-48184210D01*
X73461461Y-48184210D02*
X73423366Y-48184210D01*
X73423366Y-48184210D02*
X73347175Y-48136591D01*
X73347175Y-48136591D02*
X73309080Y-48088972D01*
X73309080Y-48088972D02*
X73270985Y-47993734D01*
X73270985Y-47993734D02*
X73270985Y-47803258D01*
X73270985Y-47803258D02*
X73309080Y-47708020D01*
X73309080Y-47708020D02*
X73347175Y-47660401D01*
X73347175Y-47660401D02*
X73423366Y-47612782D01*
X73423366Y-47612782D02*
X73461461Y-47612782D01*
X73461461Y-47612782D02*
X73537651Y-47660401D01*
X73537651Y-47660401D02*
X73575747Y-47708020D01*
X73575747Y-47708020D02*
X73613842Y-47803258D01*
X73613842Y-47803258D02*
X73613842Y-47993734D01*
X73613842Y-47993734D02*
X73651937Y-48088972D01*
X73651937Y-48088972D02*
X73690032Y-48136591D01*
X73690032Y-48136591D02*
X73766223Y-48184210D01*
X73766223Y-48184210D02*
X73918604Y-48184210D01*
X73918604Y-48184210D02*
X73994794Y-48136591D01*
X73994794Y-48136591D02*
X74032890Y-48088972D01*
X74032890Y-48088972D02*
X74070985Y-47993734D01*
X74070985Y-47993734D02*
X74070985Y-47803258D01*
X74070985Y-47803258D02*
X74032890Y-47708020D01*
X74032890Y-47708020D02*
X73994794Y-47660401D01*
X73994794Y-47660401D02*
X73918604Y-47612782D01*
X73918604Y-47612782D02*
X73766223Y-47612782D01*
X73766223Y-47612782D02*
X73690032Y-47660401D01*
X73690032Y-47660401D02*
X73651937Y-47708020D01*
X73651937Y-47708020D02*
X73613842Y-47803258D01*
X74070985Y-47184210D02*
X73270985Y-47184210D01*
X73270985Y-47184210D02*
X74070985Y-46612782D01*
X74070985Y-46612782D02*
X73270985Y-46612782D01*
X76646895Y-48469925D02*
X76646895Y-48946115D01*
X76646895Y-48946115D02*
X75846895Y-48946115D01*
X76189752Y-47993734D02*
X76151657Y-48088972D01*
X76151657Y-48088972D02*
X76113561Y-48136591D01*
X76113561Y-48136591D02*
X76037371Y-48184210D01*
X76037371Y-48184210D02*
X75999276Y-48184210D01*
X75999276Y-48184210D02*
X75923085Y-48136591D01*
X75923085Y-48136591D02*
X75884990Y-48088972D01*
X75884990Y-48088972D02*
X75846895Y-47993734D01*
X75846895Y-47993734D02*
X75846895Y-47803258D01*
X75846895Y-47803258D02*
X75884990Y-47708020D01*
X75884990Y-47708020D02*
X75923085Y-47660401D01*
X75923085Y-47660401D02*
X75999276Y-47612782D01*
X75999276Y-47612782D02*
X76037371Y-47612782D01*
X76037371Y-47612782D02*
X76113561Y-47660401D01*
X76113561Y-47660401D02*
X76151657Y-47708020D01*
X76151657Y-47708020D02*
X76189752Y-47803258D01*
X76189752Y-47803258D02*
X76189752Y-47993734D01*
X76189752Y-47993734D02*
X76227847Y-48088972D01*
X76227847Y-48088972D02*
X76265942Y-48136591D01*
X76265942Y-48136591D02*
X76342133Y-48184210D01*
X76342133Y-48184210D02*
X76494514Y-48184210D01*
X76494514Y-48184210D02*
X76570704Y-48136591D01*
X76570704Y-48136591D02*
X76608800Y-48088972D01*
X76608800Y-48088972D02*
X76646895Y-47993734D01*
X76646895Y-47993734D02*
X76646895Y-47803258D01*
X76646895Y-47803258D02*
X76608800Y-47708020D01*
X76608800Y-47708020D02*
X76570704Y-47660401D01*
X76570704Y-47660401D02*
X76494514Y-47612782D01*
X76494514Y-47612782D02*
X76342133Y-47612782D01*
X76342133Y-47612782D02*
X76265942Y-47660401D01*
X76265942Y-47660401D02*
X76227847Y-47708020D01*
X76227847Y-47708020D02*
X76189752Y-47803258D01*
X76646895Y-47184210D02*
X75846895Y-47184210D01*
X75846895Y-47184210D02*
X75846895Y-46803258D01*
X75846895Y-46803258D02*
X75884990Y-46708020D01*
X75884990Y-46708020D02*
X75923085Y-46660401D01*
X75923085Y-46660401D02*
X75999276Y-46612782D01*
X75999276Y-46612782D02*
X76113561Y-46612782D01*
X76113561Y-46612782D02*
X76189752Y-46660401D01*
X76189752Y-46660401D02*
X76227847Y-46708020D01*
X76227847Y-46708020D02*
X76265942Y-46803258D01*
X76265942Y-46803258D02*
X76265942Y-47184210D01*
X91843255Y-48469925D02*
X91843255Y-48946115D01*
X91843255Y-48946115D02*
X91043255Y-48946115D01*
X91043255Y-47660401D02*
X91043255Y-48136591D01*
X91043255Y-48136591D02*
X91424207Y-48184210D01*
X91424207Y-48184210D02*
X91386112Y-48136591D01*
X91386112Y-48136591D02*
X91348017Y-48041353D01*
X91348017Y-48041353D02*
X91348017Y-47803258D01*
X91348017Y-47803258D02*
X91386112Y-47708020D01*
X91386112Y-47708020D02*
X91424207Y-47660401D01*
X91424207Y-47660401D02*
X91500398Y-47612782D01*
X91500398Y-47612782D02*
X91690874Y-47612782D01*
X91690874Y-47612782D02*
X91767064Y-47660401D01*
X91767064Y-47660401D02*
X91805160Y-47708020D01*
X91805160Y-47708020D02*
X91843255Y-47803258D01*
X91843255Y-47803258D02*
X91843255Y-48041353D01*
X91843255Y-48041353D02*
X91805160Y-48136591D01*
X91805160Y-48136591D02*
X91767064Y-48184210D01*
X91843255Y-47184210D02*
X91043255Y-47184210D01*
X91043255Y-47184210D02*
X91843255Y-46612782D01*
X91843255Y-46612782D02*
X91043255Y-46612782D01*
X94419165Y-48469925D02*
X94419165Y-48946115D01*
X94419165Y-48946115D02*
X93619165Y-48946115D01*
X93619165Y-47660401D02*
X93619165Y-48136591D01*
X93619165Y-48136591D02*
X94000117Y-48184210D01*
X94000117Y-48184210D02*
X93962022Y-48136591D01*
X93962022Y-48136591D02*
X93923927Y-48041353D01*
X93923927Y-48041353D02*
X93923927Y-47803258D01*
X93923927Y-47803258D02*
X93962022Y-47708020D01*
X93962022Y-47708020D02*
X94000117Y-47660401D01*
X94000117Y-47660401D02*
X94076308Y-47612782D01*
X94076308Y-47612782D02*
X94266784Y-47612782D01*
X94266784Y-47612782D02*
X94342974Y-47660401D01*
X94342974Y-47660401D02*
X94381070Y-47708020D01*
X94381070Y-47708020D02*
X94419165Y-47803258D01*
X94419165Y-47803258D02*
X94419165Y-48041353D01*
X94419165Y-48041353D02*
X94381070Y-48136591D01*
X94381070Y-48136591D02*
X94342974Y-48184210D01*
X94419165Y-47184210D02*
X93619165Y-47184210D01*
X93619165Y-47184210D02*
X93619165Y-46803258D01*
X93619165Y-46803258D02*
X93657260Y-46708020D01*
X93657260Y-46708020D02*
X93695355Y-46660401D01*
X93695355Y-46660401D02*
X93771546Y-46612782D01*
X93771546Y-46612782D02*
X93885831Y-46612782D01*
X93885831Y-46612782D02*
X93962022Y-46660401D01*
X93962022Y-46660401D02*
X94000117Y-46708020D01*
X94000117Y-46708020D02*
X94038212Y-46803258D01*
X94038212Y-46803258D02*
X94038212Y-47184210D01*
X96233170Y-48422306D02*
X96195075Y-48517544D01*
X96195075Y-48517544D02*
X96195075Y-48660401D01*
X96195075Y-48660401D02*
X96233170Y-48803258D01*
X96233170Y-48803258D02*
X96309360Y-48898496D01*
X96309360Y-48898496D02*
X96385551Y-48946115D01*
X96385551Y-48946115D02*
X96537932Y-48993734D01*
X96537932Y-48993734D02*
X96652218Y-48993734D01*
X96652218Y-48993734D02*
X96804599Y-48946115D01*
X96804599Y-48946115D02*
X96880789Y-48898496D01*
X96880789Y-48898496D02*
X96956980Y-48803258D01*
X96956980Y-48803258D02*
X96995075Y-48660401D01*
X96995075Y-48660401D02*
X96995075Y-48565163D01*
X96995075Y-48565163D02*
X96956980Y-48422306D01*
X96956980Y-48422306D02*
X96918884Y-48374687D01*
X96918884Y-48374687D02*
X96652218Y-48374687D01*
X96652218Y-48374687D02*
X96652218Y-48565163D01*
X96995075Y-47946115D02*
X96195075Y-47946115D01*
X96195075Y-47946115D02*
X96995075Y-47374687D01*
X96995075Y-47374687D02*
X96195075Y-47374687D01*
X96995075Y-46898496D02*
X96195075Y-46898496D01*
X96195075Y-46898496D02*
X96195075Y-46660401D01*
X96195075Y-46660401D02*
X96233170Y-46517544D01*
X96233170Y-46517544D02*
X96309360Y-46422306D01*
X96309360Y-46422306D02*
X96385551Y-46374687D01*
X96385551Y-46374687D02*
X96537932Y-46327068D01*
X96537932Y-46327068D02*
X96652218Y-46327068D01*
X96652218Y-46327068D02*
X96804599Y-46374687D01*
X96804599Y-46374687D02*
X96880789Y-46422306D01*
X96880789Y-46422306D02*
X96956980Y-46517544D01*
X96956980Y-46517544D02*
X96995075Y-46660401D01*
X96995075Y-46660401D02*
X96995075Y-46898496D01*
X99570985Y-48469925D02*
X99570985Y-48946115D01*
X99570985Y-48946115D02*
X98770985Y-48946115D01*
X99037651Y-47708020D02*
X99570985Y-47708020D01*
X98732890Y-47946115D02*
X99304318Y-48184210D01*
X99304318Y-48184210D02*
X99304318Y-47565163D01*
X99570985Y-47184210D02*
X98770985Y-47184210D01*
X98770985Y-47184210D02*
X99570985Y-46612782D01*
X99570985Y-46612782D02*
X98770985Y-46612782D01*
X102146895Y-48469925D02*
X102146895Y-48946115D01*
X102146895Y-48946115D02*
X101346895Y-48946115D01*
X101613561Y-47708020D02*
X102146895Y-47708020D01*
X101308800Y-47946115D02*
X101880228Y-48184210D01*
X101880228Y-48184210D02*
X101880228Y-47565163D01*
X102146895Y-47184210D02*
X101346895Y-47184210D01*
X101346895Y-47184210D02*
X101346895Y-46803258D01*
X101346895Y-46803258D02*
X101384990Y-46708020D01*
X101384990Y-46708020D02*
X101423085Y-46660401D01*
X101423085Y-46660401D02*
X101499276Y-46612782D01*
X101499276Y-46612782D02*
X101613561Y-46612782D01*
X101613561Y-46612782D02*
X101689752Y-46660401D01*
X101689752Y-46660401D02*
X101727847Y-46708020D01*
X101727847Y-46708020D02*
X101765942Y-46803258D01*
X101765942Y-46803258D02*
X101765942Y-47184210D01*
X44280074Y-73797825D02*
X44280074Y-70797825D01*
X45994360Y-73797825D02*
X44708646Y-72083539D01*
X45994360Y-70797825D02*
X44280074Y-72512110D01*
X48994360Y-73512110D02*
X48851503Y-73654968D01*
X48851503Y-73654968D02*
X48422931Y-73797825D01*
X48422931Y-73797825D02*
X48137217Y-73797825D01*
X48137217Y-73797825D02*
X47708646Y-73654968D01*
X47708646Y-73654968D02*
X47422931Y-73369253D01*
X47422931Y-73369253D02*
X47280074Y-73083539D01*
X47280074Y-73083539D02*
X47137217Y-72512110D01*
X47137217Y-72512110D02*
X47137217Y-72083539D01*
X47137217Y-72083539D02*
X47280074Y-71512110D01*
X47280074Y-71512110D02*
X47422931Y-71226396D01*
X47422931Y-71226396D02*
X47708646Y-70940682D01*
X47708646Y-70940682D02*
X48137217Y-70797825D01*
X48137217Y-70797825D02*
X48422931Y-70797825D01*
X48422931Y-70797825D02*
X48851503Y-70940682D01*
X48851503Y-70940682D02*
X48994360Y-71083539D01*
X51994360Y-73512110D02*
X51851503Y-73654968D01*
X51851503Y-73654968D02*
X51422931Y-73797825D01*
X51422931Y-73797825D02*
X51137217Y-73797825D01*
X51137217Y-73797825D02*
X50708646Y-73654968D01*
X50708646Y-73654968D02*
X50422931Y-73369253D01*
X50422931Y-73369253D02*
X50280074Y-73083539D01*
X50280074Y-73083539D02*
X50137217Y-72512110D01*
X50137217Y-72512110D02*
X50137217Y-72083539D01*
X50137217Y-72083539D02*
X50280074Y-71512110D01*
X50280074Y-71512110D02*
X50422931Y-71226396D01*
X50422931Y-71226396D02*
X50708646Y-70940682D01*
X50708646Y-70940682D02*
X51137217Y-70797825D01*
X51137217Y-70797825D02*
X51422931Y-70797825D01*
X51422931Y-70797825D02*
X51851503Y-70940682D01*
X51851503Y-70940682D02*
X51994360Y-71083539D01*
X55137217Y-70797825D02*
X56851503Y-70797825D01*
X55994360Y-73797825D02*
X55994360Y-70797825D01*
X58994359Y-73654968D02*
X58708645Y-73797825D01*
X58708645Y-73797825D02*
X58137217Y-73797825D01*
X58137217Y-73797825D02*
X57851502Y-73654968D01*
X57851502Y-73654968D02*
X57708645Y-73369253D01*
X57708645Y-73369253D02*
X57708645Y-72226396D01*
X57708645Y-72226396D02*
X57851502Y-71940682D01*
X57851502Y-71940682D02*
X58137217Y-71797825D01*
X58137217Y-71797825D02*
X58708645Y-71797825D01*
X58708645Y-71797825D02*
X58994359Y-71940682D01*
X58994359Y-71940682D02*
X59137217Y-72226396D01*
X59137217Y-72226396D02*
X59137217Y-72512110D01*
X59137217Y-72512110D02*
X57708645Y-72797825D01*
X61708646Y-73654968D02*
X61422931Y-73797825D01*
X61422931Y-73797825D02*
X60851503Y-73797825D01*
X60851503Y-73797825D02*
X60565788Y-73654968D01*
X60565788Y-73654968D02*
X60422931Y-73512110D01*
X60422931Y-73512110D02*
X60280074Y-73226396D01*
X60280074Y-73226396D02*
X60280074Y-72369253D01*
X60280074Y-72369253D02*
X60422931Y-72083539D01*
X60422931Y-72083539D02*
X60565788Y-71940682D01*
X60565788Y-71940682D02*
X60851503Y-71797825D01*
X60851503Y-71797825D02*
X61422931Y-71797825D01*
X61422931Y-71797825D02*
X61708646Y-71940682D01*
X62994360Y-73797825D02*
X62994360Y-70797825D01*
X64280075Y-73797825D02*
X64280075Y-72226396D01*
X64280075Y-72226396D02*
X64137217Y-71940682D01*
X64137217Y-71940682D02*
X63851503Y-71797825D01*
X63851503Y-71797825D02*
X63422932Y-71797825D01*
X63422932Y-71797825D02*
X63137217Y-71940682D01*
X63137217Y-71940682D02*
X62994360Y-72083539D01*
X67994360Y-73797825D02*
X67994360Y-70797825D01*
X69280075Y-73797825D02*
X69280075Y-72226396D01*
X69280075Y-72226396D02*
X69137217Y-71940682D01*
X69137217Y-71940682D02*
X68851503Y-71797825D01*
X68851503Y-71797825D02*
X68422932Y-71797825D01*
X68422932Y-71797825D02*
X68137217Y-71940682D01*
X68137217Y-71940682D02*
X67994360Y-72083539D01*
X71994361Y-73797825D02*
X71994361Y-72226396D01*
X71994361Y-72226396D02*
X71851503Y-71940682D01*
X71851503Y-71940682D02*
X71565789Y-71797825D01*
X71565789Y-71797825D02*
X70994361Y-71797825D01*
X70994361Y-71797825D02*
X70708646Y-71940682D01*
X71994361Y-73654968D02*
X71708646Y-73797825D01*
X71708646Y-73797825D02*
X70994361Y-73797825D01*
X70994361Y-73797825D02*
X70708646Y-73654968D01*
X70708646Y-73654968D02*
X70565789Y-73369253D01*
X70565789Y-73369253D02*
X70565789Y-73083539D01*
X70565789Y-73083539D02*
X70708646Y-72797825D01*
X70708646Y-72797825D02*
X70994361Y-72654968D01*
X70994361Y-72654968D02*
X71708646Y-72654968D01*
X71708646Y-72654968D02*
X71994361Y-72512110D01*
X72994361Y-71797825D02*
X74137218Y-71797825D01*
X73422932Y-70797825D02*
X73422932Y-73369253D01*
X73422932Y-73369253D02*
X73565789Y-73654968D01*
X73565789Y-73654968D02*
X73851504Y-73797825D01*
X73851504Y-73797825D02*
X74137218Y-73797825D01*
X77422932Y-73797825D02*
X77422932Y-70797825D01*
X77422932Y-71940682D02*
X77708647Y-71797825D01*
X77708647Y-71797825D02*
X78280075Y-71797825D01*
X78280075Y-71797825D02*
X78565789Y-71940682D01*
X78565789Y-71940682D02*
X78708647Y-72083539D01*
X78708647Y-72083539D02*
X78851504Y-72369253D01*
X78851504Y-72369253D02*
X78851504Y-73226396D01*
X78851504Y-73226396D02*
X78708647Y-73512110D01*
X78708647Y-73512110D02*
X78565789Y-73654968D01*
X78565789Y-73654968D02*
X78280075Y-73797825D01*
X78280075Y-73797825D02*
X77708647Y-73797825D01*
X77708647Y-73797825D02*
X77422932Y-73654968D01*
X80565790Y-73797825D02*
X80280075Y-73654968D01*
X80280075Y-73654968D02*
X80137218Y-73512110D01*
X80137218Y-73512110D02*
X79994361Y-73226396D01*
X79994361Y-73226396D02*
X79994361Y-72369253D01*
X79994361Y-72369253D02*
X80137218Y-72083539D01*
X80137218Y-72083539D02*
X80280075Y-71940682D01*
X80280075Y-71940682D02*
X80565790Y-71797825D01*
X80565790Y-71797825D02*
X80994361Y-71797825D01*
X80994361Y-71797825D02*
X81280075Y-71940682D01*
X81280075Y-71940682D02*
X81422933Y-72083539D01*
X81422933Y-72083539D02*
X81565790Y-72369253D01*
X81565790Y-72369253D02*
X81565790Y-73226396D01*
X81565790Y-73226396D02*
X81422933Y-73512110D01*
X81422933Y-73512110D02*
X81280075Y-73654968D01*
X81280075Y-73654968D02*
X80994361Y-73797825D01*
X80994361Y-73797825D02*
X80565790Y-73797825D01*
X84137219Y-73797825D02*
X84137219Y-72226396D01*
X84137219Y-72226396D02*
X83994361Y-71940682D01*
X83994361Y-71940682D02*
X83708647Y-71797825D01*
X83708647Y-71797825D02*
X83137219Y-71797825D01*
X83137219Y-71797825D02*
X82851504Y-71940682D01*
X84137219Y-73654968D02*
X83851504Y-73797825D01*
X83851504Y-73797825D02*
X83137219Y-73797825D01*
X83137219Y-73797825D02*
X82851504Y-73654968D01*
X82851504Y-73654968D02*
X82708647Y-73369253D01*
X82708647Y-73369253D02*
X82708647Y-73083539D01*
X82708647Y-73083539D02*
X82851504Y-72797825D01*
X82851504Y-72797825D02*
X83137219Y-72654968D01*
X83137219Y-72654968D02*
X83851504Y-72654968D01*
X83851504Y-72654968D02*
X84137219Y-72512110D01*
X85565790Y-73797825D02*
X85565790Y-71797825D01*
X85565790Y-72369253D02*
X85708647Y-72083539D01*
X85708647Y-72083539D02*
X85851505Y-71940682D01*
X85851505Y-71940682D02*
X86137219Y-71797825D01*
X86137219Y-71797825D02*
X86422933Y-71797825D01*
X88708648Y-73797825D02*
X88708648Y-70797825D01*
X88708648Y-73654968D02*
X88422933Y-73797825D01*
X88422933Y-73797825D02*
X87851505Y-73797825D01*
X87851505Y-73797825D02*
X87565790Y-73654968D01*
X87565790Y-73654968D02*
X87422933Y-73512110D01*
X87422933Y-73512110D02*
X87280076Y-73226396D01*
X87280076Y-73226396D02*
X87280076Y-72369253D01*
X87280076Y-72369253D02*
X87422933Y-72083539D01*
X87422933Y-72083539D02*
X87565790Y-71940682D01*
X87565790Y-71940682D02*
X87851505Y-71797825D01*
X87851505Y-71797825D02*
X88422933Y-71797825D01*
X88422933Y-71797825D02*
X88708648Y-71940682D01*
X91994362Y-71797825D02*
X93137219Y-71797825D01*
X92422933Y-73797825D02*
X92422933Y-71226396D01*
X92422933Y-71226396D02*
X92565790Y-70940682D01*
X92565790Y-70940682D02*
X92851505Y-70797825D01*
X92851505Y-70797825D02*
X93137219Y-70797825D01*
X94565791Y-73797825D02*
X94280076Y-73654968D01*
X94280076Y-73654968D02*
X94137219Y-73512110D01*
X94137219Y-73512110D02*
X93994362Y-73226396D01*
X93994362Y-73226396D02*
X93994362Y-72369253D01*
X93994362Y-72369253D02*
X94137219Y-72083539D01*
X94137219Y-72083539D02*
X94280076Y-71940682D01*
X94280076Y-71940682D02*
X94565791Y-71797825D01*
X94565791Y-71797825D02*
X94994362Y-71797825D01*
X94994362Y-71797825D02*
X95280076Y-71940682D01*
X95280076Y-71940682D02*
X95422934Y-72083539D01*
X95422934Y-72083539D02*
X95565791Y-72369253D01*
X95565791Y-72369253D02*
X95565791Y-73226396D01*
X95565791Y-73226396D02*
X95422934Y-73512110D01*
X95422934Y-73512110D02*
X95280076Y-73654968D01*
X95280076Y-73654968D02*
X94994362Y-73797825D01*
X94994362Y-73797825D02*
X94565791Y-73797825D01*
X96851505Y-73797825D02*
X96851505Y-71797825D01*
X96851505Y-72369253D02*
X96994362Y-72083539D01*
X96994362Y-72083539D02*
X97137220Y-71940682D01*
X97137220Y-71940682D02*
X97422934Y-71797825D01*
X97422934Y-71797825D02*
X97708648Y-71797825D01*
X100851505Y-73654968D02*
X101280077Y-73797825D01*
X101280077Y-73797825D02*
X101994362Y-73797825D01*
X101994362Y-73797825D02*
X102280077Y-73654968D01*
X102280077Y-73654968D02*
X102422934Y-73512110D01*
X102422934Y-73512110D02*
X102565791Y-73226396D01*
X102565791Y-73226396D02*
X102565791Y-72940682D01*
X102565791Y-72940682D02*
X102422934Y-72654968D01*
X102422934Y-72654968D02*
X102280077Y-72512110D01*
X102280077Y-72512110D02*
X101994362Y-72369253D01*
X101994362Y-72369253D02*
X101422934Y-72226396D01*
X101422934Y-72226396D02*
X101137219Y-72083539D01*
X101137219Y-72083539D02*
X100994362Y-71940682D01*
X100994362Y-71940682D02*
X100851505Y-71654968D01*
X100851505Y-71654968D02*
X100851505Y-71369253D01*
X100851505Y-71369253D02*
X100994362Y-71083539D01*
X100994362Y-71083539D02*
X101137219Y-70940682D01*
X101137219Y-70940682D02*
X101422934Y-70797825D01*
X101422934Y-70797825D02*
X102137219Y-70797825D01*
X102137219Y-70797825D02*
X102565791Y-70940682D01*
X103994362Y-73797825D02*
X104565791Y-73797825D01*
X104565791Y-73797825D02*
X104851505Y-73654968D01*
X104851505Y-73654968D02*
X104994362Y-73512110D01*
X104994362Y-73512110D02*
X105280077Y-73083539D01*
X105280077Y-73083539D02*
X105422934Y-72512110D01*
X105422934Y-72512110D02*
X105422934Y-71369253D01*
X105422934Y-71369253D02*
X105280077Y-71083539D01*
X105280077Y-71083539D02*
X105137220Y-70940682D01*
X105137220Y-70940682D02*
X104851505Y-70797825D01*
X104851505Y-70797825D02*
X104280077Y-70797825D01*
X104280077Y-70797825D02*
X103994362Y-70940682D01*
X103994362Y-70940682D02*
X103851505Y-71083539D01*
X103851505Y-71083539D02*
X103708648Y-71369253D01*
X103708648Y-71369253D02*
X103708648Y-72083539D01*
X103708648Y-72083539D02*
X103851505Y-72369253D01*
X103851505Y-72369253D02*
X103994362Y-72512110D01*
X103994362Y-72512110D02*
X104280077Y-72654968D01*
X104280077Y-72654968D02*
X104851505Y-72654968D01*
X104851505Y-72654968D02*
X105137220Y-72512110D01*
X105137220Y-72512110D02*
X105280077Y-72369253D01*
X105280077Y-72369253D02*
X105422934Y-72083539D01*
X64708643Y-75913371D02*
X64851500Y-75770514D01*
X64851500Y-75770514D02*
X65137215Y-75627657D01*
X65137215Y-75627657D02*
X65851500Y-75627657D01*
X65851500Y-75627657D02*
X66137215Y-75770514D01*
X66137215Y-75770514D02*
X66280072Y-75913371D01*
X66280072Y-75913371D02*
X66422929Y-76199085D01*
X66422929Y-76199085D02*
X66422929Y-76484800D01*
X66422929Y-76484800D02*
X66280072Y-76913371D01*
X66280072Y-76913371D02*
X64565786Y-78627657D01*
X64565786Y-78627657D02*
X66422929Y-78627657D01*
X68280072Y-75627657D02*
X68565786Y-75627657D01*
X68565786Y-75627657D02*
X68851500Y-75770514D01*
X68851500Y-75770514D02*
X68994358Y-75913371D01*
X68994358Y-75913371D02*
X69137215Y-76199085D01*
X69137215Y-76199085D02*
X69280072Y-76770514D01*
X69280072Y-76770514D02*
X69280072Y-77484800D01*
X69280072Y-77484800D02*
X69137215Y-78056228D01*
X69137215Y-78056228D02*
X68994358Y-78341942D01*
X68994358Y-78341942D02*
X68851500Y-78484800D01*
X68851500Y-78484800D02*
X68565786Y-78627657D01*
X68565786Y-78627657D02*
X68280072Y-78627657D01*
X68280072Y-78627657D02*
X67994358Y-78484800D01*
X67994358Y-78484800D02*
X67851500Y-78341942D01*
X67851500Y-78341942D02*
X67708643Y-78056228D01*
X67708643Y-78056228D02*
X67565786Y-77484800D01*
X67565786Y-77484800D02*
X67565786Y-76770514D01*
X67565786Y-76770514D02*
X67708643Y-76199085D01*
X67708643Y-76199085D02*
X67851500Y-75913371D01*
X67851500Y-75913371D02*
X67994358Y-75770514D01*
X67994358Y-75770514D02*
X68280072Y-75627657D01*
X70422929Y-75913371D02*
X70565786Y-75770514D01*
X70565786Y-75770514D02*
X70851501Y-75627657D01*
X70851501Y-75627657D02*
X71565786Y-75627657D01*
X71565786Y-75627657D02*
X71851501Y-75770514D01*
X71851501Y-75770514D02*
X71994358Y-75913371D01*
X71994358Y-75913371D02*
X72137215Y-76199085D01*
X72137215Y-76199085D02*
X72137215Y-76484800D01*
X72137215Y-76484800D02*
X71994358Y-76913371D01*
X71994358Y-76913371D02*
X70280072Y-78627657D01*
X70280072Y-78627657D02*
X72137215Y-78627657D01*
X74851501Y-75627657D02*
X73422929Y-75627657D01*
X73422929Y-75627657D02*
X73280072Y-77056228D01*
X73280072Y-77056228D02*
X73422929Y-76913371D01*
X73422929Y-76913371D02*
X73708644Y-76770514D01*
X73708644Y-76770514D02*
X74422929Y-76770514D01*
X74422929Y-76770514D02*
X74708644Y-76913371D01*
X74708644Y-76913371D02*
X74851501Y-77056228D01*
X74851501Y-77056228D02*
X74994358Y-77341942D01*
X74994358Y-77341942D02*
X74994358Y-78056228D01*
X74994358Y-78056228D02*
X74851501Y-78341942D01*
X74851501Y-78341942D02*
X74708644Y-78484800D01*
X74708644Y-78484800D02*
X74422929Y-78627657D01*
X74422929Y-78627657D02*
X73708644Y-78627657D01*
X73708644Y-78627657D02*
X73422929Y-78484800D01*
X73422929Y-78484800D02*
X73280072Y-78341942D01*
X78280072Y-76627657D02*
X78994358Y-78627657D01*
X78994358Y-78627657D02*
X79708643Y-76627657D01*
X84708643Y-78627657D02*
X82994357Y-78627657D01*
X83851500Y-78627657D02*
X83851500Y-75627657D01*
X83851500Y-75627657D02*
X83565786Y-76056228D01*
X83565786Y-76056228D02*
X83280071Y-76341942D01*
X83280071Y-76341942D02*
X82994357Y-76484800D01*
X85994357Y-78341942D02*
X86137214Y-78484800D01*
X86137214Y-78484800D02*
X85994357Y-78627657D01*
X85994357Y-78627657D02*
X85851500Y-78484800D01*
X85851500Y-78484800D02*
X85994357Y-78341942D01*
X85994357Y-78341942D02*
X85994357Y-78627657D01*
X88994357Y-78627657D02*
X87280071Y-78627657D01*
X88137214Y-78627657D02*
X88137214Y-75627657D01*
X88137214Y-75627657D02*
X87851500Y-76056228D01*
X87851500Y-76056228D02*
X87565785Y-76341942D01*
X87565785Y-76341942D02*
X87280071Y-76484800D01*
X28093255Y-48469925D02*
X28093255Y-48946115D01*
X28093255Y-48946115D02*
X27293255Y-48946115D01*
X27369445Y-48184210D02*
X27331350Y-48136591D01*
X27331350Y-48136591D02*
X27293255Y-48041353D01*
X27293255Y-48041353D02*
X27293255Y-47803258D01*
X27293255Y-47803258D02*
X27331350Y-47708020D01*
X27331350Y-47708020D02*
X27369445Y-47660401D01*
X27369445Y-47660401D02*
X27445636Y-47612782D01*
X27445636Y-47612782D02*
X27521826Y-47612782D01*
X27521826Y-47612782D02*
X27636112Y-47660401D01*
X27636112Y-47660401D02*
X28093255Y-48231829D01*
X28093255Y-48231829D02*
X28093255Y-47612782D01*
X27293255Y-46993734D02*
X27293255Y-46898496D01*
X27293255Y-46898496D02*
X27331350Y-46803258D01*
X27331350Y-46803258D02*
X27369445Y-46755639D01*
X27369445Y-46755639D02*
X27445636Y-46708020D01*
X27445636Y-46708020D02*
X27598017Y-46660401D01*
X27598017Y-46660401D02*
X27788493Y-46660401D01*
X27788493Y-46660401D02*
X27940874Y-46708020D01*
X27940874Y-46708020D02*
X28017064Y-46755639D01*
X28017064Y-46755639D02*
X28055160Y-46803258D01*
X28055160Y-46803258D02*
X28093255Y-46898496D01*
X28093255Y-46898496D02*
X28093255Y-46993734D01*
X28093255Y-46993734D02*
X28055160Y-47088972D01*
X28055160Y-47088972D02*
X28017064Y-47136591D01*
X28017064Y-47136591D02*
X27940874Y-47184210D01*
X27940874Y-47184210D02*
X27788493Y-47231829D01*
X27788493Y-47231829D02*
X27598017Y-47231829D01*
X27598017Y-47231829D02*
X27445636Y-47184210D01*
X27445636Y-47184210D02*
X27369445Y-47136591D01*
X27369445Y-47136591D02*
X27331350Y-47088972D01*
X27331350Y-47088972D02*
X27293255Y-46993734D01*
X28093255Y-46231829D02*
X27293255Y-46231829D01*
X27293255Y-46231829D02*
X28093255Y-45660401D01*
X28093255Y-45660401D02*
X27293255Y-45660401D01*
X30669165Y-48469925D02*
X30669165Y-48946115D01*
X30669165Y-48946115D02*
X29869165Y-48946115D01*
X29945355Y-48184210D02*
X29907260Y-48136591D01*
X29907260Y-48136591D02*
X29869165Y-48041353D01*
X29869165Y-48041353D02*
X29869165Y-47803258D01*
X29869165Y-47803258D02*
X29907260Y-47708020D01*
X29907260Y-47708020D02*
X29945355Y-47660401D01*
X29945355Y-47660401D02*
X30021546Y-47612782D01*
X30021546Y-47612782D02*
X30097736Y-47612782D01*
X30097736Y-47612782D02*
X30212022Y-47660401D01*
X30212022Y-47660401D02*
X30669165Y-48231829D01*
X30669165Y-48231829D02*
X30669165Y-47612782D01*
X29869165Y-46993734D02*
X29869165Y-46898496D01*
X29869165Y-46898496D02*
X29907260Y-46803258D01*
X29907260Y-46803258D02*
X29945355Y-46755639D01*
X29945355Y-46755639D02*
X30021546Y-46708020D01*
X30021546Y-46708020D02*
X30173927Y-46660401D01*
X30173927Y-46660401D02*
X30364403Y-46660401D01*
X30364403Y-46660401D02*
X30516784Y-46708020D01*
X30516784Y-46708020D02*
X30592974Y-46755639D01*
X30592974Y-46755639D02*
X30631070Y-46803258D01*
X30631070Y-46803258D02*
X30669165Y-46898496D01*
X30669165Y-46898496D02*
X30669165Y-46993734D01*
X30669165Y-46993734D02*
X30631070Y-47088972D01*
X30631070Y-47088972D02*
X30592974Y-47136591D01*
X30592974Y-47136591D02*
X30516784Y-47184210D01*
X30516784Y-47184210D02*
X30364403Y-47231829D01*
X30364403Y-47231829D02*
X30173927Y-47231829D01*
X30173927Y-47231829D02*
X30021546Y-47184210D01*
X30021546Y-47184210D02*
X29945355Y-47136591D01*
X29945355Y-47136591D02*
X29907260Y-47088972D01*
X29907260Y-47088972D02*
X29869165Y-46993734D01*
X30669165Y-46231829D02*
X29869165Y-46231829D01*
X29869165Y-46231829D02*
X29869165Y-45850877D01*
X29869165Y-45850877D02*
X29907260Y-45755639D01*
X29907260Y-45755639D02*
X29945355Y-45708020D01*
X29945355Y-45708020D02*
X30021546Y-45660401D01*
X30021546Y-45660401D02*
X30135831Y-45660401D01*
X30135831Y-45660401D02*
X30212022Y-45708020D01*
X30212022Y-45708020D02*
X30250117Y-45755639D01*
X30250117Y-45755639D02*
X30288212Y-45850877D01*
X30288212Y-45850877D02*
X30288212Y-46231829D01*
X33245075Y-48469925D02*
X33245075Y-48946115D01*
X33245075Y-48946115D02*
X32445075Y-48946115D01*
X33245075Y-47612782D02*
X33245075Y-48184210D01*
X33245075Y-47898496D02*
X32445075Y-47898496D01*
X32445075Y-47898496D02*
X32559360Y-47993734D01*
X32559360Y-47993734D02*
X32635551Y-48088972D01*
X32635551Y-48088972D02*
X32673646Y-48184210D01*
X33245075Y-47136591D02*
X33245075Y-46946115D01*
X33245075Y-46946115D02*
X33206980Y-46850877D01*
X33206980Y-46850877D02*
X33168884Y-46803258D01*
X33168884Y-46803258D02*
X33054599Y-46708020D01*
X33054599Y-46708020D02*
X32902218Y-46660401D01*
X32902218Y-46660401D02*
X32597456Y-46660401D01*
X32597456Y-46660401D02*
X32521265Y-46708020D01*
X32521265Y-46708020D02*
X32483170Y-46755639D01*
X32483170Y-46755639D02*
X32445075Y-46850877D01*
X32445075Y-46850877D02*
X32445075Y-47041353D01*
X32445075Y-47041353D02*
X32483170Y-47136591D01*
X32483170Y-47136591D02*
X32521265Y-47184210D01*
X32521265Y-47184210D02*
X32597456Y-47231829D01*
X32597456Y-47231829D02*
X32787932Y-47231829D01*
X32787932Y-47231829D02*
X32864122Y-47184210D01*
X32864122Y-47184210D02*
X32902218Y-47136591D01*
X32902218Y-47136591D02*
X32940313Y-47041353D01*
X32940313Y-47041353D02*
X32940313Y-46850877D01*
X32940313Y-46850877D02*
X32902218Y-46755639D01*
X32902218Y-46755639D02*
X32864122Y-46708020D01*
X32864122Y-46708020D02*
X32787932Y-46660401D01*
X33245075Y-46231829D02*
X32445075Y-46231829D01*
X32445075Y-46231829D02*
X33245075Y-45660401D01*
X33245075Y-45660401D02*
X32445075Y-45660401D01*
X35820985Y-48469925D02*
X35820985Y-48946115D01*
X35820985Y-48946115D02*
X35020985Y-48946115D01*
X35820985Y-47612782D02*
X35820985Y-48184210D01*
X35820985Y-47898496D02*
X35020985Y-47898496D01*
X35020985Y-47898496D02*
X35135270Y-47993734D01*
X35135270Y-47993734D02*
X35211461Y-48088972D01*
X35211461Y-48088972D02*
X35249556Y-48184210D01*
X35820985Y-47136591D02*
X35820985Y-46946115D01*
X35820985Y-46946115D02*
X35782890Y-46850877D01*
X35782890Y-46850877D02*
X35744794Y-46803258D01*
X35744794Y-46803258D02*
X35630509Y-46708020D01*
X35630509Y-46708020D02*
X35478128Y-46660401D01*
X35478128Y-46660401D02*
X35173366Y-46660401D01*
X35173366Y-46660401D02*
X35097175Y-46708020D01*
X35097175Y-46708020D02*
X35059080Y-46755639D01*
X35059080Y-46755639D02*
X35020985Y-46850877D01*
X35020985Y-46850877D02*
X35020985Y-47041353D01*
X35020985Y-47041353D02*
X35059080Y-47136591D01*
X35059080Y-47136591D02*
X35097175Y-47184210D01*
X35097175Y-47184210D02*
X35173366Y-47231829D01*
X35173366Y-47231829D02*
X35363842Y-47231829D01*
X35363842Y-47231829D02*
X35440032Y-47184210D01*
X35440032Y-47184210D02*
X35478128Y-47136591D01*
X35478128Y-47136591D02*
X35516223Y-47041353D01*
X35516223Y-47041353D02*
X35516223Y-46850877D01*
X35516223Y-46850877D02*
X35478128Y-46755639D01*
X35478128Y-46755639D02*
X35440032Y-46708020D01*
X35440032Y-46708020D02*
X35363842Y-46660401D01*
X35820985Y-46231829D02*
X35020985Y-46231829D01*
X35020985Y-46231829D02*
X35020985Y-45850877D01*
X35020985Y-45850877D02*
X35059080Y-45755639D01*
X35059080Y-45755639D02*
X35097175Y-45708020D01*
X35097175Y-45708020D02*
X35173366Y-45660401D01*
X35173366Y-45660401D02*
X35287651Y-45660401D01*
X35287651Y-45660401D02*
X35363842Y-45708020D01*
X35363842Y-45708020D02*
X35401937Y-45755639D01*
X35401937Y-45755639D02*
X35440032Y-45850877D01*
X35440032Y-45850877D02*
X35440032Y-46231829D01*
X37634990Y-48422306D02*
X37596895Y-48517544D01*
X37596895Y-48517544D02*
X37596895Y-48660401D01*
X37596895Y-48660401D02*
X37634990Y-48803258D01*
X37634990Y-48803258D02*
X37711180Y-48898496D01*
X37711180Y-48898496D02*
X37787371Y-48946115D01*
X37787371Y-48946115D02*
X37939752Y-48993734D01*
X37939752Y-48993734D02*
X38054038Y-48993734D01*
X38054038Y-48993734D02*
X38206419Y-48946115D01*
X38206419Y-48946115D02*
X38282609Y-48898496D01*
X38282609Y-48898496D02*
X38358800Y-48803258D01*
X38358800Y-48803258D02*
X38396895Y-48660401D01*
X38396895Y-48660401D02*
X38396895Y-48565163D01*
X38396895Y-48565163D02*
X38358800Y-48422306D01*
X38358800Y-48422306D02*
X38320704Y-48374687D01*
X38320704Y-48374687D02*
X38054038Y-48374687D01*
X38054038Y-48374687D02*
X38054038Y-48565163D01*
X38396895Y-47946115D02*
X37596895Y-47946115D01*
X37596895Y-47946115D02*
X38396895Y-47374687D01*
X38396895Y-47374687D02*
X37596895Y-47374687D01*
X38396895Y-46898496D02*
X37596895Y-46898496D01*
X37596895Y-46898496D02*
X37596895Y-46660401D01*
X37596895Y-46660401D02*
X37634990Y-46517544D01*
X37634990Y-46517544D02*
X37711180Y-46422306D01*
X37711180Y-46422306D02*
X37787371Y-46374687D01*
X37787371Y-46374687D02*
X37939752Y-46327068D01*
X37939752Y-46327068D02*
X38054038Y-46327068D01*
X38054038Y-46327068D02*
X38206419Y-46374687D01*
X38206419Y-46374687D02*
X38282609Y-46422306D01*
X38282609Y-46422306D02*
X38358800Y-46517544D01*
X38358800Y-46517544D02*
X38396895Y-46660401D01*
X38396895Y-46660401D02*
X38396895Y-46898496D01*
X116396895Y-48469925D02*
X116396895Y-48946115D01*
X116396895Y-48946115D02*
X115596895Y-48946115D01*
X116396895Y-47612782D02*
X116396895Y-48184210D01*
X116396895Y-47898496D02*
X115596895Y-47898496D01*
X115596895Y-47898496D02*
X115711180Y-47993734D01*
X115711180Y-47993734D02*
X115787371Y-48088972D01*
X115787371Y-48088972D02*
X115825466Y-48184210D01*
X116396895Y-47184210D02*
X115596895Y-47184210D01*
X115596895Y-47184210D02*
X116396895Y-46612782D01*
X116396895Y-46612782D02*
X115596895Y-46612782D01*
X67443161Y-103196115D02*
X66593161Y-103196115D01*
X66593161Y-103196115D02*
X67200304Y-102862782D01*
X67200304Y-102862782D02*
X66593161Y-102529449D01*
X66593161Y-102529449D02*
X67443161Y-102529449D01*
X67443161Y-102053258D02*
X66593161Y-102053258D01*
X66593161Y-101386592D02*
X66593161Y-101196116D01*
X66593161Y-101196116D02*
X66633637Y-101100878D01*
X66633637Y-101100878D02*
X66714589Y-101005640D01*
X66714589Y-101005640D02*
X66876494Y-100958021D01*
X66876494Y-100958021D02*
X67159827Y-100958021D01*
X67159827Y-100958021D02*
X67321732Y-101005640D01*
X67321732Y-101005640D02*
X67402685Y-101100878D01*
X67402685Y-101100878D02*
X67443161Y-101196116D01*
X67443161Y-101196116D02*
X67443161Y-101386592D01*
X67443161Y-101386592D02*
X67402685Y-101481830D01*
X67402685Y-101481830D02*
X67321732Y-101577068D01*
X67321732Y-101577068D02*
X67159827Y-101624687D01*
X67159827Y-101624687D02*
X66876494Y-101624687D01*
X66876494Y-101624687D02*
X66714589Y-101577068D01*
X66714589Y-101577068D02*
X66633637Y-101481830D01*
X66633637Y-101481830D02*
X66593161Y-101386592D01*
X66593161Y-100624687D02*
X66593161Y-100005640D01*
X66593161Y-100005640D02*
X66916970Y-100338973D01*
X66916970Y-100338973D02*
X66916970Y-100196116D01*
X66916970Y-100196116D02*
X66957446Y-100100878D01*
X66957446Y-100100878D02*
X66997923Y-100053259D01*
X66997923Y-100053259D02*
X67078875Y-100005640D01*
X67078875Y-100005640D02*
X67281256Y-100005640D01*
X67281256Y-100005640D02*
X67362208Y-100053259D01*
X67362208Y-100053259D02*
X67402685Y-100100878D01*
X67402685Y-100100878D02*
X67443161Y-100196116D01*
X67443161Y-100196116D02*
X67443161Y-100481830D01*
X67443161Y-100481830D02*
X67402685Y-100577068D01*
X67402685Y-100577068D02*
X67362208Y-100624687D01*
X66593161Y-99672306D02*
X66593161Y-99005640D01*
X66593161Y-99005640D02*
X67443161Y-99434211D01*
X70180065Y-103196115D02*
X69330065Y-103196115D01*
X69330065Y-103196115D02*
X69937208Y-102862782D01*
X69937208Y-102862782D02*
X69330065Y-102529449D01*
X69330065Y-102529449D02*
X70180065Y-102529449D01*
X70180065Y-102053258D02*
X69330065Y-102053258D01*
X69330065Y-101386592D02*
X69330065Y-101196116D01*
X69330065Y-101196116D02*
X69370541Y-101100878D01*
X69370541Y-101100878D02*
X69451493Y-101005640D01*
X69451493Y-101005640D02*
X69613398Y-100958021D01*
X69613398Y-100958021D02*
X69896731Y-100958021D01*
X69896731Y-100958021D02*
X70058636Y-101005640D01*
X70058636Y-101005640D02*
X70139589Y-101100878D01*
X70139589Y-101100878D02*
X70180065Y-101196116D01*
X70180065Y-101196116D02*
X70180065Y-101386592D01*
X70180065Y-101386592D02*
X70139589Y-101481830D01*
X70139589Y-101481830D02*
X70058636Y-101577068D01*
X70058636Y-101577068D02*
X69896731Y-101624687D01*
X69896731Y-101624687D02*
X69613398Y-101624687D01*
X69613398Y-101624687D02*
X69451493Y-101577068D01*
X69451493Y-101577068D02*
X69370541Y-101481830D01*
X69370541Y-101481830D02*
X69330065Y-101386592D01*
X69330065Y-100624687D02*
X69330065Y-100005640D01*
X69330065Y-100005640D02*
X69653874Y-100338973D01*
X69653874Y-100338973D02*
X69653874Y-100196116D01*
X69653874Y-100196116D02*
X69694350Y-100100878D01*
X69694350Y-100100878D02*
X69734827Y-100053259D01*
X69734827Y-100053259D02*
X69815779Y-100005640D01*
X69815779Y-100005640D02*
X70018160Y-100005640D01*
X70018160Y-100005640D02*
X70099112Y-100053259D01*
X70099112Y-100053259D02*
X70139589Y-100100878D01*
X70139589Y-100100878D02*
X70180065Y-100196116D01*
X70180065Y-100196116D02*
X70180065Y-100481830D01*
X70180065Y-100481830D02*
X70139589Y-100577068D01*
X70139589Y-100577068D02*
X70099112Y-100624687D01*
X69694350Y-99434211D02*
X69653874Y-99529449D01*
X69653874Y-99529449D02*
X69613398Y-99577068D01*
X69613398Y-99577068D02*
X69532446Y-99624687D01*
X69532446Y-99624687D02*
X69491969Y-99624687D01*
X69491969Y-99624687D02*
X69411017Y-99577068D01*
X69411017Y-99577068D02*
X69370541Y-99529449D01*
X69370541Y-99529449D02*
X69330065Y-99434211D01*
X69330065Y-99434211D02*
X69330065Y-99243735D01*
X69330065Y-99243735D02*
X69370541Y-99148497D01*
X69370541Y-99148497D02*
X69411017Y-99100878D01*
X69411017Y-99100878D02*
X69491969Y-99053259D01*
X69491969Y-99053259D02*
X69532446Y-99053259D01*
X69532446Y-99053259D02*
X69613398Y-99100878D01*
X69613398Y-99100878D02*
X69653874Y-99148497D01*
X69653874Y-99148497D02*
X69694350Y-99243735D01*
X69694350Y-99243735D02*
X69694350Y-99434211D01*
X69694350Y-99434211D02*
X69734827Y-99529449D01*
X69734827Y-99529449D02*
X69775303Y-99577068D01*
X69775303Y-99577068D02*
X69856255Y-99624687D01*
X69856255Y-99624687D02*
X70018160Y-99624687D01*
X70018160Y-99624687D02*
X70099112Y-99577068D01*
X70099112Y-99577068D02*
X70139589Y-99529449D01*
X70139589Y-99529449D02*
X70180065Y-99434211D01*
X70180065Y-99434211D02*
X70180065Y-99243735D01*
X70180065Y-99243735D02*
X70139589Y-99148497D01*
X70139589Y-99148497D02*
X70099112Y-99100878D01*
X70099112Y-99100878D02*
X70018160Y-99053259D01*
X70018160Y-99053259D02*
X69856255Y-99053259D01*
X69856255Y-99053259D02*
X69775303Y-99100878D01*
X69775303Y-99100878D02*
X69734827Y-99148497D01*
X69734827Y-99148497D02*
X69694350Y-99243735D01*
X72916969Y-103196115D02*
X72066969Y-103196115D01*
X72066969Y-103196115D02*
X72674112Y-102862782D01*
X72674112Y-102862782D02*
X72066969Y-102529449D01*
X72066969Y-102529449D02*
X72916969Y-102529449D01*
X72916969Y-102053258D02*
X72066969Y-102053258D01*
X72066969Y-101386592D02*
X72066969Y-101196116D01*
X72066969Y-101196116D02*
X72107445Y-101100878D01*
X72107445Y-101100878D02*
X72188397Y-101005640D01*
X72188397Y-101005640D02*
X72350302Y-100958021D01*
X72350302Y-100958021D02*
X72633635Y-100958021D01*
X72633635Y-100958021D02*
X72795540Y-101005640D01*
X72795540Y-101005640D02*
X72876493Y-101100878D01*
X72876493Y-101100878D02*
X72916969Y-101196116D01*
X72916969Y-101196116D02*
X72916969Y-101386592D01*
X72916969Y-101386592D02*
X72876493Y-101481830D01*
X72876493Y-101481830D02*
X72795540Y-101577068D01*
X72795540Y-101577068D02*
X72633635Y-101624687D01*
X72633635Y-101624687D02*
X72350302Y-101624687D01*
X72350302Y-101624687D02*
X72188397Y-101577068D01*
X72188397Y-101577068D02*
X72107445Y-101481830D01*
X72107445Y-101481830D02*
X72066969Y-101386592D01*
X72066969Y-100624687D02*
X72066969Y-100005640D01*
X72066969Y-100005640D02*
X72390778Y-100338973D01*
X72390778Y-100338973D02*
X72390778Y-100196116D01*
X72390778Y-100196116D02*
X72431254Y-100100878D01*
X72431254Y-100100878D02*
X72471731Y-100053259D01*
X72471731Y-100053259D02*
X72552683Y-100005640D01*
X72552683Y-100005640D02*
X72755064Y-100005640D01*
X72755064Y-100005640D02*
X72836016Y-100053259D01*
X72836016Y-100053259D02*
X72876493Y-100100878D01*
X72876493Y-100100878D02*
X72916969Y-100196116D01*
X72916969Y-100196116D02*
X72916969Y-100481830D01*
X72916969Y-100481830D02*
X72876493Y-100577068D01*
X72876493Y-100577068D02*
X72836016Y-100624687D01*
X72916969Y-99529449D02*
X72916969Y-99338973D01*
X72916969Y-99338973D02*
X72876493Y-99243735D01*
X72876493Y-99243735D02*
X72836016Y-99196116D01*
X72836016Y-99196116D02*
X72714588Y-99100878D01*
X72714588Y-99100878D02*
X72552683Y-99053259D01*
X72552683Y-99053259D02*
X72228873Y-99053259D01*
X72228873Y-99053259D02*
X72147921Y-99100878D01*
X72147921Y-99100878D02*
X72107445Y-99148497D01*
X72107445Y-99148497D02*
X72066969Y-99243735D01*
X72066969Y-99243735D02*
X72066969Y-99434211D01*
X72066969Y-99434211D02*
X72107445Y-99529449D01*
X72107445Y-99529449D02*
X72147921Y-99577068D01*
X72147921Y-99577068D02*
X72228873Y-99624687D01*
X72228873Y-99624687D02*
X72431254Y-99624687D01*
X72431254Y-99624687D02*
X72512207Y-99577068D01*
X72512207Y-99577068D02*
X72552683Y-99529449D01*
X72552683Y-99529449D02*
X72593159Y-99434211D01*
X72593159Y-99434211D02*
X72593159Y-99243735D01*
X72593159Y-99243735D02*
X72552683Y-99148497D01*
X72552683Y-99148497D02*
X72512207Y-99100878D01*
X72512207Y-99100878D02*
X72431254Y-99053259D01*
X75653873Y-102624687D02*
X75249111Y-102958020D01*
X75653873Y-103196115D02*
X74803873Y-103196115D01*
X74803873Y-103196115D02*
X74803873Y-102815163D01*
X74803873Y-102815163D02*
X74844349Y-102719925D01*
X74844349Y-102719925D02*
X74884825Y-102672306D01*
X74884825Y-102672306D02*
X74965777Y-102624687D01*
X74965777Y-102624687D02*
X75087206Y-102624687D01*
X75087206Y-102624687D02*
X75168158Y-102672306D01*
X75168158Y-102672306D02*
X75208635Y-102719925D01*
X75208635Y-102719925D02*
X75249111Y-102815163D01*
X75249111Y-102815163D02*
X75249111Y-103196115D01*
X75613397Y-102243734D02*
X75653873Y-102100877D01*
X75653873Y-102100877D02*
X75653873Y-101862782D01*
X75653873Y-101862782D02*
X75613397Y-101767544D01*
X75613397Y-101767544D02*
X75572920Y-101719925D01*
X75572920Y-101719925D02*
X75491968Y-101672306D01*
X75491968Y-101672306D02*
X75411016Y-101672306D01*
X75411016Y-101672306D02*
X75330063Y-101719925D01*
X75330063Y-101719925D02*
X75289587Y-101767544D01*
X75289587Y-101767544D02*
X75249111Y-101862782D01*
X75249111Y-101862782D02*
X75208635Y-102053258D01*
X75208635Y-102053258D02*
X75168158Y-102148496D01*
X75168158Y-102148496D02*
X75127682Y-102196115D01*
X75127682Y-102196115D02*
X75046730Y-102243734D01*
X75046730Y-102243734D02*
X74965777Y-102243734D01*
X74965777Y-102243734D02*
X74884825Y-102196115D01*
X74884825Y-102196115D02*
X74844349Y-102148496D01*
X74844349Y-102148496D02*
X74803873Y-102053258D01*
X74803873Y-102053258D02*
X74803873Y-101815163D01*
X74803873Y-101815163D02*
X74844349Y-101672306D01*
X74803873Y-101386591D02*
X74803873Y-100815163D01*
X75653873Y-101100877D02*
X74803873Y-101100877D01*
X77621729Y-103243734D02*
X77581253Y-103196115D01*
X77581253Y-103196115D02*
X77540777Y-103100877D01*
X77540777Y-103100877D02*
X77540777Y-102862782D01*
X77540777Y-102862782D02*
X77581253Y-102767544D01*
X77581253Y-102767544D02*
X77621729Y-102719925D01*
X77621729Y-102719925D02*
X77702681Y-102672306D01*
X77702681Y-102672306D02*
X77783634Y-102672306D01*
X77783634Y-102672306D02*
X77905062Y-102719925D01*
X77905062Y-102719925D02*
X78390777Y-103291353D01*
X78390777Y-103291353D02*
X78390777Y-102672306D01*
X78309824Y-102243734D02*
X78350301Y-102196115D01*
X78350301Y-102196115D02*
X78390777Y-102243734D01*
X78390777Y-102243734D02*
X78350301Y-102291353D01*
X78350301Y-102291353D02*
X78309824Y-102243734D01*
X78309824Y-102243734D02*
X78390777Y-102243734D01*
X77540777Y-101291354D02*
X77540777Y-101767544D01*
X77540777Y-101767544D02*
X77945539Y-101815163D01*
X77945539Y-101815163D02*
X77905062Y-101767544D01*
X77905062Y-101767544D02*
X77864586Y-101672306D01*
X77864586Y-101672306D02*
X77864586Y-101434211D01*
X77864586Y-101434211D02*
X77905062Y-101338973D01*
X77905062Y-101338973D02*
X77945539Y-101291354D01*
X77945539Y-101291354D02*
X78026491Y-101243735D01*
X78026491Y-101243735D02*
X78228872Y-101243735D01*
X78228872Y-101243735D02*
X78309824Y-101291354D01*
X78309824Y-101291354D02*
X78350301Y-101338973D01*
X78350301Y-101338973D02*
X78390777Y-101434211D01*
X78390777Y-101434211D02*
X78390777Y-101672306D01*
X78390777Y-101672306D02*
X78350301Y-101767544D01*
X78350301Y-101767544D02*
X78309824Y-101815163D01*
X77540777Y-100958020D02*
X78390777Y-100624687D01*
X78390777Y-100624687D02*
X77540777Y-100291354D01*
X78471729Y-100196116D02*
X78471729Y-99434211D01*
X78390777Y-99196115D02*
X77540777Y-99196115D01*
X77540777Y-98529449D02*
X77540777Y-98338973D01*
X77540777Y-98338973D02*
X77581253Y-98243735D01*
X77581253Y-98243735D02*
X77662205Y-98148497D01*
X77662205Y-98148497D02*
X77824110Y-98100878D01*
X77824110Y-98100878D02*
X78107443Y-98100878D01*
X78107443Y-98100878D02*
X78269348Y-98148497D01*
X78269348Y-98148497D02*
X78350301Y-98243735D01*
X78350301Y-98243735D02*
X78390777Y-98338973D01*
X78390777Y-98338973D02*
X78390777Y-98529449D01*
X78390777Y-98529449D02*
X78350301Y-98624687D01*
X78350301Y-98624687D02*
X78269348Y-98719925D01*
X78269348Y-98719925D02*
X78107443Y-98767544D01*
X78107443Y-98767544D02*
X77824110Y-98767544D01*
X77824110Y-98767544D02*
X77662205Y-98719925D01*
X77662205Y-98719925D02*
X77581253Y-98624687D01*
X77581253Y-98624687D02*
X77540777Y-98529449D01*
D12*
X49054819Y-103738094D02*
X48054819Y-103738094D01*
X48054819Y-103738094D02*
X48054819Y-103499999D01*
X48054819Y-103499999D02*
X48102438Y-103357142D01*
X48102438Y-103357142D02*
X48197676Y-103261904D01*
X48197676Y-103261904D02*
X48292914Y-103214285D01*
X48292914Y-103214285D02*
X48483390Y-103166666D01*
X48483390Y-103166666D02*
X48626247Y-103166666D01*
X48626247Y-103166666D02*
X48816723Y-103214285D01*
X48816723Y-103214285D02*
X48911961Y-103261904D01*
X48911961Y-103261904D02*
X49007200Y-103357142D01*
X49007200Y-103357142D02*
X49054819Y-103499999D01*
X49054819Y-103499999D02*
X49054819Y-103738094D01*
X48483390Y-102595237D02*
X48435771Y-102690475D01*
X48435771Y-102690475D02*
X48388152Y-102738094D01*
X48388152Y-102738094D02*
X48292914Y-102785713D01*
X48292914Y-102785713D02*
X48245295Y-102785713D01*
X48245295Y-102785713D02*
X48150057Y-102738094D01*
X48150057Y-102738094D02*
X48102438Y-102690475D01*
X48102438Y-102690475D02*
X48054819Y-102595237D01*
X48054819Y-102595237D02*
X48054819Y-102404761D01*
X48054819Y-102404761D02*
X48102438Y-102309523D01*
X48102438Y-102309523D02*
X48150057Y-102261904D01*
X48150057Y-102261904D02*
X48245295Y-102214285D01*
X48245295Y-102214285D02*
X48292914Y-102214285D01*
X48292914Y-102214285D02*
X48388152Y-102261904D01*
X48388152Y-102261904D02*
X48435771Y-102309523D01*
X48435771Y-102309523D02*
X48483390Y-102404761D01*
X48483390Y-102404761D02*
X48483390Y-102595237D01*
X48483390Y-102595237D02*
X48531009Y-102690475D01*
X48531009Y-102690475D02*
X48578628Y-102738094D01*
X48578628Y-102738094D02*
X48673866Y-102785713D01*
X48673866Y-102785713D02*
X48864342Y-102785713D01*
X48864342Y-102785713D02*
X48959580Y-102738094D01*
X48959580Y-102738094D02*
X49007200Y-102690475D01*
X49007200Y-102690475D02*
X49054819Y-102595237D01*
X49054819Y-102595237D02*
X49054819Y-102404761D01*
X49054819Y-102404761D02*
X49007200Y-102309523D01*
X49007200Y-102309523D02*
X48959580Y-102261904D01*
X48959580Y-102261904D02*
X48864342Y-102214285D01*
X48864342Y-102214285D02*
X48673866Y-102214285D01*
X48673866Y-102214285D02*
X48578628Y-102261904D01*
X48578628Y-102261904D02*
X48531009Y-102309523D01*
X48531009Y-102309523D02*
X48483390Y-102404761D01*
X28440476Y-102954819D02*
X28440476Y-103669104D01*
X28440476Y-103669104D02*
X28392857Y-103811961D01*
X28392857Y-103811961D02*
X28297619Y-103907200D01*
X28297619Y-103907200D02*
X28154762Y-103954819D01*
X28154762Y-103954819D02*
X28059524Y-103954819D01*
X29440476Y-103954819D02*
X28869048Y-103954819D01*
X29154762Y-103954819D02*
X29154762Y-102954819D01*
X29154762Y-102954819D02*
X29059524Y-103097676D01*
X29059524Y-103097676D02*
X28964286Y-103192914D01*
X28964286Y-103192914D02*
X28869048Y-103240533D01*
X30297619Y-103288152D02*
X30297619Y-103954819D01*
X30059524Y-102907200D02*
X29821429Y-103621485D01*
X29821429Y-103621485D02*
X30440476Y-103621485D01*
X122454819Y-44609523D02*
X123169104Y-44609523D01*
X123169104Y-44609523D02*
X123311961Y-44657142D01*
X123311961Y-44657142D02*
X123407200Y-44752380D01*
X123407200Y-44752380D02*
X123454819Y-44895237D01*
X123454819Y-44895237D02*
X123454819Y-44990475D01*
X123454819Y-43609523D02*
X123454819Y-44180951D01*
X123454819Y-43895237D02*
X122454819Y-43895237D01*
X122454819Y-43895237D02*
X122597676Y-43990475D01*
X122597676Y-43990475D02*
X122692914Y-44085713D01*
X122692914Y-44085713D02*
X122740533Y-44180951D01*
X122454819Y-42752380D02*
X122454819Y-42942856D01*
X122454819Y-42942856D02*
X122502438Y-43038094D01*
X122502438Y-43038094D02*
X122550057Y-43085713D01*
X122550057Y-43085713D02*
X122692914Y-43180951D01*
X122692914Y-43180951D02*
X122883390Y-43228570D01*
X122883390Y-43228570D02*
X123264342Y-43228570D01*
X123264342Y-43228570D02*
X123359580Y-43180951D01*
X123359580Y-43180951D02*
X123407200Y-43133332D01*
X123407200Y-43133332D02*
X123454819Y-43038094D01*
X123454819Y-43038094D02*
X123454819Y-42847618D01*
X123454819Y-42847618D02*
X123407200Y-42752380D01*
X123407200Y-42752380D02*
X123359580Y-42704761D01*
X123359580Y-42704761D02*
X123264342Y-42657142D01*
X123264342Y-42657142D02*
X123026247Y-42657142D01*
X123026247Y-42657142D02*
X122931009Y-42704761D01*
X122931009Y-42704761D02*
X122883390Y-42752380D01*
X122883390Y-42752380D02*
X122835771Y-42847618D01*
X122835771Y-42847618D02*
X122835771Y-43038094D01*
X122835771Y-43038094D02*
X122883390Y-43133332D01*
X122883390Y-43133332D02*
X122931009Y-43180951D01*
X122931009Y-43180951D02*
X123026247Y-43228570D01*
D13*
X34877318Y-110593094D02*
X35784461Y-110593094D01*
X35784461Y-110593094D02*
X35965889Y-110653571D01*
X35965889Y-110653571D02*
X36086842Y-110774523D01*
X36086842Y-110774523D02*
X36147318Y-110955952D01*
X36147318Y-110955952D02*
X36147318Y-111076904D01*
X36147318Y-109323094D02*
X36147318Y-110048809D01*
X36147318Y-109685952D02*
X34877318Y-109685952D01*
X34877318Y-109685952D02*
X35058746Y-109806904D01*
X35058746Y-109806904D02*
X35179699Y-109927856D01*
X35179699Y-109927856D02*
X35240175Y-110048809D01*
X34877318Y-108174047D02*
X34877318Y-108778809D01*
X34877318Y-108778809D02*
X35482080Y-108839285D01*
X35482080Y-108839285D02*
X35421603Y-108778809D01*
X35421603Y-108778809D02*
X35361127Y-108657856D01*
X35361127Y-108657856D02*
X35361127Y-108355475D01*
X35361127Y-108355475D02*
X35421603Y-108234523D01*
X35421603Y-108234523D02*
X35482080Y-108174047D01*
X35482080Y-108174047D02*
X35603032Y-108113570D01*
X35603032Y-108113570D02*
X35905413Y-108113570D01*
X35905413Y-108113570D02*
X36026365Y-108174047D01*
X36026365Y-108174047D02*
X36086842Y-108234523D01*
X36086842Y-108234523D02*
X36147318Y-108355475D01*
X36147318Y-108355475D02*
X36147318Y-108657856D01*
X36147318Y-108657856D02*
X36086842Y-108778809D01*
X36086842Y-108778809D02*
X36026365Y-108839285D01*
D12*
X48988095Y-80204819D02*
X49559523Y-80204819D01*
X49273809Y-81204819D02*
X49273809Y-80204819D01*
X49892857Y-81204819D02*
X49892857Y-80204819D01*
X49892857Y-80204819D02*
X50273809Y-80204819D01*
X50273809Y-80204819D02*
X50369047Y-80252438D01*
X50369047Y-80252438D02*
X50416666Y-80300057D01*
X50416666Y-80300057D02*
X50464285Y-80395295D01*
X50464285Y-80395295D02*
X50464285Y-80538152D01*
X50464285Y-80538152D02*
X50416666Y-80633390D01*
X50416666Y-80633390D02*
X50369047Y-80681009D01*
X50369047Y-80681009D02*
X50273809Y-80728628D01*
X50273809Y-80728628D02*
X49892857Y-80728628D01*
X50845238Y-80300057D02*
X50892857Y-80252438D01*
X50892857Y-80252438D02*
X50988095Y-80204819D01*
X50988095Y-80204819D02*
X51226190Y-80204819D01*
X51226190Y-80204819D02*
X51321428Y-80252438D01*
X51321428Y-80252438D02*
X51369047Y-80300057D01*
X51369047Y-80300057D02*
X51416666Y-80395295D01*
X51416666Y-80395295D02*
X51416666Y-80490533D01*
X51416666Y-80490533D02*
X51369047Y-80633390D01*
X51369047Y-80633390D02*
X50797619Y-81204819D01*
X50797619Y-81204819D02*
X51416666Y-81204819D01*
X29450476Y-88454819D02*
X29450476Y-89169104D01*
X29450476Y-89169104D02*
X29402857Y-89311961D01*
X29402857Y-89311961D02*
X29307619Y-89407200D01*
X29307619Y-89407200D02*
X29164762Y-89454819D01*
X29164762Y-89454819D02*
X29069524Y-89454819D01*
X30450476Y-89454819D02*
X29879048Y-89454819D01*
X30164762Y-89454819D02*
X30164762Y-88454819D01*
X30164762Y-88454819D02*
X30069524Y-88597676D01*
X30069524Y-88597676D02*
X29974286Y-88692914D01*
X29974286Y-88692914D02*
X29879048Y-88740533D01*
X30783810Y-88454819D02*
X31402857Y-88454819D01*
X31402857Y-88454819D02*
X31069524Y-88835771D01*
X31069524Y-88835771D02*
X31212381Y-88835771D01*
X31212381Y-88835771D02*
X31307619Y-88883390D01*
X31307619Y-88883390D02*
X31355238Y-88931009D01*
X31355238Y-88931009D02*
X31402857Y-89026247D01*
X31402857Y-89026247D02*
X31402857Y-89264342D01*
X31402857Y-89264342D02*
X31355238Y-89359580D01*
X31355238Y-89359580D02*
X31307619Y-89407200D01*
X31307619Y-89407200D02*
X31212381Y-89454819D01*
X31212381Y-89454819D02*
X30926667Y-89454819D01*
X30926667Y-89454819D02*
X30831429Y-89407200D01*
X30831429Y-89407200D02*
X30783810Y-89359580D01*
X48988095Y-76454819D02*
X49559523Y-76454819D01*
X49273809Y-77454819D02*
X49273809Y-76454819D01*
X49892857Y-77454819D02*
X49892857Y-76454819D01*
X49892857Y-76454819D02*
X50273809Y-76454819D01*
X50273809Y-76454819D02*
X50369047Y-76502438D01*
X50369047Y-76502438D02*
X50416666Y-76550057D01*
X50416666Y-76550057D02*
X50464285Y-76645295D01*
X50464285Y-76645295D02*
X50464285Y-76788152D01*
X50464285Y-76788152D02*
X50416666Y-76883390D01*
X50416666Y-76883390D02*
X50369047Y-76931009D01*
X50369047Y-76931009D02*
X50273809Y-76978628D01*
X50273809Y-76978628D02*
X49892857Y-76978628D01*
X51321428Y-76788152D02*
X51321428Y-77454819D01*
X51083333Y-76407200D02*
X50845238Y-77121485D01*
X50845238Y-77121485D02*
X51464285Y-77121485D01*
X42454819Y-85438094D02*
X41454819Y-85438094D01*
X41454819Y-85438094D02*
X41454819Y-85199999D01*
X41454819Y-85199999D02*
X41502438Y-85057142D01*
X41502438Y-85057142D02*
X41597676Y-84961904D01*
X41597676Y-84961904D02*
X41692914Y-84914285D01*
X41692914Y-84914285D02*
X41883390Y-84866666D01*
X41883390Y-84866666D02*
X42026247Y-84866666D01*
X42026247Y-84866666D02*
X42216723Y-84914285D01*
X42216723Y-84914285D02*
X42311961Y-84961904D01*
X42311961Y-84961904D02*
X42407200Y-85057142D01*
X42407200Y-85057142D02*
X42454819Y-85199999D01*
X42454819Y-85199999D02*
X42454819Y-85438094D01*
X41454819Y-84009523D02*
X41454819Y-84199999D01*
X41454819Y-84199999D02*
X41502438Y-84295237D01*
X41502438Y-84295237D02*
X41550057Y-84342856D01*
X41550057Y-84342856D02*
X41692914Y-84438094D01*
X41692914Y-84438094D02*
X41883390Y-84485713D01*
X41883390Y-84485713D02*
X42264342Y-84485713D01*
X42264342Y-84485713D02*
X42359580Y-84438094D01*
X42359580Y-84438094D02*
X42407200Y-84390475D01*
X42407200Y-84390475D02*
X42454819Y-84295237D01*
X42454819Y-84295237D02*
X42454819Y-84104761D01*
X42454819Y-84104761D02*
X42407200Y-84009523D01*
X42407200Y-84009523D02*
X42359580Y-83961904D01*
X42359580Y-83961904D02*
X42264342Y-83914285D01*
X42264342Y-83914285D02*
X42026247Y-83914285D01*
X42026247Y-83914285D02*
X41931009Y-83961904D01*
X41931009Y-83961904D02*
X41883390Y-84009523D01*
X41883390Y-84009523D02*
X41835771Y-84104761D01*
X41835771Y-84104761D02*
X41835771Y-84295237D01*
X41835771Y-84295237D02*
X41883390Y-84390475D01*
X41883390Y-84390475D02*
X41931009Y-84438094D01*
X41931009Y-84438094D02*
X42026247Y-84485713D01*
X107013333Y-83614580D02*
X106965714Y-83662200D01*
X106965714Y-83662200D02*
X106822857Y-83709819D01*
X106822857Y-83709819D02*
X106727619Y-83709819D01*
X106727619Y-83709819D02*
X106584762Y-83662200D01*
X106584762Y-83662200D02*
X106489524Y-83566961D01*
X106489524Y-83566961D02*
X106441905Y-83471723D01*
X106441905Y-83471723D02*
X106394286Y-83281247D01*
X106394286Y-83281247D02*
X106394286Y-83138390D01*
X106394286Y-83138390D02*
X106441905Y-82947914D01*
X106441905Y-82947914D02*
X106489524Y-82852676D01*
X106489524Y-82852676D02*
X106584762Y-82757438D01*
X106584762Y-82757438D02*
X106727619Y-82709819D01*
X106727619Y-82709819D02*
X106822857Y-82709819D01*
X106822857Y-82709819D02*
X106965714Y-82757438D01*
X106965714Y-82757438D02*
X107013333Y-82805057D01*
X107394286Y-82805057D02*
X107441905Y-82757438D01*
X107441905Y-82757438D02*
X107537143Y-82709819D01*
X107537143Y-82709819D02*
X107775238Y-82709819D01*
X107775238Y-82709819D02*
X107870476Y-82757438D01*
X107870476Y-82757438D02*
X107918095Y-82805057D01*
X107918095Y-82805057D02*
X107965714Y-82900295D01*
X107965714Y-82900295D02*
X107965714Y-82995533D01*
X107965714Y-82995533D02*
X107918095Y-83138390D01*
X107918095Y-83138390D02*
X107346667Y-83709819D01*
X107346667Y-83709819D02*
X107965714Y-83709819D01*
X53988095Y-81704819D02*
X54559523Y-81704819D01*
X54273809Y-82704819D02*
X54273809Y-81704819D01*
X54892857Y-82704819D02*
X54892857Y-81704819D01*
X54892857Y-81704819D02*
X55273809Y-81704819D01*
X55273809Y-81704819D02*
X55369047Y-81752438D01*
X55369047Y-81752438D02*
X55416666Y-81800057D01*
X55416666Y-81800057D02*
X55464285Y-81895295D01*
X55464285Y-81895295D02*
X55464285Y-82038152D01*
X55464285Y-82038152D02*
X55416666Y-82133390D01*
X55416666Y-82133390D02*
X55369047Y-82181009D01*
X55369047Y-82181009D02*
X55273809Y-82228628D01*
X55273809Y-82228628D02*
X54892857Y-82228628D01*
X56416666Y-82704819D02*
X55845238Y-82704819D01*
X56130952Y-82704819D02*
X56130952Y-81704819D01*
X56130952Y-81704819D02*
X56035714Y-81847676D01*
X56035714Y-81847676D02*
X55940476Y-81942914D01*
X55940476Y-81942914D02*
X55845238Y-81990533D01*
X112333333Y-83359580D02*
X112285714Y-83407200D01*
X112285714Y-83407200D02*
X112142857Y-83454819D01*
X112142857Y-83454819D02*
X112047619Y-83454819D01*
X112047619Y-83454819D02*
X111904762Y-83407200D01*
X111904762Y-83407200D02*
X111809524Y-83311961D01*
X111809524Y-83311961D02*
X111761905Y-83216723D01*
X111761905Y-83216723D02*
X111714286Y-83026247D01*
X111714286Y-83026247D02*
X111714286Y-82883390D01*
X111714286Y-82883390D02*
X111761905Y-82692914D01*
X111761905Y-82692914D02*
X111809524Y-82597676D01*
X111809524Y-82597676D02*
X111904762Y-82502438D01*
X111904762Y-82502438D02*
X112047619Y-82454819D01*
X112047619Y-82454819D02*
X112142857Y-82454819D01*
X112142857Y-82454819D02*
X112285714Y-82502438D01*
X112285714Y-82502438D02*
X112333333Y-82550057D01*
X113285714Y-83454819D02*
X112714286Y-83454819D01*
X113000000Y-83454819D02*
X113000000Y-82454819D01*
X113000000Y-82454819D02*
X112904762Y-82597676D01*
X112904762Y-82597676D02*
X112809524Y-82692914D01*
X112809524Y-82692914D02*
X112714286Y-82740533D01*
X45988095Y-76454819D02*
X46559523Y-76454819D01*
X46273809Y-77454819D02*
X46273809Y-76454819D01*
X46892857Y-77454819D02*
X46892857Y-76454819D01*
X46892857Y-76454819D02*
X47273809Y-76454819D01*
X47273809Y-76454819D02*
X47369047Y-76502438D01*
X47369047Y-76502438D02*
X47416666Y-76550057D01*
X47416666Y-76550057D02*
X47464285Y-76645295D01*
X47464285Y-76645295D02*
X47464285Y-76788152D01*
X47464285Y-76788152D02*
X47416666Y-76883390D01*
X47416666Y-76883390D02*
X47369047Y-76931009D01*
X47369047Y-76931009D02*
X47273809Y-76978628D01*
X47273809Y-76978628D02*
X46892857Y-76978628D01*
X48321428Y-76454819D02*
X48130952Y-76454819D01*
X48130952Y-76454819D02*
X48035714Y-76502438D01*
X48035714Y-76502438D02*
X47988095Y-76550057D01*
X47988095Y-76550057D02*
X47892857Y-76692914D01*
X47892857Y-76692914D02*
X47845238Y-76883390D01*
X47845238Y-76883390D02*
X47845238Y-77264342D01*
X47845238Y-77264342D02*
X47892857Y-77359580D01*
X47892857Y-77359580D02*
X47940476Y-77407200D01*
X47940476Y-77407200D02*
X48035714Y-77454819D01*
X48035714Y-77454819D02*
X48226190Y-77454819D01*
X48226190Y-77454819D02*
X48321428Y-77407200D01*
X48321428Y-77407200D02*
X48369047Y-77359580D01*
X48369047Y-77359580D02*
X48416666Y-77264342D01*
X48416666Y-77264342D02*
X48416666Y-77026247D01*
X48416666Y-77026247D02*
X48369047Y-76931009D01*
X48369047Y-76931009D02*
X48321428Y-76883390D01*
X48321428Y-76883390D02*
X48226190Y-76835771D01*
X48226190Y-76835771D02*
X48035714Y-76835771D01*
X48035714Y-76835771D02*
X47940476Y-76883390D01*
X47940476Y-76883390D02*
X47892857Y-76931009D01*
X47892857Y-76931009D02*
X47845238Y-77026247D01*
X41654819Y-72938094D02*
X40654819Y-72938094D01*
X40654819Y-72938094D02*
X40654819Y-72699999D01*
X40654819Y-72699999D02*
X40702438Y-72557142D01*
X40702438Y-72557142D02*
X40797676Y-72461904D01*
X40797676Y-72461904D02*
X40892914Y-72414285D01*
X40892914Y-72414285D02*
X41083390Y-72366666D01*
X41083390Y-72366666D02*
X41226247Y-72366666D01*
X41226247Y-72366666D02*
X41416723Y-72414285D01*
X41416723Y-72414285D02*
X41511961Y-72461904D01*
X41511961Y-72461904D02*
X41607200Y-72557142D01*
X41607200Y-72557142D02*
X41654819Y-72699999D01*
X41654819Y-72699999D02*
X41654819Y-72938094D01*
X40654819Y-72033332D02*
X40654819Y-71366666D01*
X40654819Y-71366666D02*
X41654819Y-71795237D01*
X106913333Y-79714580D02*
X106865714Y-79762200D01*
X106865714Y-79762200D02*
X106722857Y-79809819D01*
X106722857Y-79809819D02*
X106627619Y-79809819D01*
X106627619Y-79809819D02*
X106484762Y-79762200D01*
X106484762Y-79762200D02*
X106389524Y-79666961D01*
X106389524Y-79666961D02*
X106341905Y-79571723D01*
X106341905Y-79571723D02*
X106294286Y-79381247D01*
X106294286Y-79381247D02*
X106294286Y-79238390D01*
X106294286Y-79238390D02*
X106341905Y-79047914D01*
X106341905Y-79047914D02*
X106389524Y-78952676D01*
X106389524Y-78952676D02*
X106484762Y-78857438D01*
X106484762Y-78857438D02*
X106627619Y-78809819D01*
X106627619Y-78809819D02*
X106722857Y-78809819D01*
X106722857Y-78809819D02*
X106865714Y-78857438D01*
X106865714Y-78857438D02*
X106913333Y-78905057D01*
X107246667Y-78809819D02*
X107865714Y-78809819D01*
X107865714Y-78809819D02*
X107532381Y-79190771D01*
X107532381Y-79190771D02*
X107675238Y-79190771D01*
X107675238Y-79190771D02*
X107770476Y-79238390D01*
X107770476Y-79238390D02*
X107818095Y-79286009D01*
X107818095Y-79286009D02*
X107865714Y-79381247D01*
X107865714Y-79381247D02*
X107865714Y-79619342D01*
X107865714Y-79619342D02*
X107818095Y-79714580D01*
X107818095Y-79714580D02*
X107770476Y-79762200D01*
X107770476Y-79762200D02*
X107675238Y-79809819D01*
X107675238Y-79809819D02*
X107389524Y-79809819D01*
X107389524Y-79809819D02*
X107294286Y-79762200D01*
X107294286Y-79762200D02*
X107246667Y-79714580D01*
X53988095Y-78204819D02*
X54559523Y-78204819D01*
X54273809Y-79204819D02*
X54273809Y-78204819D01*
X54892857Y-79204819D02*
X54892857Y-78204819D01*
X54892857Y-78204819D02*
X55273809Y-78204819D01*
X55273809Y-78204819D02*
X55369047Y-78252438D01*
X55369047Y-78252438D02*
X55416666Y-78300057D01*
X55416666Y-78300057D02*
X55464285Y-78395295D01*
X55464285Y-78395295D02*
X55464285Y-78538152D01*
X55464285Y-78538152D02*
X55416666Y-78633390D01*
X55416666Y-78633390D02*
X55369047Y-78681009D01*
X55369047Y-78681009D02*
X55273809Y-78728628D01*
X55273809Y-78728628D02*
X54892857Y-78728628D01*
X55797619Y-78204819D02*
X56416666Y-78204819D01*
X56416666Y-78204819D02*
X56083333Y-78585771D01*
X56083333Y-78585771D02*
X56226190Y-78585771D01*
X56226190Y-78585771D02*
X56321428Y-78633390D01*
X56321428Y-78633390D02*
X56369047Y-78681009D01*
X56369047Y-78681009D02*
X56416666Y-78776247D01*
X56416666Y-78776247D02*
X56416666Y-79014342D01*
X56416666Y-79014342D02*
X56369047Y-79109580D01*
X56369047Y-79109580D02*
X56321428Y-79157200D01*
X56321428Y-79157200D02*
X56226190Y-79204819D01*
X56226190Y-79204819D02*
X55940476Y-79204819D01*
X55940476Y-79204819D02*
X55845238Y-79157200D01*
X55845238Y-79157200D02*
X55797619Y-79109580D01*
X45838095Y-80306819D02*
X46409523Y-80306819D01*
X46123809Y-81306819D02*
X46123809Y-80306819D01*
X46742857Y-81306819D02*
X46742857Y-80306819D01*
X46742857Y-80306819D02*
X47123809Y-80306819D01*
X47123809Y-80306819D02*
X47219047Y-80354438D01*
X47219047Y-80354438D02*
X47266666Y-80402057D01*
X47266666Y-80402057D02*
X47314285Y-80497295D01*
X47314285Y-80497295D02*
X47314285Y-80640152D01*
X47314285Y-80640152D02*
X47266666Y-80735390D01*
X47266666Y-80735390D02*
X47219047Y-80783009D01*
X47219047Y-80783009D02*
X47123809Y-80830628D01*
X47123809Y-80830628D02*
X46742857Y-80830628D01*
X48219047Y-80306819D02*
X47742857Y-80306819D01*
X47742857Y-80306819D02*
X47695238Y-80783009D01*
X47695238Y-80783009D02*
X47742857Y-80735390D01*
X47742857Y-80735390D02*
X47838095Y-80687771D01*
X47838095Y-80687771D02*
X48076190Y-80687771D01*
X48076190Y-80687771D02*
X48171428Y-80735390D01*
X48171428Y-80735390D02*
X48219047Y-80783009D01*
X48219047Y-80783009D02*
X48266666Y-80878247D01*
X48266666Y-80878247D02*
X48266666Y-81116342D01*
X48266666Y-81116342D02*
X48219047Y-81211580D01*
X48219047Y-81211580D02*
X48171428Y-81259200D01*
X48171428Y-81259200D02*
X48076190Y-81306819D01*
X48076190Y-81306819D02*
X47838095Y-81306819D01*
X47838095Y-81306819D02*
X47742857Y-81259200D01*
X47742857Y-81259200D02*
X47695238Y-81211580D01*
X64354819Y-105809523D02*
X65069104Y-105809523D01*
X65069104Y-105809523D02*
X65211961Y-105857142D01*
X65211961Y-105857142D02*
X65307200Y-105952380D01*
X65307200Y-105952380D02*
X65354819Y-106095237D01*
X65354819Y-106095237D02*
X65354819Y-106190475D01*
X65354819Y-104809523D02*
X65354819Y-105380951D01*
X65354819Y-105095237D02*
X64354819Y-105095237D01*
X64354819Y-105095237D02*
X64497676Y-105190475D01*
X64497676Y-105190475D02*
X64592914Y-105285713D01*
X64592914Y-105285713D02*
X64640533Y-105380951D01*
X65354819Y-103857142D02*
X65354819Y-104428570D01*
X65354819Y-104142856D02*
X64354819Y-104142856D01*
X64354819Y-104142856D02*
X64497676Y-104238094D01*
X64497676Y-104238094D02*
X64592914Y-104333332D01*
X64592914Y-104333332D02*
X64640533Y-104428570D01*
X42554819Y-98638094D02*
X41554819Y-98638094D01*
X41554819Y-98638094D02*
X41554819Y-98399999D01*
X41554819Y-98399999D02*
X41602438Y-98257142D01*
X41602438Y-98257142D02*
X41697676Y-98161904D01*
X41697676Y-98161904D02*
X41792914Y-98114285D01*
X41792914Y-98114285D02*
X41983390Y-98066666D01*
X41983390Y-98066666D02*
X42126247Y-98066666D01*
X42126247Y-98066666D02*
X42316723Y-98114285D01*
X42316723Y-98114285D02*
X42411961Y-98161904D01*
X42411961Y-98161904D02*
X42507200Y-98257142D01*
X42507200Y-98257142D02*
X42554819Y-98399999D01*
X42554819Y-98399999D02*
X42554819Y-98638094D01*
X42554819Y-97114285D02*
X42554819Y-97685713D01*
X42554819Y-97399999D02*
X41554819Y-97399999D01*
X41554819Y-97399999D02*
X41697676Y-97495237D01*
X41697676Y-97495237D02*
X41792914Y-97590475D01*
X41792914Y-97590475D02*
X41840533Y-97685713D01*
X52554819Y-103938094D02*
X51554819Y-103938094D01*
X51554819Y-103938094D02*
X51554819Y-103699999D01*
X51554819Y-103699999D02*
X51602438Y-103557142D01*
X51602438Y-103557142D02*
X51697676Y-103461904D01*
X51697676Y-103461904D02*
X51792914Y-103414285D01*
X51792914Y-103414285D02*
X51983390Y-103366666D01*
X51983390Y-103366666D02*
X52126247Y-103366666D01*
X52126247Y-103366666D02*
X52316723Y-103414285D01*
X52316723Y-103414285D02*
X52411961Y-103461904D01*
X52411961Y-103461904D02*
X52507200Y-103557142D01*
X52507200Y-103557142D02*
X52554819Y-103699999D01*
X52554819Y-103699999D02*
X52554819Y-103938094D01*
X51650057Y-102985713D02*
X51602438Y-102938094D01*
X51602438Y-102938094D02*
X51554819Y-102842856D01*
X51554819Y-102842856D02*
X51554819Y-102604761D01*
X51554819Y-102604761D02*
X51602438Y-102509523D01*
X51602438Y-102509523D02*
X51650057Y-102461904D01*
X51650057Y-102461904D02*
X51745295Y-102414285D01*
X51745295Y-102414285D02*
X51840533Y-102414285D01*
X51840533Y-102414285D02*
X51983390Y-102461904D01*
X51983390Y-102461904D02*
X52554819Y-103033332D01*
X52554819Y-103033332D02*
X52554819Y-102414285D01*
X102266666Y-67564819D02*
X102266666Y-68279104D01*
X102266666Y-68279104D02*
X102219047Y-68421961D01*
X102219047Y-68421961D02*
X102123809Y-68517200D01*
X102123809Y-68517200D02*
X101980952Y-68564819D01*
X101980952Y-68564819D02*
X101885714Y-68564819D01*
X102695238Y-67660057D02*
X102742857Y-67612438D01*
X102742857Y-67612438D02*
X102838095Y-67564819D01*
X102838095Y-67564819D02*
X103076190Y-67564819D01*
X103076190Y-67564819D02*
X103171428Y-67612438D01*
X103171428Y-67612438D02*
X103219047Y-67660057D01*
X103219047Y-67660057D02*
X103266666Y-67755295D01*
X103266666Y-67755295D02*
X103266666Y-67850533D01*
X103266666Y-67850533D02*
X103219047Y-67993390D01*
X103219047Y-67993390D02*
X102647619Y-68564819D01*
X102647619Y-68564819D02*
X103266666Y-68564819D01*
X38566666Y-67564819D02*
X38566666Y-68279104D01*
X38566666Y-68279104D02*
X38519047Y-68421961D01*
X38519047Y-68421961D02*
X38423809Y-68517200D01*
X38423809Y-68517200D02*
X38280952Y-68564819D01*
X38280952Y-68564819D02*
X38185714Y-68564819D01*
X39185714Y-67993390D02*
X39090476Y-67945771D01*
X39090476Y-67945771D02*
X39042857Y-67898152D01*
X39042857Y-67898152D02*
X38995238Y-67802914D01*
X38995238Y-67802914D02*
X38995238Y-67755295D01*
X38995238Y-67755295D02*
X39042857Y-67660057D01*
X39042857Y-67660057D02*
X39090476Y-67612438D01*
X39090476Y-67612438D02*
X39185714Y-67564819D01*
X39185714Y-67564819D02*
X39376190Y-67564819D01*
X39376190Y-67564819D02*
X39471428Y-67612438D01*
X39471428Y-67612438D02*
X39519047Y-67660057D01*
X39519047Y-67660057D02*
X39566666Y-67755295D01*
X39566666Y-67755295D02*
X39566666Y-67802914D01*
X39566666Y-67802914D02*
X39519047Y-67898152D01*
X39519047Y-67898152D02*
X39471428Y-67945771D01*
X39471428Y-67945771D02*
X39376190Y-67993390D01*
X39376190Y-67993390D02*
X39185714Y-67993390D01*
X39185714Y-67993390D02*
X39090476Y-68041009D01*
X39090476Y-68041009D02*
X39042857Y-68088628D01*
X39042857Y-68088628D02*
X38995238Y-68183866D01*
X38995238Y-68183866D02*
X38995238Y-68374342D01*
X38995238Y-68374342D02*
X39042857Y-68469580D01*
X39042857Y-68469580D02*
X39090476Y-68517200D01*
X39090476Y-68517200D02*
X39185714Y-68564819D01*
X39185714Y-68564819D02*
X39376190Y-68564819D01*
X39376190Y-68564819D02*
X39471428Y-68517200D01*
X39471428Y-68517200D02*
X39519047Y-68469580D01*
X39519047Y-68469580D02*
X39566666Y-68374342D01*
X39566666Y-68374342D02*
X39566666Y-68183866D01*
X39566666Y-68183866D02*
X39519047Y-68088628D01*
X39519047Y-68088628D02*
X39471428Y-68041009D01*
X39471428Y-68041009D02*
X39376190Y-67993390D01*
X49266666Y-67564819D02*
X49266666Y-68279104D01*
X49266666Y-68279104D02*
X49219047Y-68421961D01*
X49219047Y-68421961D02*
X49123809Y-68517200D01*
X49123809Y-68517200D02*
X48980952Y-68564819D01*
X48980952Y-68564819D02*
X48885714Y-68564819D01*
X49647619Y-67564819D02*
X50314285Y-67564819D01*
X50314285Y-67564819D02*
X49885714Y-68564819D01*
X59966666Y-67564819D02*
X59966666Y-68279104D01*
X59966666Y-68279104D02*
X59919047Y-68421961D01*
X59919047Y-68421961D02*
X59823809Y-68517200D01*
X59823809Y-68517200D02*
X59680952Y-68564819D01*
X59680952Y-68564819D02*
X59585714Y-68564819D01*
X60871428Y-67564819D02*
X60680952Y-67564819D01*
X60680952Y-67564819D02*
X60585714Y-67612438D01*
X60585714Y-67612438D02*
X60538095Y-67660057D01*
X60538095Y-67660057D02*
X60442857Y-67802914D01*
X60442857Y-67802914D02*
X60395238Y-67993390D01*
X60395238Y-67993390D02*
X60395238Y-68374342D01*
X60395238Y-68374342D02*
X60442857Y-68469580D01*
X60442857Y-68469580D02*
X60490476Y-68517200D01*
X60490476Y-68517200D02*
X60585714Y-68564819D01*
X60585714Y-68564819D02*
X60776190Y-68564819D01*
X60776190Y-68564819D02*
X60871428Y-68517200D01*
X60871428Y-68517200D02*
X60919047Y-68469580D01*
X60919047Y-68469580D02*
X60966666Y-68374342D01*
X60966666Y-68374342D02*
X60966666Y-68136247D01*
X60966666Y-68136247D02*
X60919047Y-68041009D01*
X60919047Y-68041009D02*
X60871428Y-67993390D01*
X60871428Y-67993390D02*
X60776190Y-67945771D01*
X60776190Y-67945771D02*
X60585714Y-67945771D01*
X60585714Y-67945771D02*
X60490476Y-67993390D01*
X60490476Y-67993390D02*
X60442857Y-68041009D01*
X60442857Y-68041009D02*
X60395238Y-68136247D01*
X81566666Y-67564819D02*
X81566666Y-68279104D01*
X81566666Y-68279104D02*
X81519047Y-68421961D01*
X81519047Y-68421961D02*
X81423809Y-68517200D01*
X81423809Y-68517200D02*
X81280952Y-68564819D01*
X81280952Y-68564819D02*
X81185714Y-68564819D01*
X82471428Y-67898152D02*
X82471428Y-68564819D01*
X82233333Y-67517200D02*
X81995238Y-68231485D01*
X81995238Y-68231485D02*
X82614285Y-68231485D01*
X70766666Y-67564819D02*
X70766666Y-68279104D01*
X70766666Y-68279104D02*
X70719047Y-68421961D01*
X70719047Y-68421961D02*
X70623809Y-68517200D01*
X70623809Y-68517200D02*
X70480952Y-68564819D01*
X70480952Y-68564819D02*
X70385714Y-68564819D01*
X71719047Y-67564819D02*
X71242857Y-67564819D01*
X71242857Y-67564819D02*
X71195238Y-68041009D01*
X71195238Y-68041009D02*
X71242857Y-67993390D01*
X71242857Y-67993390D02*
X71338095Y-67945771D01*
X71338095Y-67945771D02*
X71576190Y-67945771D01*
X71576190Y-67945771D02*
X71671428Y-67993390D01*
X71671428Y-67993390D02*
X71719047Y-68041009D01*
X71719047Y-68041009D02*
X71766666Y-68136247D01*
X71766666Y-68136247D02*
X71766666Y-68374342D01*
X71766666Y-68374342D02*
X71719047Y-68469580D01*
X71719047Y-68469580D02*
X71671428Y-68517200D01*
X71671428Y-68517200D02*
X71576190Y-68564819D01*
X71576190Y-68564819D02*
X71338095Y-68564819D01*
X71338095Y-68564819D02*
X71242857Y-68517200D01*
X71242857Y-68517200D02*
X71195238Y-68469580D01*
X112466666Y-67464819D02*
X112466666Y-68179104D01*
X112466666Y-68179104D02*
X112419047Y-68321961D01*
X112419047Y-68321961D02*
X112323809Y-68417200D01*
X112323809Y-68417200D02*
X112180952Y-68464819D01*
X112180952Y-68464819D02*
X112085714Y-68464819D01*
X113466666Y-68464819D02*
X112895238Y-68464819D01*
X113180952Y-68464819D02*
X113180952Y-67464819D01*
X113180952Y-67464819D02*
X113085714Y-67607676D01*
X113085714Y-67607676D02*
X112990476Y-67702914D01*
X112990476Y-67702914D02*
X112895238Y-67750533D01*
X28166666Y-67564819D02*
X28166666Y-68279104D01*
X28166666Y-68279104D02*
X28119047Y-68421961D01*
X28119047Y-68421961D02*
X28023809Y-68517200D01*
X28023809Y-68517200D02*
X27880952Y-68564819D01*
X27880952Y-68564819D02*
X27785714Y-68564819D01*
X28690476Y-68564819D02*
X28880952Y-68564819D01*
X28880952Y-68564819D02*
X28976190Y-68517200D01*
X28976190Y-68517200D02*
X29023809Y-68469580D01*
X29023809Y-68469580D02*
X29119047Y-68326723D01*
X29119047Y-68326723D02*
X29166666Y-68136247D01*
X29166666Y-68136247D02*
X29166666Y-67755295D01*
X29166666Y-67755295D02*
X29119047Y-67660057D01*
X29119047Y-67660057D02*
X29071428Y-67612438D01*
X29071428Y-67612438D02*
X28976190Y-67564819D01*
X28976190Y-67564819D02*
X28785714Y-67564819D01*
X28785714Y-67564819D02*
X28690476Y-67612438D01*
X28690476Y-67612438D02*
X28642857Y-67660057D01*
X28642857Y-67660057D02*
X28595238Y-67755295D01*
X28595238Y-67755295D02*
X28595238Y-67993390D01*
X28595238Y-67993390D02*
X28642857Y-68088628D01*
X28642857Y-68088628D02*
X28690476Y-68136247D01*
X28690476Y-68136247D02*
X28785714Y-68183866D01*
X28785714Y-68183866D02*
X28976190Y-68183866D01*
X28976190Y-68183866D02*
X29071428Y-68136247D01*
X29071428Y-68136247D02*
X29119047Y-68088628D01*
X29119047Y-68088628D02*
X29166666Y-67993390D01*
X92066666Y-67564819D02*
X92066666Y-68279104D01*
X92066666Y-68279104D02*
X92019047Y-68421961D01*
X92019047Y-68421961D02*
X91923809Y-68517200D01*
X91923809Y-68517200D02*
X91780952Y-68564819D01*
X91780952Y-68564819D02*
X91685714Y-68564819D01*
X92447619Y-67564819D02*
X93066666Y-67564819D01*
X93066666Y-67564819D02*
X92733333Y-67945771D01*
X92733333Y-67945771D02*
X92876190Y-67945771D01*
X92876190Y-67945771D02*
X92971428Y-67993390D01*
X92971428Y-67993390D02*
X93019047Y-68041009D01*
X93019047Y-68041009D02*
X93066666Y-68136247D01*
X93066666Y-68136247D02*
X93066666Y-68374342D01*
X93066666Y-68374342D02*
X93019047Y-68469580D01*
X93019047Y-68469580D02*
X92971428Y-68517200D01*
X92971428Y-68517200D02*
X92876190Y-68564819D01*
X92876190Y-68564819D02*
X92590476Y-68564819D01*
X92590476Y-68564819D02*
X92495238Y-68517200D01*
X92495238Y-68517200D02*
X92447619Y-68469580D01*
D14*
%TO.C,D8*%
X47115000Y-104327500D02*
X47115000Y-108387500D01*
X50285000Y-104327500D02*
X47115000Y-104327500D01*
X50285000Y-108387500D02*
X50285000Y-104327500D01*
%TO.C,J14*%
X29215316Y-92394174D02*
X30915316Y-92394174D01*
X29215316Y-101734174D02*
X30915316Y-101734174D01*
%TO.C,J16*%
X26600000Y-42620000D02*
X26600000Y-45380000D01*
X118150000Y-42620000D02*
X26600000Y-42620000D01*
X118150000Y-42620000D02*
X118150000Y-45380000D01*
X118150000Y-45380000D02*
X26600000Y-45380000D01*
X119420000Y-42620000D02*
X120800000Y-42620000D01*
X120800000Y-42620000D02*
X120800000Y-44000000D01*
D15*
%TO.C,J15*%
X25301000Y-106240000D02*
X25301000Y-112890000D01*
X25301000Y-106240000D02*
X35941000Y-106240000D01*
X25301000Y-112890000D02*
X36158000Y-112890000D01*
X45543000Y-109465000D02*
X45543000Y-109465000D01*
X45543000Y-109665000D02*
X45543000Y-109665000D01*
X45543000Y-109465000D02*
G75*
G02*
X45543000Y-109665000I0J-100000D01*
G01*
X45543000Y-109665000D02*
G75*
G02*
X45543000Y-109465000I0J100000D01*
G01*
D14*
%TO.C,TP2*%
X50750000Y-82500000D02*
G75*
G02*
X48850000Y-82500000I-950000J0D01*
G01*
X48850000Y-82500000D02*
G75*
G02*
X50750000Y-82500000I950000J0D01*
G01*
%TO.C,J13*%
X27160000Y-72390000D02*
X25060000Y-72390000D01*
X27160000Y-87610000D02*
X25060000Y-87610000D01*
X32660000Y-72390000D02*
X29860000Y-72390000D01*
X32660000Y-87610000D02*
X29860000Y-87610000D01*
X36210000Y-73300000D02*
X36210000Y-75100000D01*
X36210000Y-84900000D02*
X36210000Y-86700000D01*
X36960000Y-84900000D02*
X36210000Y-84900000D01*
%TO.C,TP4*%
X51050000Y-78900000D02*
G75*
G02*
X49150000Y-78900000I-950000J0D01*
G01*
X49150000Y-78900000D02*
G75*
G02*
X51050000Y-78900000I950000J0D01*
G01*
D10*
%TO.C,D6*%
X42200000Y-80750000D02*
X42000000Y-80750000D01*
X42200000Y-83250000D02*
X41800000Y-83250000D01*
X42900000Y-83400000D02*
X42900000Y-83400000D01*
X43000000Y-83400000D02*
X43000000Y-83400000D01*
X42900000Y-83400000D02*
G75*
G02*
X43000000Y-83400000I50000J0D01*
G01*
X43000000Y-83400000D02*
G75*
G02*
X42900000Y-83400000I-50000J0D01*
G01*
D14*
%TO.C,C2*%
X106468748Y-84195000D02*
X107891252Y-84195000D01*
X106468748Y-86015000D02*
X107891252Y-86015000D01*
%TO.C,U1*%
X104745000Y-93305000D02*
X104745000Y-109175000D01*
X106830000Y-93305000D02*
X106830000Y-90865000D01*
X107800000Y-93305000D02*
X107800000Y-90865000D01*
X109370000Y-93305000D02*
X109370000Y-90865000D01*
X110340000Y-93305000D02*
X110340000Y-90865000D01*
X111910000Y-93305000D02*
X111910000Y-90865000D01*
X112880000Y-93305000D02*
X112880000Y-90865000D01*
X114965000Y-93305000D02*
X104745000Y-93305000D01*
X114965000Y-93305000D02*
X114965000Y-109175000D01*
X114965000Y-109175000D02*
X104745000Y-109175000D01*
%TO.C,TP1*%
X53450000Y-82400000D02*
G75*
G02*
X51550000Y-82400000I-950000J0D01*
G01*
X51550000Y-82400000D02*
G75*
G02*
X53450000Y-82400000I950000J0D01*
G01*
%TO.C,C1*%
X113241252Y-84195000D02*
X111818748Y-84195000D01*
X113241252Y-86015000D02*
X111818748Y-86015000D01*
%TO.C,TP6*%
X48450000Y-79000000D02*
G75*
G02*
X46550000Y-79000000I-950000J0D01*
G01*
X46550000Y-79000000D02*
G75*
G02*
X48450000Y-79000000I950000J0D01*
G01*
D10*
%TO.C,D7*%
X40200000Y-68500000D02*
X40200000Y-68500000D01*
X40300000Y-68500000D02*
X40300000Y-68500000D01*
X41000000Y-68650000D02*
X41400000Y-68650000D01*
X41000000Y-71150000D02*
X41200000Y-71150000D01*
X40200000Y-68500000D02*
G75*
G02*
X40300000Y-68500000I50000J0D01*
G01*
X40300000Y-68500000D02*
G75*
G02*
X40200000Y-68500000I-50000J0D01*
G01*
D14*
%TO.C,C3*%
X106368748Y-80295000D02*
X107791252Y-80295000D01*
X106368748Y-82115000D02*
X107791252Y-82115000D01*
%TO.C,TP3*%
X53550000Y-78900000D02*
G75*
G02*
X51650000Y-78900000I-950000J0D01*
G01*
X51650000Y-78900000D02*
G75*
G02*
X53550000Y-78900000I950000J0D01*
G01*
%TO.C,TP5*%
X48050000Y-82500000D02*
G75*
G02*
X46150000Y-82500000I-950000J0D01*
G01*
X46150000Y-82500000D02*
G75*
G02*
X48050000Y-82500000I950000J0D01*
G01*
%TO.C,J11*%
X66220000Y-106480000D02*
X66220000Y-105100000D01*
X67600000Y-106480000D02*
X66220000Y-106480000D01*
X68870000Y-103720000D02*
X79140000Y-103720000D01*
X68870000Y-106480000D02*
X68870000Y-103720000D01*
X68870000Y-106480000D02*
X79140000Y-106480000D01*
X79140000Y-106480000D02*
X79140000Y-103720000D01*
D10*
%TO.C,D1*%
X42450000Y-94250000D02*
X42250000Y-94250000D01*
X42450000Y-96750000D02*
X42050000Y-96750000D01*
X43150000Y-96900000D02*
X43150000Y-96900000D01*
X43250000Y-96900000D02*
X43250000Y-96900000D01*
X43150000Y-96900000D02*
G75*
G02*
X43250000Y-96900000I50000J0D01*
G01*
X43250000Y-96900000D02*
G75*
G02*
X43150000Y-96900000I-50000J0D01*
G01*
D14*
%TO.C,D2*%
X50915000Y-104327500D02*
X50915000Y-108387500D01*
X54085000Y-104327500D02*
X50915000Y-104327500D01*
X54085000Y-108387500D02*
X54085000Y-104327500D01*
%TD*%
%LPC*%
D16*
%TO.C,D8*%
X48700000Y-105300000D03*
X48700000Y-108275000D03*
%TD*%
D17*
%TO.C,J14*%
X31720316Y-94174174D03*
X31720316Y-99954174D03*
D18*
X32795316Y-93864174D03*
X32795316Y-94664174D03*
D19*
X32795316Y-95814174D03*
X32795316Y-96814174D03*
X32795316Y-97314174D03*
X32795316Y-98314174D03*
D18*
X32795316Y-99464174D03*
X32795316Y-100264174D03*
X32795316Y-100264174D03*
X32795316Y-99464174D03*
D19*
X32795316Y-98814174D03*
X32795316Y-97814174D03*
X32795316Y-96314174D03*
X32795316Y-95314174D03*
D18*
X32795316Y-94664174D03*
X32795316Y-93864174D03*
D20*
X32220316Y-92744174D03*
D21*
X28040316Y-92744174D03*
D20*
X32220316Y-101384174D03*
D21*
X28040316Y-101384174D03*
%TD*%
D22*
%TO.C,J16*%
X119420000Y-44000000D03*
D23*
X116880000Y-44000000D03*
X114340000Y-44000000D03*
X111800000Y-44000000D03*
X109260000Y-44000000D03*
X106720000Y-44000000D03*
X104180000Y-44000000D03*
X101640000Y-44000000D03*
X99100000Y-44000000D03*
X96560000Y-44000000D03*
X94020000Y-44000000D03*
X91480000Y-44000000D03*
X88940000Y-44000000D03*
X86400000Y-44000000D03*
X83860000Y-44000000D03*
X81320000Y-44000000D03*
X78780000Y-44000000D03*
X76240000Y-44000000D03*
X73700000Y-44000000D03*
X71160000Y-44000000D03*
X68620000Y-44000000D03*
X66080000Y-44000000D03*
X63540000Y-44000000D03*
X61000000Y-44000000D03*
X58460000Y-44000000D03*
X55920000Y-44000000D03*
X53380000Y-44000000D03*
X50840000Y-44000000D03*
X48300000Y-44000000D03*
X45760000Y-44000000D03*
X43220000Y-44000000D03*
X40680000Y-44000000D03*
X38140000Y-44000000D03*
X35600000Y-44000000D03*
X33060000Y-44000000D03*
X30520000Y-44000000D03*
X27980000Y-44000000D03*
%TD*%
D24*
%TO.C,J15*%
X43630000Y-109565000D03*
X41630000Y-109565000D03*
X39630000Y-109565000D03*
X37630000Y-109565000D03*
D25*
X43900000Y-112300000D03*
X36900000Y-112300000D03*
X36900000Y-106830000D03*
X43900000Y-106830000D03*
%TD*%
D26*
%TO.C,TP2*%
X49800000Y-82500000D03*
%TD*%
D27*
%TO.C,J13*%
X35260000Y-84500000D03*
X35260000Y-84000000D03*
X35260000Y-83500000D03*
X35260000Y-83000000D03*
X35260000Y-82500000D03*
X35260000Y-82000000D03*
X35260000Y-81500000D03*
X35260000Y-81000000D03*
X35260000Y-80500000D03*
X35260000Y-80000000D03*
X35260000Y-79500000D03*
X35260000Y-79000000D03*
X35260000Y-78500000D03*
X35260000Y-78000000D03*
X35260000Y-77500000D03*
X35260000Y-77000000D03*
X35260000Y-76500000D03*
X35260000Y-76000000D03*
X35260000Y-75500000D03*
D28*
X34500000Y-87250000D03*
X34500000Y-72750000D03*
D29*
X28540000Y-87250000D03*
X28540000Y-72750000D03*
%TD*%
D26*
%TO.C,TP4*%
X50100000Y-78900000D03*
%TD*%
D30*
%TO.C,D6*%
X42438000Y-83000000D03*
X42438000Y-82500000D03*
D31*
X42000000Y-82000000D03*
D30*
X42438000Y-81500000D03*
X42438000Y-81000000D03*
X41562000Y-81000000D03*
X41562000Y-81500000D03*
X41562000Y-82500000D03*
X41562000Y-83000000D03*
%TD*%
D32*
%TO.C,C2*%
X105705000Y-85105000D03*
X108655000Y-85105000D03*
%TD*%
D33*
%TO.C,U1*%
X109855000Y-106265000D03*
D34*
X112395000Y-89605000D03*
D35*
X109855000Y-89605000D03*
X107315000Y-89605000D03*
%TD*%
D26*
%TO.C,TP1*%
X52500000Y-82400000D03*
%TD*%
D36*
%TO.C,C1*%
X114005000Y-85105000D03*
X111055000Y-85105000D03*
%TD*%
D26*
%TO.C,TP6*%
X47500000Y-79000000D03*
%TD*%
D30*
%TO.C,D7*%
X40762000Y-68900000D03*
X40762000Y-69400000D03*
D31*
X41200000Y-69900000D03*
D30*
X40762000Y-70400000D03*
X40762000Y-70900000D03*
X41638000Y-70900000D03*
X41638000Y-70400000D03*
X41638000Y-69400000D03*
X41638000Y-68900000D03*
%TD*%
D32*
%TO.C,C3*%
X105605000Y-81205000D03*
X108555000Y-81205000D03*
%TD*%
D26*
%TO.C,TP3*%
X52600000Y-78900000D03*
%TD*%
%TO.C,TP5*%
X47100000Y-82500000D03*
%TD*%
D22*
%TO.C,J11*%
X67600000Y-105100000D03*
D23*
X70140000Y-105100000D03*
X72680000Y-105100000D03*
X75220000Y-105100000D03*
X77760000Y-105100000D03*
%TD*%
D30*
%TO.C,D1*%
X42688000Y-96500000D03*
X42688000Y-96000000D03*
D31*
X42250000Y-95500000D03*
D30*
X42688000Y-95000000D03*
X42688000Y-94500000D03*
X41812000Y-94500000D03*
X41812000Y-95000000D03*
X41812000Y-96000000D03*
X41812000Y-96500000D03*
%TD*%
D16*
%TO.C,D2*%
X52500000Y-105300000D03*
X52500000Y-108275000D03*
%TD*%
D37*
%TO.C,J2*%
X101600000Y-66000000D03*
D38*
X103600000Y-66000000D03*
X101600000Y-64000000D03*
X103600000Y-64000000D03*
X101600000Y-62000000D03*
X103600000Y-62000000D03*
X101600000Y-60000000D03*
X103600000Y-60000000D03*
X101600000Y-58000000D03*
X103600000Y-58000000D03*
X101600000Y-56000000D03*
X103600000Y-56000000D03*
X101600000Y-54000000D03*
X103600000Y-54000000D03*
X101600000Y-52000000D03*
X103600000Y-52000000D03*
X101600000Y-50000000D03*
X103600000Y-50000000D03*
%TD*%
D22*
%TO.C,J12*%
X118040000Y-89500000D03*
D23*
X118040000Y-92040000D03*
X115500000Y-89500000D03*
X115500000Y-92040000D03*
%TD*%
D37*
%TO.C,J8*%
X37900000Y-66000000D03*
D38*
X39900000Y-66000000D03*
X37900000Y-64000000D03*
X39900000Y-64000000D03*
X37900000Y-62000000D03*
X39900000Y-62000000D03*
X37900000Y-60000000D03*
X39900000Y-60000000D03*
X37900000Y-58000000D03*
X39900000Y-58000000D03*
X37900000Y-56000000D03*
X39900000Y-56000000D03*
X37900000Y-54000000D03*
X39900000Y-54000000D03*
X37900000Y-52000000D03*
X39900000Y-52000000D03*
X37900000Y-50000000D03*
X39900000Y-50000000D03*
%TD*%
D37*
%TO.C,J7*%
X48600000Y-66000000D03*
D38*
X50600000Y-66000000D03*
X48600000Y-64000000D03*
X50600000Y-64000000D03*
X48600000Y-62000000D03*
X50600000Y-62000000D03*
X48600000Y-60000000D03*
X50600000Y-60000000D03*
X48600000Y-58000000D03*
X50600000Y-58000000D03*
X48600000Y-56000000D03*
X50600000Y-56000000D03*
X48600000Y-54000000D03*
X50600000Y-54000000D03*
X48600000Y-52000000D03*
X50600000Y-52000000D03*
X48600000Y-50000000D03*
X50600000Y-50000000D03*
%TD*%
D37*
%TO.C,J6*%
X59300000Y-66000000D03*
D38*
X61300000Y-66000000D03*
X59300000Y-64000000D03*
X61300000Y-64000000D03*
X59300000Y-62000000D03*
X61300000Y-62000000D03*
X59300000Y-60000000D03*
X61300000Y-60000000D03*
X59300000Y-58000000D03*
X61300000Y-58000000D03*
X59300000Y-56000000D03*
X61300000Y-56000000D03*
X59300000Y-54000000D03*
X61300000Y-54000000D03*
X59300000Y-52000000D03*
X61300000Y-52000000D03*
X59300000Y-50000000D03*
X61300000Y-50000000D03*
%TD*%
D37*
%TO.C,J4*%
X80900000Y-66000000D03*
D38*
X82900000Y-66000000D03*
X80900000Y-64000000D03*
X82900000Y-64000000D03*
X80900000Y-62000000D03*
X82900000Y-62000000D03*
X80900000Y-60000000D03*
X82900000Y-60000000D03*
X80900000Y-58000000D03*
X82900000Y-58000000D03*
X80900000Y-56000000D03*
X82900000Y-56000000D03*
X80900000Y-54000000D03*
X82900000Y-54000000D03*
X80900000Y-52000000D03*
X82900000Y-52000000D03*
X80900000Y-50000000D03*
X82900000Y-50000000D03*
%TD*%
D37*
%TO.C,J5*%
X70100000Y-66000000D03*
D38*
X72100000Y-66000000D03*
X70100000Y-64000000D03*
X72100000Y-64000000D03*
X70100000Y-62000000D03*
X72100000Y-62000000D03*
X70100000Y-60000000D03*
X72100000Y-60000000D03*
X70100000Y-58000000D03*
X72100000Y-58000000D03*
X70100000Y-56000000D03*
X72100000Y-56000000D03*
X70100000Y-54000000D03*
X72100000Y-54000000D03*
X70100000Y-52000000D03*
X72100000Y-52000000D03*
X70100000Y-50000000D03*
X72100000Y-50000000D03*
%TD*%
D37*
%TO.C,J1*%
X111800000Y-65900000D03*
D38*
X113800000Y-65900000D03*
X111800000Y-63900000D03*
X113800000Y-63900000D03*
X111800000Y-61900000D03*
X113800000Y-61900000D03*
X111800000Y-59900000D03*
X113800000Y-59900000D03*
X111800000Y-57900000D03*
X113800000Y-57900000D03*
X111800000Y-55900000D03*
X113800000Y-55900000D03*
X111800000Y-53900000D03*
X113800000Y-53900000D03*
X111800000Y-51900000D03*
X113800000Y-51900000D03*
X111800000Y-49900000D03*
X113800000Y-49900000D03*
%TD*%
D37*
%TO.C,J9*%
X27500000Y-66000000D03*
D38*
X29500000Y-66000000D03*
X27500000Y-64000000D03*
X29500000Y-64000000D03*
X27500000Y-62000000D03*
X29500000Y-62000000D03*
X27500000Y-60000000D03*
X29500000Y-60000000D03*
X27500000Y-58000000D03*
X29500000Y-58000000D03*
X27500000Y-56000000D03*
X29500000Y-56000000D03*
X27500000Y-54000000D03*
X29500000Y-54000000D03*
X27500000Y-52000000D03*
X29500000Y-52000000D03*
X27500000Y-50000000D03*
X29500000Y-50000000D03*
%TD*%
D37*
%TO.C,J3*%
X91400000Y-66000000D03*
D38*
X93400000Y-66000000D03*
X91400000Y-64000000D03*
X93400000Y-64000000D03*
X91400000Y-62000000D03*
X93400000Y-62000000D03*
X91400000Y-60000000D03*
X93400000Y-60000000D03*
X91400000Y-58000000D03*
X93400000Y-58000000D03*
X91400000Y-56000000D03*
X93400000Y-56000000D03*
X91400000Y-54000000D03*
X93400000Y-54000000D03*
X91400000Y-52000000D03*
X93400000Y-52000000D03*
X91400000Y-50000000D03*
X93400000Y-50000000D03*
%TD*%
D39*
X120900000Y-117900000D03*
X29100000Y-117900000D03*
%LPD*%
M02*
